<svg width="16" height="16" viewBox="0 0 16 16" fill="none" xmlns="http://www.w3.org/2000/svg">
<g clip-path="url(#clip0_1457_745)">
<path d="M8.90932 0.119201H2.09955C2.02885 0.119201 1.95885 0.13314 1.89354 0.160222C1.82824 0.187303 1.76891 0.226995 1.71897 0.277027C1.66902 0.327058 1.62942 0.386447 1.60245 0.451796C1.57548 0.517145 1.56165 0.587171 1.56177 0.657868V15.3423C1.56165 15.413 1.57548 15.483 1.60245 15.5484C1.62942 15.6137 1.66902 15.6731 1.71897 15.7232C1.76891 15.7732 1.82824 15.8129 1.89354 15.84C1.95885 15.867 2.02885 15.881 2.09955 15.881H13.9004C14.0424 15.8798 14.1782 15.8225 14.2781 15.7216C14.3781 15.6207 14.434 15.4843 14.4338 15.3423V5.62409C14.434 5.48207 14.3781 5.34573 14.2781 5.24481C14.1782 5.14389 14.0424 5.0866 13.9004 5.08542H9.98399C9.84213 5.08425 9.70649 5.02707 9.60659 4.92635C9.5067 4.82562 9.45065 4.68951 9.45066 4.54765V0.657868C9.45138 0.586703 9.43785 0.516115 9.41086 0.450261C9.38388 0.384407 9.34399 0.324619 9.29354 0.27442C9.24309 0.224221 9.18311 0.184627 9.11712 0.157969C9.05114 0.131311 8.98048 0.11813 8.90932 0.119201Z" fill="white"/>
<path d="M8.66033 0.807111V4.49511C8.66056 4.85362 8.8029 5.19742 9.05616 5.45118C9.30941 5.70493 9.65293 5.84795 10.0114 5.84889H13.727V15.1929H2.27278V0.807111H8.66033ZM8.92077 0H2.01233C1.94058 -9.51563e-08 1.86954 0.0141463 1.80327 0.0416297C1.73699 0.0691132 1.67679 0.109394 1.62609 0.160169C1.5754 0.210943 1.53522 0.271214 1.50784 0.337534C1.48047 0.403853 1.46644 0.474919 1.46655 0.546667V15.4533C1.46644 15.5251 1.48047 15.5961 1.50784 15.6625C1.53522 15.7288 1.5754 15.7891 1.62609 15.8398C1.67679 15.8906 1.73699 15.9309 1.80327 15.9584C1.86954 15.9859 1.94058 16 2.01233 16H13.9874C14.0592 16 14.1302 15.9859 14.1965 15.9584C14.2628 15.9309 14.323 15.8906 14.3737 15.8398C14.4244 15.7891 14.4646 15.7288 14.4919 15.6625C14.5193 15.5961 14.5333 15.5251 14.5332 15.4533V5.58756C14.5332 5.44281 14.4757 5.30399 14.3734 5.20163C14.271 5.09928 14.1322 5.04178 13.9874 5.04178H10.0114C9.93977 5.04166 9.86882 5.02743 9.80265 4.99989C9.73648 4.97236 9.67638 4.93206 9.62578 4.88129C9.57518 4.83053 9.53508 4.7703 9.50776 4.70404C9.48044 4.63778 9.46644 4.56678 9.46655 4.49511V0.546667C9.46667 0.474919 9.45264 0.403853 9.42526 0.337534C9.39789 0.271214 9.3577 0.210943 9.30701 0.160169C9.25632 0.109394 9.19612 0.0691132 9.12984 0.0416297C9.06357 0.0141463 8.99252 -9.51563e-08 8.92077 0V0Z" fill="url(#paint0_linear_1457_745)"/>
<path d="M14.3252 5.15025L9.2781 0.119141V4.2187C9.27728 4.34029 9.30043 4.46085 9.34623 4.57349C9.39203 4.68613 9.45959 4.78863 9.54503 4.87515C9.63047 4.96166 9.73213 5.03049 9.84418 5.07769C9.95624 5.1249 10.0765 5.14955 10.1981 5.15025H14.3252Z" fill="#0078D4"/>
<path d="M11.9074 7.2854H4.09142C3.7954 7.2854 3.55542 7.52538 3.55542 7.8214V7.9414C3.55542 8.23742 3.7954 8.4774 4.09142 8.4774H11.9074C12.2034 8.4774 12.4434 8.23742 12.4434 7.9414V7.8214C12.4434 7.52538 12.2034 7.2854 11.9074 7.2854Z" fill="#5EA0EF"/>
<path d="M11.9074 9.42139H4.09142C3.7954 9.42139 3.55542 9.66136 3.55542 9.95739V10.0774C3.55542 10.3734 3.7954 10.6134 4.09142 10.6134H11.9074C12.2034 10.6134 12.4434 10.3734 12.4434 10.0774V9.95739C12.4434 9.66136 12.2034 9.42139 11.9074 9.42139Z" fill="#5EA0EF"/>
<path d="M8.6212 11.5574H4.09142C3.7954 11.5574 3.55542 11.7973 3.55542 12.0934V12.2134C3.55542 12.5094 3.7954 12.7494 4.09142 12.7494H8.6212C8.91722 12.7494 9.1572 12.5094 9.1572 12.2134V12.0934C9.1572 11.7973 8.91722 11.5574 8.6212 11.5574Z" fill="#5EA0EF"/>
</g>
<defs>
<linearGradient id="paint0_linear_1457_745" x1="7.99989" y1="16" x2="7.99989" y2="0" gradientUnits="userSpaceOnUse">
<stop stop-color="#0078D4"/>
<stop offset="0.817" stop-color="#5EA0EF"/>
</linearGradient>
<clipPath id="clip0_1457_745">
<rect width="16" height="16" fill="white"/>
</clipPath>
</defs>
</svg>
