<svg id="e7726746-0394-43fe-a9aa-3f28f7ae43f6" xmlns="http://www.w3.org/2000/svg" width="18" height="18" viewBox="0 0 18 18"><g id="b8b38525-3843-4cf0-a536-524c42f8fc37"><rect x="-701.3" y="-52.8" width="1428" height="830" fill="none"/></g><path d="M18,3.8a.713.713,0,0,0-.621-.795A.7.7,0,0,0,17.3,3H.7a.712.712,0,0,0-.7.721A.684.684,0,0,0,0,3.8V14.2a.713.713,0,0,0,.621.8A.7.7,0,0,0,.7,15H17.3a.808.808,0,0,0,.7-.9Z" fill="#821010"/><path d="M6.6,4.1h4.9V6.7H6.6Zm8.5,3.6h2v2.6h-2ZM3.8,7.7H8.7v2.6H3.8Zm2.8,3.5h4.9v2.6H6.6Z" fill="#ff7381"/><path d="M1,4.1H5.9V6.7H1Zm11.2,0h4.9V6.7H12.2ZM1,7.7H3v2.6H1Zm8.4,0h4.9v2.6H9.4ZM1,11.2H5.9v2.6H1Zm11.2,0h4.9v2.6H12.2Z" fill="#e62323"/></svg>