<svg id="e39efabb-8d07-44d3-bbde-be1ab8ad526f" xmlns="http://www.w3.org/2000/svg" xmlns:xlink="http://www.w3.org/1999/xlink" viewBox="0 0 18 18">
  <defs>
    <linearGradient id="linear-gradient" x1="9" y1="20.001" x2="9" y2="1.999" gradientTransform="matrix(1, 0, 0, -1, 0, 20)" gradientUnits="userSpaceOnUse">
      <stop offset="0" stop-color="#b3b2b3"/>
      <stop offset="0.375" stop-color="#afaeaf"/>
      <stop offset="0.763" stop-color="#a2a2a2"/>
      <stop offset="1" stop-color="#979797"/>
    </linearGradient>
  </defs>
  <rect x="-746.639" y="-592.013" width="1991.957" height="1767.411" fill="none" stroke="#000" stroke-miterlimit="10" stroke-width="1.302"/>
  <g>
    <path d="M14.843,17.39a.644.644,0,0,1-.674.61H3.831a.644.644,0,0,1-.674-.61V.61A.644.644,0,0,1,3.831,0H14.169a.644.644,0,0,1,.674.61Z" fill="url(#linear-gradient)"/>
    <path d="M4.875,7.7a1.338,1.338,0,0,1,1.27-1.4h5.816a1.34,1.34,0,0,1,1.27,1.4h0a1.34,1.34,0,0,1-1.27,1.4H6.145A1.338,1.338,0,0,1,4.875,7.7Z" fill="#003067"/>
    <path d="M4.875,3.537a1.338,1.338,0,0,1,1.27-1.4h5.816a1.34,1.34,0,0,1,1.27,1.4h0a1.34,1.34,0,0,1-1.27,1.4H6.145A1.338,1.338,0,0,1,4.875,3.537Z" fill="#003067"/>
    <circle cx="6.509" cy="3.537" r="0.939" fill="#50e6ff"/>
    <circle cx="6.509" cy="7.695" r="0.939" fill="#50e6ff"/>
  </g>
</svg>
