<?xml version="1.0" encoding="utf-8"?>
<!-- Generator: Adobe Illustrator 20.0.0, SVG Export Plug-In . SVG Version: 6.00 Build 0)  -->
<svg version="1.1" id="Layer_2" xmlns="http://www.w3.org/2000/svg" xmlns:xlink="http://www.w3.org/1999/xlink" x="0px" y="0px"
	 viewBox="0 0 50 50" enable-background="new 0 0 50 50" xml:space="preserve">
<path fill="#59B4D9" d="M28,47.462C28,48.864,26.917,50,25.58,50H2.42C1.083,50,0,48.864,0,47.462V2.538C0,1.136,1.083,0,2.42,0
	h23.16C26.917,0,28,1.136,28,2.538V47.462z"/>
<path opacity="0.75" fill="#1E1E1E" enable-background="new    " d="M3.502,8c0-1.657,1.429-3,3.191-3h14.614
	c1.762,0,3.191,1.343,3.191,3l0,0c0,1.657-1.429,3-3.191,3H6.693C4.931,11.001,3.502,9.657,3.502,8L3.502,8z"/>
<circle fill="#B8D432" cx="7.643" cy="8" r="2"/>
<path opacity="0.75" fill="#1E1E1E" enable-background="new    " d="M3.502,17c0-1.657,1.429-3,3.191-3h14.614
	c1.762,0,3.191,1.343,3.191,3l0,0c0,1.657-1.429,3-3.191,3H6.693C4.931,20.001,3.502,18.657,3.502,17L3.502,17z"/>
<circle fill="#B8D432" cx="7.643" cy="17" r="2"/>
<path opacity="0.75" fill="#1E1E1E" enable-background="new    " d="M3.502,26c0-1.657,1.429-3,3.191-3h14.614
	c1.762,0,3.191,1.343,3.191,3l0,0c0,1.657-1.429,3-3.191,3H6.693C4.931,29.001,3.502,27.657,3.502,26L3.502,26z"/>
<circle fill="#B8D432" cx="7.643" cy="26" r="2"/>
<path fill="#59B4D9" d="M50,48.223C50,49.205,49.226,50,48.271,50H31.729C30.774,50,30,49.205,30,48.223V16.777
	C30,15.795,30.774,15,31.729,15h16.543C49.226,15,50,15.795,50,16.777V48.223z"/>
<path opacity="0.75" fill="#1E1E1E" enable-background="new    " d="M35,19h10c1.259,0,1.9,1,1.9,2s-0.641,2-1.9,2H35
	c-1.259,0.001-1.9-1-1.9-2S33.741,19,35,19z"/>
<ellipse fill="#B8D432" cx="36" cy="21.095" rx="1.4" ry="1.333"/>
<path opacity="0.75" fill="#1E1E1E" enable-background="new    " d="M35,25h10c1.259,0,1.9,1,1.9,2s-0.641,2-1.9,2H35
	c-1.259,0.001-1.9-1-1.9-2S33.741,25,35,25z"/>
<ellipse fill="#B8D432" cx="36" cy="27.095" rx="1.4" ry="1.333"/>
<path opacity="0.75" fill="#1E1E1E" enable-background="new    " d="M35,31h10c1.259,0,1.9,1,1.9,2s-0.641,2-1.9,2H35
	c-1.259,0.001-1.9-1-1.9-2S33.741,31,35,31z"/>
<ellipse fill="#B8D432" cx="36" cy="33.095" rx="1.4" ry="1.333"/>
</svg>
