<svg width="300" height="180" viewBox="0 0 300 180" fill="none" xmlns="http://www.w3.org/2000/svg">
<path d="M236.956 159.448C232.321 159.446 227.77 158.21 223.771 155.868L210.089 147.868L211.098 146.141L224.781 154.141C228.56 156.357 232.873 157.5 237.253 157.446C241.634 157.392 245.917 156.142 249.64 153.833L263.763 145.099C265.005 144.33 266.026 143.253 266.728 141.973C267.429 140.692 267.788 139.252 267.768 137.792C267.747 136.332 267.35 134.902 266.613 133.642C265.876 132.381 264.825 131.333 263.563 130.599L254.927 125.579L255.933 123.85L264.569 128.871C266.13 129.778 267.43 131.075 268.341 132.634C269.252 134.194 269.744 135.962 269.768 137.768C269.793 139.574 269.349 141.355 268.481 142.939C267.613 144.522 266.349 145.854 264.813 146.804L250.69 155.538C246.565 158.093 241.809 159.447 236.956 159.448V159.448Z" fill="#D8D8D8"/>
<path d="M204.706 82.2528C205.06 83.146 205.739 83.872 206.606 84.2848L238.482 101.537C240.86 102.878 244.436 102.977 246.468 101.776L268.927 88.4508C269.28 88.2793 269.587 88.0256 269.822 87.711C270.056 87.3964 270.212 87.0301 270.276 86.6428C270.294 86.5057 270.294 86.3669 270.276 86.2298C270.155 85.7071 269.914 85.2197 269.573 84.8061C269.231 84.3925 268.798 84.0641 268.307 83.8468L236.422 66.5998C234.043 65.2578 230.467 65.1588 228.435 66.3598L205.976 79.6818C205.492 79.8877 205.098 80.2603 204.865 80.732C204.632 81.2037 204.575 81.7432 204.706 82.2528V82.2528Z" fill="#D8D8D8"/>
<path d="M248.816 130.741L248.747 130.847L246.906 131.941L246.82 131.994C244.787 133.194 241.211 133.094 238.833 131.755L206.958 114.5C205.393 113.622 204.738 112.427 205.05 111.378L204.706 82.249C205.059 83.1426 205.738 83.8689 206.606 84.281L238.482 101.533C240.86 102.875 244.435 102.973 246.468 101.772L246.555 101.719L268.936 88.438C269.289 88.2663 269.595 88.0125 269.83 87.698C270.064 87.3834 270.22 87.0172 270.284 86.63L270.636 116.436C270.656 116.573 270.657 116.711 270.641 116.848C270.576 117.235 270.42 117.601 270.185 117.915C269.951 118.23 269.644 118.484 269.292 118.656L268.464 119.14L248.816 130.741Z" fill="white"/>
<path d="M236.106 121.186V123.536L210.983 109.036V106.686L236.106 121.186Z" fill="#ACACAC"/>
<path d="M236.106 117.516L210.983 103.016V100.665L236.106 115.165V117.516Z" fill="#ACACAC"/>
<path d="M210.983 96.9999V94.6499L236.106 109.15V111.5L210.983 96.9999Z" fill="#ACACAC"/>
<path d="M261.927 104.246C261.116 103.771 261.127 102.246 261.945 100.841C262.763 99.4357 264.091 98.6807 264.903 99.1557C265.715 99.6307 265.708 101.156 264.886 102.561C264.064 103.966 262.74 104.721 261.927 104.246Z" fill="#50E6FF"/>
<path d="M204.317 40.5668C204.669 41.4595 205.346 42.1858 206.212 42.5998L238.087 59.8508C240.465 61.1928 244.042 61.2908 246.074 60.0908L268.533 46.7648C268.886 46.5935 269.193 46.34 269.427 46.0255C269.662 45.7111 269.817 45.3449 269.881 44.9578C269.899 44.8208 269.899 44.6819 269.881 44.5448C269.761 44.0218 269.52 43.534 269.178 43.1202C268.836 42.7064 268.403 42.3779 267.912 42.1608L236.032 24.9098C233.654 23.5678 230.078 23.4698 228.045 24.6708L205.586 37.9998C205.103 38.2058 204.709 38.5778 204.477 39.0486C204.244 39.5194 204.187 40.0579 204.317 40.5668Z" fill="#D8D8D8"/>
<path d="M248.427 89.0559L248.358 89.1619L246.517 90.2549L246.43 90.3089C244.398 91.5089 240.822 91.4089 238.444 90.0699L206.568 72.8189C205.004 71.9409 204.348 70.7449 204.661 69.6959L204.317 40.5669C204.669 41.4595 205.346 42.1858 206.212 42.5999L238.087 59.8509C240.465 61.1939 244.041 61.2909 246.074 60.0909L246.16 60.0369L268.541 46.7559C268.894 46.5844 269.201 46.3308 269.435 46.0164C269.67 45.702 269.826 45.336 269.89 44.9489L270.242 74.7539C270.259 74.891 270.259 75.0298 270.242 75.1669C270.177 75.5537 270.02 75.9194 269.786 76.2337C269.551 76.5481 269.245 76.8022 268.893 76.9749L268.064 77.4579L248.427 89.0559Z" fill="white"/>
<path d="M235.716 79.5V81.85L210.593 67.35V65L235.716 79.5Z" fill="#ACACAC"/>
<path d="M235.716 75.83L210.593 61.33V58.98L235.716 73.48V75.83Z" fill="#ACACAC"/>
<path d="M210.593 55.3139V52.9639L235.716 67.4639V69.8139L210.593 55.3139Z" fill="#ACACAC"/>
<path d="M260.578 63.787C259.767 63.312 259.778 61.787 260.596 60.387C261.414 58.987 262.742 58.226 263.554 58.702C264.366 59.178 264.359 60.702 263.537 62.102C262.715 63.502 261.391 64.262 260.578 63.787Z" fill="#50E6FF"/>
<path d="M107.182 146.254C102.728 146.256 98.3855 144.86 94.768 142.261L95.935 140.636C98.9614 142.809 102.553 144.059 106.275 144.234C109.996 144.409 113.689 143.501 116.906 141.621L143.63 126L144.64 127.726L117.915 143.35C114.659 145.255 110.954 146.257 107.182 146.254V146.254Z" fill="#D8D8D8"/>
<path d="M99.513 39.265L110 33.172C115.066 30.228 121.843 30.051 129.492 33.093L119.007 39.187C111.355 36.144 104.578 36.321 99.513 39.265Z" fill="#2195DC"/>
<path d="M215.9 147.848L205.339 153.985C210.26 151.125 213.286 145.207 213.31 136.798C213.354 121.122 202.963 102.085 189.251 91.5247L199.812 85.3877C213.524 95.9467 223.912 114.988 223.871 130.661C223.847 139.069 220.822 144.988 215.9 147.848Z" fill="#2195DC"/>
<path d="M127.213 29.0639L137.7 22.9709C144.322 19.1219 153.716 19.7469 164.034 25.7039C183.753 37.0889 199.68 63.7329 199.809 85.4099L189.321 91.4999C189.193 69.8229 173.265 43.1789 153.546 31.7999C143.229 25.8409 133.834 25.2159 127.213 29.0639Z" fill="#2195DC"/>
<path d="M189.718 91.455C189.588 69.688 173.595 42.933 153.794 31.501C137.77 22.25 123.964 25.806 119.246 38.977C102.736 32.41 90.274 40.777 90.221 59.567C90.161 80.456 105.68 106.367 124.889 117.456C125.919 118.051 126.93 118.591 127.942 119.065L184.273 151.588C184.732 151.858 185.227 152.062 185.743 152.195C201.254 160.404 213.655 153.622 213.703 136.595C213.747 120.961 203.388 101.982 189.718 91.455Z" fill="url(#paint0_linear_3673_3915)"/>
<path d="M111.712 119.948L111.696 125.429C111.679 131.439 107.655 137.442 99.616 142.114L99.631 136.633C107.671 131.961 111.7 125.959 111.712 119.948Z" fill="#D8D8D8"/>
<path d="M29.353 125.207L29.368 119.726C29.351 125.812 33.442 131.905 41.632 136.633L41.616 142.114C33.426 137.386 29.336 131.292 29.353 125.207Z" fill="#E6E6E6"/>
<path d="M70.726 153.431L70.71 158.912L41.616 142.114L41.632 136.633L70.726 153.431Z" fill="#E6E6E6"/>
<path d="M99.631 136.633L99.616 142.114L70.71 158.912L70.726 153.431L99.631 136.633Z" fill="#D8D8D8"/>
<path d="M99.449 103.041C115.727 112.441 115.81 127.231 99.631 136.633L70.731 153.433L41.637 136.633C25.358 127.233 25.275 112.444 41.454 103.041C57.633 93.6376 83.164 93.6386 99.449 103.041Z" fill="white"/>
<path d="M105.48 110.189L105.442 123.39L105.437 125.416L105.474 112.215L105.48 110.189Z" fill="white"/>
<path d="M44.7379 98.3615L44.1729 97.7715L44.1359 110.972L44.6998 111.562L48.6598 116.09L48.6968 102.89L44.7379 98.3615Z" fill="#45CAF2"/>
<path d="M97.006 98.1958L96.969 111.397L93.257 116.356L93.295 103.155L97.006 98.1958Z" fill="#45CAF2"/>
<path d="M82.184 110.117L82.147 123.317C82.147 121.687 81.074 120.06 78.929 118.817C74.584 116.335 67.661 116.358 63.438 118.846C61.352 120.071 60.31 121.665 60.306 123.262L60.343 110.062C60.343 108.462 61.39 106.871 63.475 105.646C67.699 103.159 74.621 103.135 78.967 105.618C81.112 106.859 82.189 108.486 82.184 110.117Z" fill="#45CAF2"/>
<path d="M105.474 112.216L105.437 125.417L104.499 125.623L104.536 112.422L105.474 112.216Z" fill="#45CAF2"/>
<path d="M104.536 112.422L104.499 125.623L95.9356 127.358L95.9736 114.157L104.536 112.422Z" fill="#45CAF2"/>
<path d="M95.9736 114.157L95.9356 127.358L93.6106 130.393L93.6487 117.192L95.9736 114.157Z" fill="#45CAF2"/>
<path d="M37.0548 125.682L38.1618 125.897L46.4958 127.45L48.7357 130.554L48.7727 117.354L46.5338 114.249L38.1988 112.697L37.0928 112.481L37.0548 125.682Z" fill="#45CAF2"/>
<path d="M91.935 125.069L83.39 122.854L78.469 124.454L75.811 129.273L75.448 129.917H67.672L64.222 124.447L58.9 123.192L51.1 125.471L50.088 125.793L44.554 122.6L48.773 117.353L46.534 114.248L38.2 112.7L37.094 112.484L37.12 107.95L46.487 106L48.697 102.892L44.738 98.3637L44.173 97.7737L49.673 94.5797L58.74 97.0437L64.1 95.7577L66.747 90.9387L67.093 90.3057L74.846 90.3317L78.159 95.7997L83.459 97.1897L90.965 95.0307H91.52L97.006 98.1997L93.3 103.155L96.047 105.964L104.376 107.52L105.482 107.729V110.19L105.476 112.216L104.538 112.422L95.976 114.157L93.651 117.192L97.403 121.547L97.422 121.882L91.935 125.069ZM79.015 114.569C83.276 112.069 83.222 108.078 78.967 105.622C74.621 103.139 67.699 103.163 63.475 105.65C59.251 108.137 59.308 112.112 63.569 114.571C67.903 117.034 74.78 117.024 79.015 114.571" fill="#50E6FF"/>
<path d="M97.4197 121.882L97.3827 135.083L91.8978 138.27L83.3528 136.054L78.4317 137.656L75.7729 142.475L75.4099 143.119L75.4479 129.919L75.8107 129.275L78.4687 124.456L83.3898 122.854L91.9348 125.069L97.4197 121.882Z" fill="#45CAF2"/>
<path d="M58.8957 123.192L64.2216 124.449L67.6716 129.919L75.4479 129.919L75.4099 143.119L67.6336 143.119L64.1846 137.65L58.8577 136.393L51.0548 138.672L50.0428 138.993L44.5157 135.803L44.5537 122.602L50.0798 125.793L51.0917 125.471L58.8957 123.192Z" fill="#45CAF2"/>
<defs>
<linearGradient id="paint0_linear_3673_3915" x1="137.041" y1="18.4898" x2="151.531" y2="166.498" gradientUnits="userSpaceOnUse">
<stop stop-color="#45CAF2"/>
<stop offset="1" stop-color="#2195DC"/>
</linearGradient>
</defs>
</svg>
