<svg xmlns="http://www.w3.org/2000/svg" viewBox="0 0 50 32"><title>Asset 1updatemgmt</title><g id="Layer_2" data-name="Layer 2"><g id="Layer_1-2" data-name="Layer 1"><path d="M39.79,10.581c-.176,0-.726.017-.9.026A10.647,10.647,0,0,0,28.513,4.1c-5.485,0-10.414,4.112-11.258,9.152-.053,0-.105-.008-.158-.008-2.651,0-5.194,1.835-6.892,3.756H22.957v.017a6.453,6.453,0,1,1,.046,6.9V24H8.425C9.288,28,12,32,18,32H38c6,0,12-4.044,12-10.5S45.429,10.581,39.79,10.581Z" fill="#0072c6"/><path d="M7.829,19.08a5.274,5.274,0,0,1-5.188-5.3A5.43,5.43,0,0,1,8.047,8.353l.064,0,.192.011,1.736.073.677-1.6A7.1,7.1,0,0,1,21.677,4.048a12.445,12.445,0,0,1,2.536-1.043A9.587,9.587,0,0,0,8.408,5.864c-.113,0-.224-.017-.339-.017A8.05,8.05,0,0,0,0,13.782a8.137,8.137,0,0,0,7.829,7.989H27.038v-2.69H7.829Z" fill="#0072c6"/><ellipse cx="28.382" cy="20.425" rx="3.901" ry="3.955" fill="#0072c6"/></g></g></svg>