<svg width="67" height="67" viewBox="0 0 67 67" fill="none" xmlns="http://www.w3.org/2000/svg">
<g clip-path="url(#clip0)">
<path d="M67 38.2315C66.8925 34.6617 65.5196 31.2462 63.1263 28.5952C60.733 25.9442 57.4753 24.2303 53.935 23.7595C53.7162 18.774 51.543 14.0751 47.8857 10.6798C44.2285 7.28449 39.3814 5.46584 34.3933 5.61741C30.3593 5.54097 26.4012 6.72037 23.0668 8.99237C19.7325 11.2644 17.1869 14.5166 15.7822 18.299C11.5201 18.8192 7.58513 20.8485 4.69004 24.0194C1.79495 27.1904 0.131162 31.2933 0 35.585C0.18806 40.4062 2.27876 44.9564 5.81436 48.2395C9.34996 51.5225 14.0424 53.2709 18.8642 53.1018C19.4263 53.1018 19.9809 53.0757 20.5281 53.0311H51.0763C51.3497 53.0278 51.6214 52.9877 51.8841 52.912C55.8097 52.8839 59.573 51.3415 62.3893 48.6064C65.2055 45.8713 66.8572 42.1547 67 38.2315Z" fill="url(#paint0_linear)"/>
<path d="M48.9218 28.3H17.7556C17.1389 28.3 16.6389 28.8 16.6389 29.4167V36.314C16.6389 36.9307 17.1389 37.4307 17.7556 37.4307H48.9218C49.5385 37.4307 50.0384 36.9307 50.0384 36.314V29.4167C50.0384 28.8 49.5385 28.3 48.9218 28.3Z" fill="#9CEBFF"/>
<path d="M48.9218 38.9307H17.7556C17.1389 38.9307 16.6389 39.4306 16.6389 40.0473V46.9446C16.6389 47.5613 17.1389 48.0613 17.7556 48.0613H48.9218C49.5385 48.0613 50.0384 47.5613 50.0384 46.9446V40.0473C50.0384 39.4306 49.5385 38.9307 48.9218 38.9307Z" fill="#50E6FF"/>
<path d="M48.9218 49.741H17.7556C17.1389 49.741 16.6389 50.2409 16.6389 50.8576V57.7549C16.6389 58.3716 17.1389 58.8716 17.7556 58.8716H48.9218C49.5385 58.8716 50.0384 58.3716 50.0384 57.7549V50.8576C50.0384 50.2409 49.5385 49.741 48.9218 49.741Z" fill="#32BEDD"/>
<path d="M46.7841 32.3839H45.4106C45.3372 32.3839 45.2646 32.3695 45.1969 32.3414C45.1292 32.3133 45.0676 32.2722 45.0158 32.2204C44.9639 32.1685 44.9228 32.107 44.8947 32.0392C44.8667 31.9715 44.8522 31.8989 44.8522 31.8256V30.4558C44.8522 30.3825 44.8667 30.3099 44.8947 30.2421C44.9228 30.1744 44.9639 30.1128 45.0158 30.061C45.0676 30.0092 45.1292 29.968 45.1969 29.94C45.2646 29.9119 45.3372 29.8975 45.4106 29.8975H46.7878C46.8611 29.8975 46.9337 29.9119 47.0015 29.94C47.0692 29.968 47.1307 30.0092 47.1826 30.061C47.2344 30.1128 47.2756 30.1744 47.3036 30.2421C47.3317 30.3099 47.3461 30.3825 47.3461 30.4558V31.8367C47.3432 31.9835 47.2826 32.1232 47.1774 32.2256C47.0722 32.3281 46.9309 32.3849 46.7841 32.3839ZM47.3424 35.2649V33.8877C47.3424 33.8144 47.328 33.7418 47.2999 33.674C47.2718 33.6063 47.2307 33.5447 47.1789 33.4929C47.127 33.441 47.0655 33.3999 46.9977 33.3719C46.93 33.3438 46.8574 33.3294 46.7841 33.3294H45.4106C45.2625 33.3294 45.1205 33.3882 45.0158 33.4929C44.9111 33.5976 44.8522 33.7396 44.8522 33.8877V35.2649C44.8522 35.3382 44.8667 35.4108 44.8947 35.4786C44.9228 35.5463 44.9639 35.6079 45.0158 35.6597C45.0676 35.7116 45.1292 35.7527 45.1969 35.7807C45.2646 35.8088 45.3372 35.8232 45.4106 35.8232H46.7878C46.9333 35.8223 47.0727 35.7646 47.1763 35.6624C47.2799 35.5602 47.3395 35.4216 47.3424 35.2761V35.2649ZM47.3424 42.4562V41.0753C47.3424 41.002 47.328 40.9294 47.2999 40.8616C47.2718 40.7939 47.2307 40.7323 47.1789 40.6805C47.127 40.6286 47.0655 40.5875 46.9977 40.5595C46.93 40.5314 46.8574 40.517 46.7841 40.517H45.4106C45.3372 40.517 45.2646 40.5314 45.1969 40.5595C45.1292 40.5875 45.0676 40.6286 45.0158 40.6805C44.9639 40.7323 44.9228 40.7939 44.8947 40.8616C44.8667 40.9294 44.8522 41.002 44.8522 41.0753V42.4562C44.8522 42.6043 44.9111 42.7463 45.0158 42.851C45.1205 42.9558 45.2625 43.0146 45.4106 43.0146H46.7878C46.9333 43.0136 47.0727 42.9559 47.1763 42.8537C47.2799 42.7515 47.3395 42.6129 47.3424 42.4674V42.4562ZM47.3424 45.8956V44.5184C47.3424 44.445 47.328 44.3724 47.2999 44.3047C47.2718 44.2369 47.2307 44.1754 47.1789 44.1236C47.127 44.0717 47.0655 44.0306 46.9977 44.0025C46.93 43.9745 46.8574 43.96 46.7841 43.96H45.4106C45.2625 43.96 45.1205 44.0188 45.0158 44.1236C44.9111 44.2283 44.8522 44.3703 44.8522 44.5184V45.8956C44.8522 46.0437 44.9111 46.1857 45.0158 46.2904C45.1205 46.3951 45.2625 46.4539 45.4106 46.4539H46.7878C46.9333 46.453 47.0727 46.3953 47.1763 46.293C47.2799 46.1908 47.3395 46.0522 47.3424 45.9067V45.8956ZM47.3424 53.2656V51.8846C47.3424 51.8113 47.328 51.7387 47.2999 51.671C47.2718 51.6032 47.2307 51.5417 47.1789 51.4898C47.127 51.438 47.0655 51.3969 46.9977 51.3688C46.93 51.3407 46.8574 51.3263 46.7841 51.3263H45.4106C45.2625 51.3263 45.1205 51.3851 45.0158 51.4898C44.9111 51.5945 44.8522 51.7366 44.8522 51.8846V53.2656C44.8522 53.4137 44.9111 53.5557 45.0158 53.6604C45.1205 53.7651 45.2625 53.8239 45.4106 53.8239H46.7878C46.9333 53.823 47.0727 53.7652 47.1763 53.663C47.2799 53.5608 47.3395 53.4222 47.3424 53.2767V53.2656ZM47.3424 56.7049V55.3277C47.3424 55.2544 47.328 55.1818 47.2999 55.114C47.2718 55.0463 47.2307 54.9847 47.1789 54.9329C47.127 54.881 47.0655 54.8399 46.9977 54.8119C46.93 54.7838 46.8574 54.7694 46.7841 54.7694H45.4106C45.3372 54.7694 45.2646 54.7838 45.1969 54.8119C45.1292 54.8399 45.0676 54.881 45.0158 54.9329C44.9639 54.9847 44.9228 55.0463 44.8947 55.114C44.8667 55.1818 44.8522 55.2544 44.8522 55.3277V56.7049C44.8522 56.853 44.9111 56.995 45.0158 57.0997C45.1205 57.2044 45.2625 57.2632 45.4106 57.2632H46.7878C46.9333 57.2623 47.0727 57.2046 47.1763 57.1024C47.2799 57.0002 47.3395 56.8616 47.3424 56.7161V56.7049Z" fill="white"/>
<path d="M57 59.75C61.8325 59.75 65.75 55.8325 65.75 51C65.75 46.1675 61.8325 42.25 57 42.25C52.1675 42.25 48.25 46.1675 48.25 51C48.25 55.8325 52.1675 59.75 57 59.75Z" fill="#A4262C"/>
<path d="M57 42.2658C61.8241 42.2658 65.7342 46.1759 65.7342 51C65.7342 55.8241 61.8241 59.7342 57 59.7342C52.1759 59.7342 48.2658 55.8241 48.2658 51C48.2658 46.1759 52.1759 42.2658 57 42.2658ZM57 41C51.4861 41 47 45.4861 47 51C47 56.5139 51.4861 61 57 61C62.5139 61 67 56.5139 67 51C67 45.4861 62.5139 41 57 41Z" fill="white"/>
<path d="M62.1249 47.4275L60.5724 45.875L56.9999 49.4475L53.4274 45.875L51.8749 47.4275L55.4474 51L51.8749 54.5725L53.4274 56.125L56.9999 52.5525L60.5724 56.125L62.1249 54.5725L58.5524 51L62.1249 47.4275Z" fill="white"/>
</g>
<defs>
<linearGradient id="paint0_linear" x1="33.5" y1="53.1018" x2="33.5" y2="5.61741" gradientUnits="userSpaceOnUse">
<stop stop-color="#0078D4"/>
<stop offset="1" stop-color="#5EA0EF"/>
</linearGradient>
<clipPath id="clip0">
<rect width="67" height="67" fill="white"/>
</clipPath>
</defs>
</svg>
