<?xml version="1.0" encoding="utf-8"?>
<!-- Generator: Adobe Illustrator 17.1.0, SVG Export Plug-In . SVG Version: 6.00 Build 0)  -->
<!DOCTYPE svg PUBLIC "-//W3C//DTD SVG 1.1//EN" "http://www.w3.org/Graphics/SVG/1.1/DTD/svg11.dtd">
<svg version="1.1" id="Layer_1" xmlns="http://www.w3.org/2000/svg" xmlns:xlink="http://www.w3.org/1999/xlink" x="0px" y="0px"
	 viewBox="0 0 500 500" enable-background="new 0 0 500 500" xml:space="preserve">
<rect x="89" y="93.5" fill-rule="evenodd" clip-rule="evenodd" fill="#DD5900" width="120" height="50"/>
<rect x="229" y="93.5" fill-rule="evenodd" clip-rule="evenodd" fill="#FCD116" width="120" height="50"/>
<rect x="229" y="163.5" fill-rule="evenodd" clip-rule="evenodd" fill="#DD5900" width="120" height="50"/>
<rect x="369" y="163.5" fill-rule="evenodd" clip-rule="evenodd" fill="#DD5900" width="120" height="50"/>
<rect x="89" y="163.5" fill-rule="evenodd" clip-rule="evenodd" fill="#FCD116" width="120" height="50"/>
<rect x="229" y="233.5" fill-rule="evenodd" clip-rule="evenodd" fill="#DD5900" width="120" height="50"/>
<rect x="89" y="233.5" fill-rule="evenodd" clip-rule="evenodd" fill="#DD5900" width="120" height="50"/>
<rect x="89" y="303.5" fill-rule="evenodd" clip-rule="evenodd" fill="#DD5900" width="120" height="50"/>
<rect x="229" y="373.5" fill-rule="evenodd" clip-rule="evenodd" fill="#DD5900" width="120" height="50"/>
<rect x="369" y="303.5" fill-rule="evenodd" clip-rule="evenodd" fill="#DD5900" width="120" height="50"/>
<rect x="369" y="233.5" fill-rule="evenodd" clip-rule="evenodd" fill="#FCD116" width="120" height="50"/>
<rect x="229" y="303.5" fill-rule="evenodd" clip-rule="evenodd" fill="#FCD116" width="120" height="50"/>
<rect x="369" y="373.5" fill-rule="evenodd" clip-rule="evenodd" fill="#FCD116" width="120" height="50"/>
<rect x="89" y="373.5" fill-rule="evenodd" clip-rule="evenodd" fill="#FCD116" width="120" height="50"/>
<rect x="369" y="93.5" fill-rule="evenodd" clip-rule="evenodd" fill="#FCD116" width="120" height="50"/>
<rect x="9" y="93.5" fill-rule="evenodd" clip-rule="evenodd" fill="#3999C6" width="50" height="50"/>
<rect x="9" y="163.5" fill-rule="evenodd" clip-rule="evenodd" fill="#3999C6" width="50" height="50"/>
<rect x="9" y="303.5" fill-rule="evenodd" clip-rule="evenodd" fill="#3999C6" width="50" height="50"/>
<rect x="9" y="233.5" fill-rule="evenodd" clip-rule="evenodd" fill="#804998" width="50" height="50"/>
<rect x="9" y="373.5" fill-rule="evenodd" clip-rule="evenodd" fill="#804998" width="50" height="50"/>
</svg>
