<svg width="67" height="67" viewBox="0 0 67 67" fill="none" xmlns="http://www.w3.org/2000/svg">
<g clip-path="url(#clip0)">
<path d="M67 38.2315C66.8925 34.6617 65.5196 31.2462 63.1263 28.5952C60.733 25.9442 57.4753 24.2303 53.935 23.7595C53.7162 18.774 51.543 14.0751 47.8857 10.6798C44.2285 7.28449 39.3814 5.46584 34.3933 5.61741C30.3593 5.54097 26.4012 6.72037 23.0668 8.99237C19.7325 11.2644 17.1869 14.5166 15.7822 18.299C11.5201 18.8192 7.58513 20.8485 4.69004 24.0194C1.79495 27.1904 0.131162 31.2933 0 35.585C0.18806 40.4062 2.27876 44.9564 5.81436 48.2395C9.34996 51.5225 14.0424 53.2709 18.8642 53.1018C19.4263 53.1018 19.9809 53.0757 20.5281 53.0311H51.0763C51.3497 53.0278 51.6214 52.9877 51.8841 52.912C55.8097 52.8839 59.573 51.3415 62.3893 48.6064C65.2055 45.8713 66.8572 42.1547 67 38.2315Z" fill="url(#paint0_linear)"/>
<path d="M48.9218 28.3002H17.7556C17.1389 28.3002 16.6389 28.8001 16.6389 29.4168V36.3141C16.6389 36.9308 17.1389 37.4308 17.7556 37.4308H48.9218C49.5385 37.4308 50.0384 36.9308 50.0384 36.3141V29.4168C50.0384 28.8001 49.5385 28.3002 48.9218 28.3002Z" fill="#9CEBFF"/>
<path d="M48.9218 38.9307H17.7556C17.1389 38.9307 16.6389 39.4307 16.6389 40.0474V46.9447C16.6389 47.5614 17.1389 48.0613 17.7556 48.0613H48.9218C49.5385 48.0613 50.0384 47.5614 50.0384 46.9447V40.0474C50.0384 39.4307 49.5385 38.9307 48.9218 38.9307Z" fill="#50E6FF"/>
<path d="M48.9218 49.7408H17.7556C17.1389 49.7408 16.6389 50.2408 16.6389 50.8575V57.7548C16.6389 58.3715 17.1389 58.8715 17.7556 58.8715H48.9218C49.5385 58.8715 50.0384 58.3715 50.0384 57.7548V50.8575C50.0384 50.2408 49.5385 49.7408 48.9218 49.7408Z" fill="#32BEDD"/>
<path d="M46.7841 32.384H45.4106C45.3372 32.384 45.2646 32.3696 45.1969 32.3415C45.1292 32.3135 45.0676 32.2723 45.0158 32.2205C44.9639 32.1687 44.9228 32.1071 44.8947 32.0394C44.8667 31.9716 44.8522 31.899 44.8522 31.8257V30.4559C44.8522 30.3826 44.8667 30.31 44.8947 30.2423C44.9228 30.1745 44.9639 30.113 45.0158 30.0611C45.0676 30.0093 45.1292 29.9681 45.1969 29.9401C45.2646 29.912 45.3372 29.8976 45.4106 29.8976H46.7878C46.8611 29.8976 46.9337 29.912 47.0015 29.9401C47.0692 29.9681 47.1307 30.0093 47.1826 30.0611C47.2344 30.113 47.2756 30.1745 47.3036 30.2423C47.3317 30.31 47.3461 30.3826 47.3461 30.4559V31.8369C47.3432 31.9836 47.2826 32.1234 47.1774 32.2258C47.0722 32.3282 46.9309 32.385 46.7841 32.384ZM47.3424 35.265V33.8878C47.3424 33.8145 47.328 33.7419 47.2999 33.6741C47.2718 33.6064 47.2307 33.5449 47.1789 33.493C47.127 33.4412 47.0655 33.4 46.9977 33.372C46.93 33.3439 46.8574 33.3295 46.7841 33.3295H45.4106C45.2625 33.3295 45.1205 33.3883 45.0158 33.493C44.9111 33.5977 44.8522 33.7397 44.8522 33.8878V35.265C44.8522 35.3384 44.8667 35.411 44.8947 35.4787C44.9228 35.5464 44.9639 35.608 45.0158 35.6598C45.0676 35.7117 45.1292 35.7528 45.1969 35.7809C45.2646 35.8089 45.3372 35.8234 45.4106 35.8234H46.7878C46.9333 35.8224 47.0727 35.7647 47.1763 35.6625C47.2799 35.5603 47.3395 35.4217 47.3424 35.2762V35.265ZM47.3424 42.4564V41.0754C47.3424 41.0021 47.328 40.9295 47.2999 40.8618C47.2718 40.794 47.2307 40.7325 47.1789 40.6806C47.127 40.6288 47.0655 40.5876 46.9977 40.5596C46.93 40.5315 46.8574 40.5171 46.7841 40.5171H45.4106C45.3372 40.5171 45.2646 40.5315 45.1969 40.5596C45.1292 40.5876 45.0676 40.6288 45.0158 40.6806C44.9639 40.7325 44.9228 40.794 44.8947 40.8618C44.8667 40.9295 44.8522 41.0021 44.8522 41.0754V42.4564C44.8522 42.6044 44.9111 42.7465 45.0158 42.8512C45.1205 42.9559 45.2625 43.0147 45.4106 43.0147H46.7878C46.9333 43.0138 47.0727 42.956 47.1763 42.8538C47.2799 42.7516 47.3395 42.613 47.3424 42.4675V42.4564ZM47.3424 45.8957V44.5185C47.3424 44.4452 47.328 44.3726 47.2999 44.3048C47.2718 44.2371 47.2307 44.1755 47.1789 44.1237C47.127 44.0718 47.0655 44.0307 46.9977 44.0026C46.93 43.9746 46.8574 43.9601 46.7841 43.9601H45.4106C45.2625 43.9601 45.1205 44.019 45.0158 44.1237C44.9111 44.2284 44.8522 44.3704 44.8522 44.5185V45.8957C44.8522 46.0438 44.9111 46.1858 45.0158 46.2905C45.1205 46.3952 45.2625 46.454 45.4106 46.454H46.7878C46.9333 46.4531 47.0727 46.3954 47.1763 46.2932C47.2799 46.191 47.3395 46.0524 47.3424 45.9069V45.8957ZM47.3424 53.2657V51.8848C47.3424 51.8114 47.328 51.7388 47.2999 51.6711C47.2718 51.6033 47.2307 51.5418 47.1789 51.49C47.127 51.4381 47.0655 51.397 46.9977 51.3689C46.93 51.3409 46.8574 51.3264 46.7841 51.3264H45.4106C45.2625 51.3264 45.1205 51.3852 45.0158 51.49C44.9111 51.5947 44.8522 51.7367 44.8522 51.8848V53.2657C44.8522 53.4138 44.9111 53.5558 45.0158 53.6605C45.1205 53.7652 45.2625 53.824 45.4106 53.824H46.7878C46.9333 53.8231 47.0727 53.7654 47.1763 53.6632C47.2799 53.561 47.3395 53.4224 47.3424 53.2769V53.2657ZM47.3424 56.705V55.3278C47.3424 55.2545 47.328 55.1819 47.2999 55.1141C47.2718 55.0464 47.2307 54.9849 47.1789 54.933C47.127 54.8812 47.0655 54.84 46.9977 54.812C46.93 54.7839 46.8574 54.7695 46.7841 54.7695H45.4106C45.3372 54.7695 45.2646 54.7839 45.1969 54.812C45.1292 54.84 45.0676 54.8812 45.0158 54.933C44.9639 54.9849 44.9228 55.0464 44.8947 55.1141C44.8667 55.1819 44.8522 55.2545 44.8522 55.3278V56.705C44.8522 56.8531 44.9111 56.9951 45.0158 57.0998C45.1205 57.2045 45.2625 57.2634 45.4106 57.2634H46.7878C46.9333 57.2624 47.0727 57.2047 47.1763 57.1025C47.2799 57.0003 47.3395 56.8617 47.3424 56.7162V56.705Z" fill="white"/>
</g>
<defs>
<linearGradient id="paint0_linear" x1="33.5" y1="53.1018" x2="33.5" y2="5.61741" gradientUnits="userSpaceOnUse">
<stop stop-color="#0078D4"/>
<stop offset="1" stop-color="#5EA0EF"/>
</linearGradient>
<clipPath id="clip0">
<rect width="67" height="67" fill="white"/>
</clipPath>
</defs>
</svg>
