<svg width="42" height="42" viewBox="0 0 42 42" fill="none" xmlns="http://www.w3.org/2000/svg">
<g clip-path="url(#clip0_2869_217837)">
<path d="M37.1821 32.5584C36.8818 33.8806 35.2385 35.1688 32.271 36.1775C24.8417 38.3631 16.9416 38.3742 9.50613 36.2096C6.76913 35.2406 5.29202 34.0147 5.06157 32.7511C5.02191 32.5282 5.06157 29.0602 5.06157 29.0602L37.2445 28.7617C37.2445 28.7617 37.2199 32.3959 37.1821 32.5584Z" fill="#5EA0EF"/>
<path d="M21.1888 34.5549C30.0817 34.4657 37.2657 31.9012 37.2349 28.8271C37.204 25.7529 29.9699 23.3331 21.0771 23.4224C12.1842 23.5116 5.00011 26.0761 5.03096 29.1503C5.06181 32.2244 12.2959 34.6442 21.1888 34.5549Z" fill="#50E6FF"/>
<path d="M38 20.8753C37.9454 19.0639 37.2486 17.331 36.0341 15.986C34.8196 14.641 33.1664 13.7716 31.37 13.5332C31.2589 11.0032 30.1561 8.61868 28.3002 6.89569C26.4443 5.1727 23.9846 4.2498 21.4533 4.32672C19.4062 4.28792 17.3976 4.88642 15.7056 6.03938C14.0135 7.19233 12.7217 8.84273 12.0089 10.7622C9.84586 11.0257 7.8488 12.0554 6.37958 13.6646C4.91036 15.2739 4.06618 17.3561 4 19.5342C4.09543 21.9807 5.15639 24.2898 6.95057 25.9558C8.74475 27.6218 11.126 28.5091 13.5729 28.4233C13.8581 28.4233 14.1396 28.41 14.4172 28.3874H29.9193C30.0581 28.3857 30.1959 28.3654 30.3292 28.3269C32.3217 28.3127 34.2317 27.5297 35.6609 26.1413C37.09 24.753 37.928 22.8665 38 20.8753V20.8753Z" fill="url(#paint0_linear_2869_217837)"/>
<path d="M28.8257 15.8379H13.01C12.6971 15.8379 12.4434 16.0916 12.4434 16.4046V19.9047C12.4434 20.2176 12.6971 20.4713 13.01 20.4713H28.8257C29.1387 20.4713 29.3924 20.2176 29.3924 19.9047V16.4046C29.3924 16.0916 29.1387 15.8379 28.8257 15.8379Z" fill="#9CEBFF"/>
<path d="M28.8257 21.2324H13.01C12.6971 21.2324 12.4434 21.4861 12.4434 21.7991V25.2992C12.4434 25.6122 12.6971 25.8659 13.01 25.8659H28.8257C29.1387 25.8659 29.3924 25.6122 29.3924 25.2992V21.7991C29.3924 21.4861 29.1387 21.2324 28.8257 21.2324Z" fill="#50E6FF"/>
<path d="M28.8257 26.7168H13.01C12.6971 26.7168 12.4434 26.9705 12.4434 27.2835V30.7836C12.4434 31.0965 12.6971 31.3502 13.01 31.3502H28.8257C29.1387 31.3502 29.3924 31.0965 29.3924 30.7836V27.2835C29.3924 26.9705 29.1387 26.7168 28.8257 26.7168Z" fill="#32BEDD"/>
<path d="M27.7411 17.9159H27.0441C26.9689 17.9159 26.8969 17.886 26.8437 17.8329C26.7906 17.7798 26.7607 17.7077 26.7607 17.6325V16.9318C26.7607 16.8566 26.7906 16.7846 26.8437 16.7314C26.8969 16.6783 26.9689 16.6484 27.0441 16.6484H27.743C27.8181 16.6484 27.8902 16.6783 27.9433 16.7314C27.9964 16.7846 28.0263 16.8566 28.0263 16.9318V17.6325C28.0263 17.6699 28.0189 17.7069 28.0046 17.7414C27.9902 17.7759 27.9692 17.8072 27.9426 17.8336C27.9161 17.8599 27.8847 17.8807 27.8501 17.8949C27.8155 17.909 27.7784 17.9161 27.7411 17.9159V17.9159ZM28.0244 19.3779V18.679C28.0244 18.6418 28.0171 18.6049 28.0028 18.5706C27.9886 18.5362 27.9677 18.505 27.9414 18.4786C27.9151 18.4523 27.8839 18.4315 27.8495 18.4172C27.8151 18.403 27.7783 18.3957 27.7411 18.3957H27.0441C26.9689 18.3957 26.8969 18.4255 26.8437 18.4786C26.7906 18.5318 26.7607 18.6038 26.7607 18.679V19.3779C26.7607 19.4151 26.7681 19.4519 26.7823 19.4863C26.7965 19.5207 26.8174 19.5519 26.8437 19.5782C26.87 19.6045 26.9013 19.6254 26.9356 19.6396C26.97 19.6539 27.0069 19.6612 27.0441 19.6612H27.743C27.8178 19.6607 27.8894 19.6306 27.9421 19.5776C27.9948 19.5245 28.0244 19.4527 28.0244 19.3779V19.3779ZM28.0244 23.0272V22.3227C28.0244 22.2855 28.0171 22.2486 28.0028 22.2142C27.9886 22.1799 27.9677 22.1486 27.9414 22.1223C27.9151 22.096 27.8839 22.0751 27.8495 22.0609C27.8151 22.0467 27.7783 22.0393 27.7411 22.0393H27.0441C26.9689 22.0393 26.8969 22.0692 26.8437 22.1223C26.7906 22.1754 26.7607 22.2475 26.7607 22.3227V23.0234C26.7607 23.0986 26.7906 23.1706 26.8437 23.2238C26.8969 23.2769 26.9689 23.3068 27.0441 23.3068H27.743C27.8171 23.3063 27.8882 23.2767 27.9408 23.2245C27.9934 23.1722 28.0234 23.1014 28.0244 23.0272V23.0272ZM28.0244 24.7725V24.0718C28.0244 24.0346 28.0171 23.9977 28.0028 23.9633C27.9886 23.929 27.9677 23.8977 27.9414 23.8714C27.9151 23.8451 27.8839 23.8242 27.8495 23.81C27.8151 23.7958 27.7783 23.7884 27.7411 23.7884H27.0441C26.9689 23.7884 26.8969 23.8183 26.8437 23.8714C26.7906 23.9246 26.7607 23.9966 26.7607 24.0718V24.7782C26.7607 24.8534 26.7906 24.9254 26.8437 24.9786C26.8969 25.0317 26.9689 25.0615 27.0441 25.0615H27.743C27.8178 25.061 27.8894 25.031 27.9421 24.9779C27.9948 24.9248 28.0244 24.853 28.0244 24.7782V24.7725ZM28.0244 28.5125V27.8118C28.0244 27.7746 28.0171 27.7377 28.0028 27.7033C27.9886 27.669 27.9677 27.6377 27.9414 27.6114C27.9151 27.5851 27.8839 27.5642 27.8495 27.55C27.8151 27.5358 27.7783 27.5284 27.7411 27.5284H27.0441C26.9689 27.5284 26.8969 27.5583 26.8437 27.6114C26.7906 27.6646 26.7607 27.7366 26.7607 27.8118V28.5125C26.7607 28.5877 26.7906 28.6598 26.8437 28.7129C26.8969 28.766 26.9689 28.7959 27.0441 28.7959H27.743C27.8178 28.7954 27.8894 28.7653 27.9421 28.7122C27.9948 28.6591 28.0244 28.5874 28.0244 28.5125V28.5125ZM28.0244 30.2579V29.559C28.0244 29.5218 28.0171 29.4849 28.0028 29.4506C27.9886 29.4162 27.9677 29.385 27.9414 29.3586C27.9151 29.3323 27.8839 29.3115 27.8495 29.2972C27.8151 29.283 27.7783 29.2757 27.7411 29.2757H27.0441C26.9689 29.2757 26.8969 29.3055 26.8437 29.3586C26.7906 29.4118 26.7607 29.4838 26.7607 29.559V30.2579C26.7607 30.333 26.7906 30.4051 26.8437 30.4582C26.8969 30.5114 26.9689 30.5412 27.0441 30.5412H27.743C27.7802 30.541 27.817 30.5334 27.8512 30.5189C27.8855 30.5045 27.9166 30.4834 27.9428 30.4569C27.9689 30.4304 27.9896 30.399 28.0036 30.3646C28.0176 30.3301 28.0247 30.2932 28.0244 30.256V30.2579Z" fill="white"/>
</g>
<path d="M31.4052 37.8105C34.9427 37.8105 37.8105 34.9427 37.8105 31.4052C37.8105 27.8677 34.9427 25 31.4052 25C27.8677 25 25 27.8677 25 31.4052C25 34.9427 27.8677 37.8105 31.4052 37.8105Z" fill="#0067B8"/>
<path d="M31.2621 27.5484H31.2189C30.323 27.5484 29.4919 27.8638 28.8201 28.3626L27.4614 27.0039V30.5804H31.0371L29.688 29.2305C30.138 28.8822 30.6929 28.6957 31.2621 28.7013C32.604 28.7013 33.7169 29.6453 33.9507 30.8791H35.1309C34.8451 28.9631 33.1989 27.5459 31.2621 27.5484ZM35.3078 32.2186H31.7745L31.7922 32.2282H31.7745L33.082 33.5356C32.6385 33.8463 32.1092 34.012 31.5079 34.012C30.2973 34.012 29.2669 33.1938 28.9146 32.0905H27.6768C28.0715 33.8887 29.6664 35.169 31.5071 35.165H31.5496C32.4319 35.165 33.2526 34.8607 33.9203 34.3747L35.3503 35.8047V32.2186H35.3078Z" fill="white"/>
<defs>
<linearGradient id="paint0_linear_2869_217837" x1="21" y1="28.4233" x2="21" y2="4.32672" gradientUnits="userSpaceOnUse">
<stop stop-color="#0078D4"/>
<stop offset="1" stop-color="#5EA0EF"/>
</linearGradient>
<clipPath id="clip0_2869_217837">
<rect width="34" height="34" fill="white" transform="translate(4 4)"/>
</clipPath>
</defs>
</svg>
