<svg width="42" height="42" viewBox="0 0 42 42" fill="none" xmlns="http://www.w3.org/2000/svg">
<path d="M36.8667 6.13477H5.13333C4.50741 6.13477 4 6.64218 4 7.2681V29.1981C4 29.824 4.50741 30.3314 5.13333 30.3314H36.8667C37.4926 30.3314 38 29.824 38 29.1981V7.2681C38 6.64218 37.4926 6.13477 36.8667 6.13477Z" fill="#0078D4"/>
<path opacity="0.9" d="M35.412 7.83398H6.60649C6.26223 7.83398 5.98315 8.11306 5.98315 8.45732V27.7995C5.98315 28.1438 6.26223 28.4229 6.60649 28.4229H35.412C35.7563 28.4229 36.0354 28.1438 36.0354 27.7995V8.45732C36.0354 8.11306 35.7563 7.83398 35.412 7.83398Z" fill="url(#paint0_linear_3095_238752)"/>
<path d="M22.6243 6.89062H19.4698C19.3446 6.89062 19.2432 6.99211 19.2432 7.11729V7.15507C19.2432 7.28025 19.3446 7.38174 19.4698 7.38174H22.6243C22.7495 7.38174 22.8509 7.28025 22.8509 7.15507V7.11729C22.8509 6.99211 22.7495 6.89062 22.6243 6.89062Z" fill="#F2F2F2"/>
<path d="M28.3099 35.8661C32.7122 35.8661 36.281 32.2973 36.281 27.8949C36.281 23.4926 32.7122 19.9238 28.3099 19.9238C23.9075 19.9238 20.3387 23.4926 20.3387 27.8949C20.3387 32.2973 23.9075 35.8661 28.3099 35.8661Z" fill="#76BC2D"/>
<path d="M23.5498 26.6666C23.3844 27.2817 23.3332 27.9219 23.3987 28.5555C23.4954 29.2246 23.7268 29.8671 24.0787 30.4444C24.3214 30.8661 24.6272 31.2483 24.9853 31.5777C25.3331 31.8966 25.7203 32.1696 26.1375 32.3899C26.5729 32.5949 27.0288 32.7532 27.4975 32.8621C27.9738 32.9286 28.4569 32.9286 28.9331 32.8621L28.8009 31.4832C28.8009 31.4485 28.794 31.4141 28.7807 31.3821C28.7675 31.35 28.748 31.3208 28.7234 31.2963C28.6989 31.2717 28.6697 31.2522 28.6376 31.2389C28.6055 31.2256 28.5712 31.2188 28.5364 31.2188H27.7998C27.4851 31.1508 27.1804 31.0429 26.8931 30.8977C26.6142 30.7735 26.3484 30.6216 26.0998 30.4444C25.857 30.2285 25.6526 29.973 25.4953 29.6888C25.2561 29.3039 25.1016 28.8725 25.042 28.4232C24.9568 27.9803 24.9568 27.5251 25.042 27.0821L25.5142 27.8755C25.5532 27.9365 25.614 27.9803 25.6843 27.9979C25.7546 28.0154 25.8289 28.0054 25.892 27.9699L26.4775 27.6299C26.5386 27.5909 26.5824 27.5301 26.5999 27.4598C26.6175 27.3896 26.6075 27.3152 26.572 27.2521L24.9853 24.5699C24.9429 24.5075 24.8787 24.4632 24.8053 24.4457C24.7319 24.4282 24.6546 24.4389 24.5887 24.4755L21.9253 26.0621C21.9002 26.0868 21.8802 26.1161 21.8666 26.1486C21.853 26.181 21.8459 26.2158 21.8459 26.251C21.8459 26.2862 21.853 26.321 21.8666 26.3535C21.8802 26.3859 21.9002 26.4153 21.9253 26.4399L22.2464 27.0066C22.2642 27.0409 22.2887 27.0712 22.3186 27.0957C22.3485 27.1202 22.3831 27.1383 22.4203 27.1489C22.4574 27.1595 22.4964 27.1624 22.5347 27.1574C22.573 27.1525 22.6099 27.1397 22.6431 27.1199L23.5498 26.6666Z" fill="white"/>
<path d="M29.1224 24.5514C29.4348 24.6271 29.7386 24.7347 30.0291 24.8726C30.3169 25.0264 30.5835 25.2169 30.8224 25.4392C31.0699 25.6555 31.2804 25.9107 31.4457 26.1948C31.6739 26.5833 31.8216 27.0136 31.8802 27.4603C31.9649 27.9034 31.9649 28.3584 31.8802 28.8014L31.4079 28.0081C31.372 27.9438 31.3125 27.8961 31.242 27.8749C31.1715 27.8538 31.0955 27.8609 31.0302 27.8948L30.4635 28.2348C30.4307 28.2541 30.4022 28.2799 30.3796 28.3105C30.357 28.3412 30.3409 28.376 30.332 28.4131C30.3232 28.4501 30.322 28.4885 30.3283 28.526C30.3347 28.5635 30.3485 28.5994 30.3691 28.6314L31.9368 31.2948C31.9763 31.3604 32.0392 31.4086 32.1128 31.4297C32.1865 31.4507 32.2653 31.443 32.3335 31.4081L34.9968 29.8214C35.0312 29.8037 35.0615 29.7791 35.086 29.7492C35.1104 29.7193 35.1285 29.6847 35.1392 29.6476C35.1498 29.6104 35.1527 29.5715 35.1477 29.5332C35.1427 29.4949 35.1299 29.458 35.1102 29.4248L34.7702 28.8581C34.7278 28.7957 34.6636 28.7514 34.5902 28.7339C34.5168 28.7164 34.4395 28.7271 34.3735 28.7637L33.4479 29.3114C33.6398 28.6494 33.6913 27.9545 33.5991 27.2714C33.4974 26.6063 33.2732 25.9659 32.9379 25.3826C32.6828 24.9752 32.3782 24.6008 32.0313 24.2681C31.3113 23.5698 30.407 23.0914 29.4246 22.8892C29.042 22.8416 28.655 22.8416 28.2724 22.8892C28.2359 22.8915 28.2002 22.9012 28.1676 22.918C28.1351 22.9347 28.1063 22.958 28.0833 22.9864C28.0602 23.0148 28.0432 23.0477 28.0335 23.083C28.0238 23.1183 28.0215 23.1552 28.0268 23.1914V24.287C28.0355 24.3523 28.0666 24.4125 28.1149 24.4573C28.1632 24.5021 28.2255 24.5287 28.2913 24.5326C28.5683 24.515 28.8464 24.5213 29.1224 24.5514Z" fill="white"/>
<defs>
<linearGradient id="paint0_linear_3095_238752" x1="20.9998" y1="33.9195" x2="20.9998" y2="4.98176" gradientUnits="userSpaceOnUse">
<stop stop-color="#D2EBFF"/>
<stop offset="1" stop-color="#F0FFFD"/>
</linearGradient>
</defs>
</svg>
