<svg width="42" height="42" viewBox="0 0 42 42" fill="none" xmlns="http://www.w3.org/2000/svg">
<g clip-path="url(#clip0_3143_244268)">
<path d="M37.1822 32.5584C36.8818 33.8806 35.2385 35.1688 32.271 36.1775C24.8417 38.3631 16.9417 38.3742 9.50616 36.2096C6.76916 35.2406 5.29205 34.0147 5.06161 32.7511C5.02194 32.5282 5.06161 29.0602 5.06161 29.0602L37.2445 28.7617C37.2445 28.7617 37.2199 32.3959 37.1822 32.5584Z" fill="#5EA0EF"/>
<path d="M21.1886 34.5549C30.0815 34.4657 37.2656 31.9012 37.2347 28.8271C37.2039 25.7529 29.9698 23.3331 21.0769 23.4224C12.184 23.5116 4.99993 26.0761 5.03078 29.1503C5.06163 32.2244 12.2957 34.6442 21.1886 34.5549Z" fill="#50E6FF"/>
<path d="M38 20.8753C37.9454 19.0639 37.2486 17.331 36.0341 15.986C34.8196 14.641 33.1664 13.7716 31.37 13.5332C31.2589 11.0032 30.1561 8.61868 28.3002 6.89569C26.4443 5.1727 23.9846 4.2498 21.4533 4.32672C19.4062 4.28792 17.3976 4.88642 15.7056 6.03938C14.0135 7.19233 12.7217 8.84273 12.0089 10.7622C9.84586 11.0257 7.8488 12.0554 6.37958 13.6646C4.91036 15.2739 4.06618 17.3561 4 19.5342C4.09543 21.9807 5.15639 24.2898 6.95057 25.9558C8.74475 27.6218 11.126 28.5091 13.5729 28.4233C13.8581 28.4233 14.1396 28.41 14.4172 28.3874H29.9193C30.0581 28.3857 30.1959 28.3654 30.3292 28.3269C32.3217 28.3127 34.2317 27.5297 35.6609 26.1413C37.09 24.753 37.928 22.8665 38 20.8753Z" fill="url(#paint0_linear_3143_244268)"/>
<path d="M28.8258 15.8379H13.0102C12.6972 15.8379 12.4435 16.0916 12.4435 16.4046V19.9047C12.4435 20.2176 12.6972 20.4713 13.0102 20.4713H28.8258C29.1388 20.4713 29.3925 20.2176 29.3925 19.9047V16.4046C29.3925 16.0916 29.1388 15.8379 28.8258 15.8379Z" fill="#9CEBFF"/>
<path d="M28.8258 21.2324H13.0102C12.6972 21.2324 12.4435 21.4861 12.4435 21.7991V25.2992C12.4435 25.6122 12.6972 25.8659 13.0102 25.8659H28.8258C29.1388 25.8659 29.3925 25.6122 29.3925 25.2992V21.7991C29.3925 21.4861 29.1388 21.2324 28.8258 21.2324Z" fill="#50E6FF"/>
<path d="M28.8258 26.7168H13.0102C12.6972 26.7168 12.4435 26.9705 12.4435 27.2835V30.7836C12.4435 31.0965 12.6972 31.3502 13.0102 31.3502H28.8258C29.1388 31.3502 29.3925 31.0965 29.3925 30.7836V27.2835C29.3925 26.9705 29.1388 26.7168 28.8258 26.7168Z" fill="#32BEDD"/>
<path d="M27.7413 17.9159H27.0443C26.9691 17.9159 26.897 17.886 26.8439 17.8329C26.7908 17.7798 26.7609 17.7077 26.7609 17.6325V16.9318C26.7609 16.8566 26.7908 16.7846 26.8439 16.7314C26.897 16.6783 26.9691 16.6484 27.0443 16.6484H27.7431C27.8183 16.6484 27.8904 16.6783 27.9435 16.7314C27.9966 16.7846 28.0265 16.8566 28.0265 16.9318V17.6325C28.0265 17.6699 28.0191 17.7069 28.0047 17.7414C27.9904 17.7759 27.9693 17.8072 27.9428 17.8336C27.9163 17.8599 27.8849 17.8807 27.8503 17.8949C27.8157 17.909 27.7786 17.9161 27.7413 17.9159ZM28.0246 19.3779V18.679C28.0246 18.6418 28.0173 18.6049 28.003 18.5706C27.9888 18.5362 27.9679 18.505 27.9416 18.4786C27.9153 18.4523 27.8841 18.4315 27.8497 18.4172C27.8153 18.403 27.7785 18.3957 27.7413 18.3957H27.0443C26.9691 18.3957 26.897 18.4255 26.8439 18.4786C26.7908 18.5318 26.7609 18.6038 26.7609 18.679V19.3779C26.7609 19.4151 26.7683 19.4519 26.7825 19.4863C26.7967 19.5207 26.8176 19.5519 26.8439 19.5782C26.8702 19.6045 26.9015 19.6254 26.9358 19.6396C26.9702 19.6539 27.0071 19.6612 27.0443 19.6612H27.7431C27.818 19.6607 27.8895 19.6306 27.9423 19.5776C27.995 19.5245 28.0246 19.4527 28.0246 19.3779ZM28.0246 23.0272V22.3227C28.0246 22.2855 28.0173 22.2486 28.003 22.2142C27.9888 22.1799 27.9679 22.1486 27.9416 22.1223C27.9153 22.096 27.8841 22.0751 27.8497 22.0609C27.8153 22.0467 27.7785 22.0393 27.7413 22.0393H27.0443C26.9691 22.0393 26.897 22.0692 26.8439 22.1223C26.7908 22.1754 26.7609 22.2475 26.7609 22.3227V23.0234C26.7609 23.0986 26.7908 23.1706 26.8439 23.2238C26.897 23.2769 26.9691 23.3068 27.0443 23.3068H27.7431C27.8173 23.3063 27.8883 23.2767 27.941 23.2245C27.9936 23.1722 28.0236 23.1014 28.0246 23.0272ZM28.0246 24.7725V24.0718C28.0246 24.0346 28.0173 23.9977 28.003 23.9633C27.9888 23.929 27.9679 23.8977 27.9416 23.8714C27.9153 23.8451 27.8841 23.8242 27.8497 23.81C27.8153 23.7958 27.7785 23.7884 27.7413 23.7884H27.0443C26.9691 23.7884 26.897 23.8183 26.8439 23.8714C26.7908 23.9246 26.7609 23.9966 26.7609 24.0718V24.7782C26.7609 24.8534 26.7908 24.9254 26.8439 24.9786C26.897 25.0317 26.9691 25.0615 27.0443 25.0615H27.7431C27.818 25.061 27.8895 25.031 27.9423 24.9779C27.995 24.9248 28.0246 24.853 28.0246 24.7782V24.7725ZM28.0246 28.5125V27.8118C28.0246 27.7746 28.0173 27.7377 28.003 27.7033C27.9888 27.669 27.9679 27.6377 27.9416 27.6114C27.9153 27.5851 27.8841 27.5642 27.8497 27.55C27.8153 27.5358 27.7785 27.5284 27.7413 27.5284H27.0443C26.9691 27.5284 26.897 27.5583 26.8439 27.6114C26.7908 27.6646 26.7609 27.7366 26.7609 27.8118V28.5125C26.7609 28.5877 26.7908 28.6598 26.8439 28.7129C26.897 28.766 26.9691 28.7959 27.0443 28.7959H27.7431C27.818 28.7954 27.8895 28.7653 27.9423 28.7122C27.995 28.6592 28.0246 28.5874 28.0246 28.5125ZM28.0246 30.2579V29.559C28.0246 29.5218 28.0173 29.4849 28.003 29.4506C27.9888 29.4162 27.9679 29.385 27.9416 29.3586C27.9153 29.3323 27.8841 29.3115 27.8497 29.2972C27.8153 29.283 27.7785 29.2757 27.7413 29.2757H27.0443C26.9691 29.2757 26.897 29.3055 26.8439 29.3586C26.7908 29.4118 26.7609 29.4838 26.7609 29.559V30.2579C26.7609 30.333 26.7908 30.4051 26.8439 30.4582C26.897 30.5114 26.9691 30.5412 27.0443 30.5412H27.7431C27.7804 30.541 27.8172 30.5334 27.8514 30.5189C27.8857 30.5045 27.9168 30.4834 27.9429 30.4569C27.9691 30.4304 27.9897 30.399 28.0037 30.3646C28.0178 30.3301 28.0248 30.2932 28.0246 30.256V30.2579Z" fill="white"/>
</g>
<path d="M31.4052 37.8105C34.9427 37.8105 37.8105 34.9427 37.8105 31.4052C37.8105 27.8677 34.9427 25 31.4052 25C27.8677 25 25 27.8677 25 31.4052C25 34.9427 27.8677 37.8105 31.4052 37.8105Z" fill="#409640"/>
<path d="M27.8448 31.6375C27.7856 31.5742 27.7551 31.491 27.7583 31.4045C27.7615 31.3172 27.7984 31.2371 27.8624 31.1771L28.531 30.559C28.5918 30.5037 28.6695 30.4733 28.7504 30.4733C28.84 30.4733 28.9265 30.511 28.9874 30.5766L30.6975 32.4117L33.7456 28.5085C33.8073 28.4293 33.9002 28.3828 34.001 28.3828C34.0731 28.3828 34.1412 28.406 34.1988 28.4501L34.9242 29.0097C35.0627 29.1122 35.0923 29.3116 34.9883 29.4533L31.0907 34.4438C30.9393 34.6375 30.6503 34.6503 30.4822 34.4702L27.8448 31.6375Z" fill="white"/>
<defs>
<linearGradient id="paint0_linear_3143_244268" x1="21" y1="28.4233" x2="21" y2="4.32672" gradientUnits="userSpaceOnUse">
<stop stop-color="#0078D4"/>
<stop offset="1" stop-color="#5EA0EF"/>
</linearGradient>
<clipPath id="clip0_3143_244268">
<rect width="34" height="34" fill="white" transform="translate(4 4)"/>
</clipPath>
</defs>
</svg>
