<svg width="280" height="168" viewBox="0 0 280 168" fill="none" xmlns="http://www.w3.org/2000/svg">
<g clip-path="url(#clip0)">
<path d="M175.55 115.235L174.236 114.42L148.086 130.594L149.321 131.466L175.55 115.235Z" fill="#2195DC"/>
<path d="M116.566 144.484C119.846 146.505 125.165 146.505 128.426 144.484L139.672 137.533L138.407 136.686L127.113 143.67C124.568 145.249 120.415 145.249 117.852 143.67L99.9466 132.633L98.6513 133.438L116.566 144.484Z" fill="#2195DC"/>
<path d="M138.978 133.596L138.899 132.754L147.722 132.358L147.549 137.474L146.077 137.48L146.208 133.895L146.223 133.276L145.154 133.322L138.978 133.596Z" fill="#2195DC"/>
<path d="M135.133 135.872L135.054 135.03L143.876 134.633L143.704 139.75L142.232 139.755L142.362 136.17L142.377 135.552L141.308 135.597L135.133 135.872Z" fill="#2195DC"/>
<path d="M220.928 71.5131L220.774 129.735L145.006 85.9874L145.16 27.7656L220.928 71.5131Z" fill="url(#paint0_linear)"/>
<path d="M220.928 71.5131L226.952 68.0099L226.798 126.232L220.774 129.735L220.928 71.5131Z" fill="#004E99"/>
<path d="M145.16 27.7656L151.184 24.2666L226.952 68.0099L220.928 71.5131L145.16 27.7656Z" fill="#0078D4"/>
<path opacity="0.9" d="M148.975 35.1523L216.963 74.7046V123.267L148.975 84.0181V35.1523Z" fill="#2195DC"/>
<path d="M158.263 106.443L169.332 100.03L194.761 114.603L183.443 121.011L158.263 106.443Z" fill="#0078D4"/>
<path d="M166.012 101.953L169.332 100.03L194.76 114.603L191.462 116.47L166.012 101.953Z" fill="#156AB3"/>
<path d="M183.443 122.434V121.011L158.263 106.443V108.096L183.443 122.434Z" fill="url(#paint1_linear)"/>
<path d="M195.961 115.406L183.443 122.434V121.011L194.76 114.603L195.961 115.406Z" fill="#185A97"/>
<g clip-path="url(#clip1)">
<path d="M170.889 65.8453L180.168 77.6569L180.133 90.2692L170.853 78.4592L170.889 65.8453Z" fill="#50E6FF"/>
<path d="M189.483 76.8002L189.448 89.4111L180.133 90.2692L180.168 77.6568L189.483 76.8002Z" fill="#45CAF2"/>
<path d="M180.205 64.9856L189.483 76.8002L180.169 77.6583L170.888 65.8452L180.205 64.9856Z" fill="#84ECFD"/>
</g>
<path d="M58.5498 105.995L58.5498 105.995C64.683 102.342 72.7691 100.5 80.8928 100.5C89.0163 100.5 97.1236 102.341 103.298 105.996C109.474 109.651 112.474 114.375 112.5 119.004C112.525 123.632 109.578 128.354 103.445 132.008C97.3147 135.66 89.2301 137.5 81.1072 137.5C72.9845 137.5 64.8772 135.658 58.7027 132.004C52.5268 128.349 49.5264 123.624 49.5002 118.996C49.474 114.368 52.4194 109.647 58.5498 105.995Z" stroke="#2195DC"/>
<path d="M84.0988 124.881L88.1582 122.349L84.2156 124.816L80.1515 127.353L84.0988 124.881Z" fill="#C9C9C9"/>
<path d="M90.8885 113.949C91.225 113.757 91.225 113.137 90.8885 112.566L89.1321 109.52C88.7907 108.939 88.7759 108.314 89.0678 108.043L90.9083 106.98C91.2448 106.793 91.2448 106.173 90.9083 105.592L88.4592 101.364V100.331L84.1548 102.791V103.825L86.5989 108.058C86.9106 108.589 86.9255 109.155 86.6632 109.387L84.8227 110.455C84.4566 110.661 84.4566 111.341 84.8227 111.966L86.5841 115.012C86.9007 115.554 86.9106 116.125 86.6335 116.351L84.8079 117.409C84.4417 117.616 84.4417 118.295 84.8079 118.92L86.5692 121.967C86.9007 122.538 86.9007 123.158 86.5692 123.35L90.8737 120.889C91.2052 120.697 91.2101 120.077 90.8737 119.501L89.1123 116.459C88.766 115.869 88.7561 115.234 89.0628 114.983L90.8885 113.949Z" fill="#9B9BA0"/>
<path d="M95.2139 96.4693L84.3528 102.673V103.715L86.814 107.983C87.1528 108.564 87.1478 109.189 86.814 109.383L85.0254 110.4C84.6567 110.608 84.6567 111.293 85.0254 111.924L86.7991 114.996C87.1379 115.576 87.1329 116.197 86.7991 116.39L85.0105 117.412C84.6418 117.621 84.6418 118.306 85.0105 118.936L86.7841 122.008C87.1179 122.584 87.1179 123.209 86.7841 123.403L84.2931 124.812L80.0782 127.259C79.9077 127.336 79.7198 127.367 79.5335 127.348C79.3473 127.33 79.1691 127.263 79.017 127.154C78.5779 126.877 78.2149 126.495 77.9608 126.043L73.6562 118.599C73.251 117.931 73.0261 117.17 73.0035 116.39L73.0583 96.1467C73.0396 95.5051 72.8542 94.8793 72.5203 94.3303L63.0542 77.9877C60.4834 73.5212 60.4984 68.742 63.0841 67.2581L74.543 60.732C75.8384 59.9876 77.5323 60.2357 79.2212 61.1935C81.1747 62.4052 82.7823 64.0972 83.8895 66.1067L95.2538 85.7446C97.8146 90.1913 97.8046 94.9954 95.2139 96.4693ZM79.1963 66.5732C77.1238 65.3822 75.4398 66.345 75.4348 68.7221C75.5028 70.0149 75.8768 71.2732 76.5262 72.3945C77.1756 73.5157 78.082 74.4681 79.1714 75.1738C81.244 76.3649 82.9279 75.4021 82.9329 73.0249C82.8645 71.7323 82.4904 70.4741 81.841 69.3529C81.1916 68.2317 80.2855 67.2793 79.1963 66.5732ZM71.0156 82.8464L87.7407 92.4643C88.2987 92.7869 88.7371 92.5288 88.7371 91.8886V91.6703C88.7204 91.3223 88.6214 90.9832 88.4483 90.6805C88.2751 90.3778 88.0327 90.1201 87.7407 89.9283L71.0206 80.3104C70.4626 79.9927 70.0242 80.2508 70.0242 80.891V81.1044C70.0421 81.4521 70.1416 81.7908 70.3146 82.0933C70.4877 82.3958 70.7295 82.6537 71.0206 82.8464H71.0156ZM70.0242 76.7669V76.9803C70.0406 77.3284 70.1394 77.6676 70.3125 77.9704C70.4857 78.2731 70.7284 78.5308 71.0206 78.7222L87.7507 88.3402C88.3136 88.6628 88.7471 88.4047 88.7471 87.7596V87.5511C88.7295 87.2033 88.6302 86.8645 88.4572 86.5619C88.2841 86.2593 88.0421 86.0015 87.7507 85.8092L71.0356 76.1912C70.4776 75.8736 70.0391 76.1316 70.0391 76.7719L70.0242 76.7669ZM77.4625 118.673L77.5074 102.296C77.4958 101.924 77.3687 101.565 77.1437 101.268C77.0261 101.106 76.877 100.97 76.7053 100.866C76.2868 100.623 75.8932 100.797 75.8932 101.363L75.8433 117.74C75.8541 118.042 75.9434 118.336 76.1024 118.594C76.2311 118.829 76.4181 119.027 76.6455 119.169C77.064 119.408 77.4625 119.249 77.4625 118.673Z" fill="url(#paint2_linear)"/>
<path d="M99.2424 83.9766L87.846 64.162C86.7413 62.1386 85.1361 60.4337 83.1845 59.2108C81.4908 58.2096 79.792 57.9943 78.493 58.7403L74.1463 61.2734C75.4453 60.5225 77.144 60.7728 78.8378 61.739C80.7968 62.9612 82.4089 64.668 83.5192 66.6951L94.9156 86.5047C97.4937 91.0103 97.4837 95.8413 94.8856 97.3281L99.2324 94.825C101.805 93.3081 101.82 88.4671 99.2424 83.9766Z" fill="#9B9BA0"/>
<path d="M70.9545 82.665L88 92.4817C88.5372 92.7934 89.0152 92.9199 89.0152 92.3012V92.0902C88.999 91.754 88.9038 91.4263 88.7371 91.1338C88.5704 90.8413 88.2811 90.167 88 89.9817L70.9593 80.113C70.4221 79.806 70 80.1568 70 80.7755V80.9817C70.0173 81.3177 70.113 81.645 70.2796 81.9373C70.4462 82.2296 70.679 82.4788 70.9593 82.665" fill="#9B9BA0"/>
<path d="M70 76.6872V76.8934C70.0157 77.2296 70.1107 77.5573 70.2772 77.8497C70.4436 78.1421 70.6768 78.391 70.9577 78.5759L88 88.4447C88.5411 88.7563 88.9577 88.507 88.9577 87.8839V87.6825C88.9409 87.3466 88.8454 87.0193 88.6791 86.7271C88.5127 86.4348 88.2801 86.1858 88 86L70.9769 76.1312C70.4406 75.8244 70.0192 76.0736 70.0192 76.692" fill="#9B9BA0"/>
<path d="M77.1219 118.727L77.1489 101.908C77.1419 101.527 77.0655 101.158 76.9301 100.853C76.8594 100.687 76.7697 100.547 76.6664 100.44C76.4147 100.191 76.178 100.369 76.178 100.95L76.148 117.769C76.1545 118.079 76.2082 118.381 76.3038 118.646C76.3813 118.887 76.4937 119.091 76.6305 119.237C76.8822 119.482 77.1219 119.319 77.1219 118.727" fill="#9B9BA0"/>
<path d="M79.6556 76.0633L79.9333 76.172L80.0829 76.2135C80.163 76.2135 80.2431 76.2601 80.3232 76.2756H80.4674L80.6917 76.3067H81.0442H81.1938C81.2542 76.3117 81.3149 76.3117 81.3753 76.3067C81.424 76.297 81.4722 76.2849 81.5195 76.2704C81.573 76.2704 81.6317 76.2445 81.6851 76.2238C81.7311 76.2062 81.7757 76.1855 81.8186 76.1617C81.8727 76.1428 81.9246 76.1185 81.9735 76.0892C82.6999 75.6852 83.1538 74.8152 83.1538 73.5776C83.1552 73.3021 83.1355 73.0269 83.0951 72.7542C81.3481 71.3787 80.183 69.4289 79.8212 67.2753C79.6062 67.114 79.3815 66.9652 79.1482 66.8299C77.9625 66.1671 76.8997 66.1516 76.1573 66.6539L76.0398 66.7315C75.995 66.7673 75.9538 66.8072 75.917 66.8507L75.8048 66.949C75.7675 66.9905 75.7354 67.0423 75.698 67.0889L75.6019 67.208C75.5698 67.2598 75.5431 67.3167 75.5111 67.3737C75.483 67.4151 75.458 67.4583 75.4363 67.5031C75.4043 67.5653 75.3829 67.6326 75.3562 67.6948C75.3295 67.7569 75.3135 67.7931 75.2975 67.8398C75.2814 67.8864 75.2547 67.9951 75.2387 68.0676C75.2212 68.1164 75.2087 68.1667 75.2013 68.2178C75.2013 68.311 75.1693 68.4094 75.1533 68.5078V68.6269C75.1451 68.7752 75.1451 68.9239 75.1533 69.0722C75.2262 70.4211 75.6271 71.7342 76.3232 72.9042C77.0194 74.0742 77.991 75.0679 79.1589 75.8043C79.2978 75.882 79.4366 75.9493 79.5701 76.0115L79.6556 76.0633Z" fill="#9B9BA0"/>
</g>
<defs>
<linearGradient id="paint0_linear" x1="159.907" y1="29.8488" x2="202.668" y2="144.146" gradientUnits="userSpaceOnUse">
<stop stop-color="#32B0E7"/>
<stop offset="1" stop-color="#2195DC"/>
</linearGradient>
<linearGradient id="paint1_linear" x1="164.151" y1="109.918" x2="183.269" y2="121.965" gradientUnits="userSpaceOnUse">
<stop stop-color="#45CAF2"/>
<stop offset="1" stop-color="#32B0E7"/>
</linearGradient>
<linearGradient id="paint2_linear" x1="96.6787" y1="49.253" x2="60.9298" y2="124.597" gradientUnits="userSpaceOnUse">
<stop offset="0.09" stop-color="#C9C9C9"/>
<stop offset="1" stop-color="#E2E2E2"/>
</linearGradient>
<clipPath id="clip0">
<rect width="280" height="168" fill="white"/>
</clipPath>
<clipPath id="clip1">
<rect width="18.63" height="25.2836" fill="white" transform="translate(170.853 64.9856)"/>
</clipPath>
</defs>
</svg>
