<svg width="300" height="181" viewBox="0 0 300 181" fill="none" xmlns="http://www.w3.org/2000/svg">
<path d="M228.6 113.598C232.181 115.65 232.2 119.016 228.6 121.079L217.629 127.452L116.672 69.1641L127.642 62.7911C129.642 61.7742 131.854 61.2441 134.097 61.2441C136.34 61.2441 138.552 61.7742 140.552 62.7911L228.6 113.598Z" fill="#D2D2D2"/>
<path d="M228.661 121.099L217.691 127.462V132.11L228.661 125.728C230.426 124.701 231.309 123.347 231.309 122.013V117.364C231.288 118.71 230.406 120.073 228.661 121.099Z" fill="#B4B4B4"/>
<path d="M217.671 127.452L171.615 154.225C169.613 155.242 167.4 155.772 165.155 155.772C162.91 155.772 160.697 155.242 158.695 154.225L70.695 103.418C67.124 101.366 67.103 98.0001 70.695 95.9271L116.751 69.1641L217.671 127.452Z" fill="#FAFAFA"/>
<path d="M70.7 103.418C68.894 102.392 68 101.006 68 99.6523V104.29C68 105.645 68.893 107.01 70.7 108.056L72.311 108.99L158.7 158.863C160.702 159.88 162.915 160.41 165.16 160.41C167.405 160.41 169.618 159.88 171.62 158.863L217.66 132.1V127.452L171.615 154.225C169.612 155.243 167.397 155.773 165.15 155.773C162.903 155.773 160.688 155.243 158.685 154.225L158.12 153.897L70.689 103.418H70.7Z" fill="#D2D2D2"/>
<path d="M152.9 83.7832L119.586 104.027C118.681 104.583 117.593 104.757 116.56 104.51C115.527 104.264 114.634 103.617 114.078 102.712C113.522 101.807 113.348 100.719 113.595 99.6858C113.841 98.6529 114.488 97.7602 115.393 97.2042L148.382 76.7492C149.028 76.3488 149.774 76.1405 150.533 76.1487C151.293 76.1568 152.034 76.3811 152.671 76.7952L153 77.0102C153.568 77.3787 154.033 77.8852 154.351 78.4823C154.67 79.0794 154.832 79.7476 154.822 80.4243C154.812 81.101 154.63 81.7641 154.294 82.3516C153.958 82.939 153.478 83.4316 152.9 83.7832Z" fill="#E5E5E5"/>
<path d="M120.5 111.785L104.714 102.693L102.814 103.768L118.6 112.942L123.56 115.752L125.46 114.678L120.5 111.785Z" fill="#2195DC"/>
<path d="M123.563 115.752L125.463 114.678L125.38 138.478L123.48 139.553L123.563 115.752Z" fill="#156AB3"/>
<path d="M118.6 112.942L123.56 115.835L123.477 139.635L102.814 127.567V122.53L102.897 103.768L118.6 112.942Z" fill="#0078D4"/>
<path d="M108.851 116.165L110.751 115.091L110.668 133.853L108.768 134.927L108.851 116.165Z" fill="#243A5E"/>
<path d="M110.752 115.091L108.852 116.165L129.515 128.15L131.415 126.993L110.752 115.091Z" fill="#D5F9FD"/>
<path d="M129.514 128.15L131.414 126.993L131.332 150.793L129.514 151.951V128.15Z" fill="#50E6FF"/>
<path d="M124.554 125.257L129.513 128.15V151.95L108.768 139.965V134.923L108.851 116.162L124.554 125.257Z" fill="#ACF3FD"/>
<path d="M124.8 138.151V136.415L120.007 133.605V128.067L118.436 127.241V132.778L113.642 129.968V131.704L118.436 134.514V140.052L119.924 140.961V135.423L124.8 138.151Z" fill="#005BA1"/>
<path d="M173.746 31.126L167.74 27.637C164.84 25.951 160.959 25.85 156.578 27.592L162.578 31.081C166.964 29.339 170.845 29.44 173.746 31.126ZM107.1 93.31L113.148 96.824C110.33 95.186 108.597 91.797 108.583 86.982C108.558 78.005 114.508 67.104 122.36 61.057L116.313 57.543C108.46 63.589 102.513 74.493 102.535 83.468C102.547 88.277 104.279 91.667 107.1 93.31ZM157.886 25.289L151.88 21.8C148.088 19.6 142.709 19.954 136.8 23.365C125.509 29.885 116.388 45.142 116.314 57.555L122.32 61.043C122.393 48.63 131.514 33.372 142.806 26.856C148.712 23.439 154.092 23.081 157.884 25.284L157.886 25.289Z" fill="#32B0E7"/>
<path d="M122.091 61.0103C122.165 48.5453 131.323 33.2244 142.662 26.6784C151.838 21.3784 159.744 23.4174 162.446 30.9594C171.9 27.1984 179.036 31.9904 179.067 42.7504C179.101 54.7114 170.214 69.5503 159.214 75.8993C158.625 76.2403 158.046 76.5494 157.466 76.8204L125.209 95.4464C124.946 95.6012 124.663 95.7183 124.367 95.7944C115.485 100.494 108.383 96.6113 108.356 86.8613C108.331 77.9103 114.263 67.0403 122.091 61.0103Z" fill="url(#paint0_linear_3673_4470)"/>
<path d="M169.584 70.0104L169.084 70.4314C169.171 70.3473 169.235 70.2423 169.27 70.1264C169.305 70.0105 169.31 69.8876 169.284 69.7694C168.924 67.4414 168.484 64.6524 168.223 61.9034C167.912 59.373 167.878 56.8161 168.123 54.2784C168.215 53.101 168.578 51.961 169.184 50.9474C169.325 50.7444 169.493 50.562 169.684 50.4054L170.184 49.9844C169.993 50.1405 169.824 50.323 169.684 50.5264C169.069 51.5358 168.705 52.6776 168.622 53.8564C168.388 56.3945 168.421 58.9502 168.722 61.4814C169.002 64.2314 169.422 67.0204 169.783 69.3474C169.811 69.4656 169.807 69.5891 169.772 69.7055C169.737 69.8219 169.672 69.927 169.584 70.0104Z" fill="#156AB3"/>
<path d="M183.726 72.8401C183.365 70.5521 182.926 67.7231 182.326 64.7931C181.741 61.8461 180.91 58.9533 179.842 56.1451C179.173 54.397 178.277 52.7443 177.178 51.2291C176.583 50.4228 175.882 49.7006 175.094 49.0821C174.248 48.4093 173.274 47.9175 172.23 47.6371C171.649 47.4857 171.045 47.4384 170.447 47.4971C169.947 47.5503 169.467 47.7217 169.047 47.9971C168.927 48.0781 168.827 48.1581 168.727 48.2381L168.227 48.6591C168.327 48.5791 168.447 48.4991 168.547 48.4191C168.973 48.1554 169.45 47.985 169.947 47.9191C170.545 47.8603 171.149 47.9077 171.73 48.0591C172.774 48.3397 173.749 48.8315 174.595 49.5041C175.373 50.1337 176.072 50.8545 176.678 51.6511C177.774 53.1682 178.669 54.8205 179.342 56.5671C180.411 59.3754 181.242 62.2686 181.826 65.2161C182.447 68.1451 182.887 70.9751 183.226 73.2621C183.25 73.3803 183.245 73.5028 183.21 73.6184C183.175 73.734 183.112 73.8391 183.026 73.9241L183.526 73.5031C183.613 73.419 183.678 73.3138 183.713 73.1977C183.748 73.0816 183.752 72.9585 183.726 72.8401V72.8401Z" fill="#156AB3"/>
<path d="M171.727 48.0592C172.771 48.3389 173.746 48.8305 174.592 49.5032C175.37 50.1327 176.069 50.8536 176.675 51.6502C177.771 53.1675 178.667 54.8202 179.339 56.5672C180.408 59.3751 181.239 62.268 181.823 65.2152C182.444 68.1442 182.884 70.9742 183.223 73.2612C183.303 73.8032 182.963 74.1442 182.462 74.0042C182.193 73.9192 181.952 73.7626 181.765 73.5513C181.578 73.3399 181.452 73.0816 181.4 72.8041C181.1 70.8171 180.719 68.4292 180.238 65.9812C179.878 64.1352 179.438 62.2492 178.938 60.4432C178.578 59.1353 178.144 57.8489 177.638 56.5902C177.3 55.7355 176.906 54.9043 176.457 54.1022C176.164 53.5722 175.836 53.0627 175.475 52.5772C175.026 51.9588 174.493 51.4052 173.893 50.9322C173.346 50.5109 172.719 50.2047 172.05 50.0322C171.473 49.8598 170.856 49.8738 170.287 50.0722C169.847 50.2524 169.47 50.5598 169.205 50.9552C168.59 51.9648 168.227 53.107 168.144 54.2862C167.909 56.8243 167.943 59.3801 168.244 61.9112C168.524 64.6602 168.944 67.4491 169.305 69.7771C169.386 70.3181 169.045 70.6602 168.544 70.5192C168.268 70.4286 168.022 70.2652 167.832 70.0462C167.642 69.8272 167.514 69.5607 167.463 69.2752C167.163 67.2892 166.782 64.8811 166.501 62.4131C166.301 60.5671 166.141 58.7001 166.121 56.9131C166.087 55.6661 166.147 54.4182 166.301 53.1802C166.399 52.3745 166.58 51.5812 166.842 50.8132C167.137 49.8327 167.75 48.9783 168.584 48.3852C169.01 48.1215 169.487 47.9511 169.984 47.8852C170.57 47.8611 171.157 47.9196 171.727 48.0592V48.0592Z" fill="#0078D4"/>
<path d="M190.857 77.7563L196.065 75.4883L197.727 124.048L183.906 131.773L190.857 77.7563Z" fill="#156AB3"/>
<path d="M193.26 76.71L188.834 118.968L183.966 131.73L190.817 77.793L193.26 76.71Z" fill="url(#paint1_linear_3673_4470)"/>
<path d="M188.834 118.971L183.966 131.733L197.766 123.988L188.834 118.971Z" fill="url(#paint2_linear_3673_4470)"/>
<path d="M152.317 55.3422L155.046 55.1422L157.385 53.0972V58.4102L152.317 55.3422Z" fill="#243A5E"/>
<path d="M157.385 53.0952L196.065 75.4882L190.817 77.7962L157.385 58.4102V53.0952Z" fill="#1D4A79"/>
<path d="M152.317 55.3423L145.467 109.142L183.967 131.736L190.818 77.7993L152.317 55.3423Z" fill="url(#paint3_linear_3673_4470)"/>
<path d="M163.472 69.5743C164.376 69.5743 165.109 68.8414 165.109 67.9373C165.109 67.0332 164.376 66.3003 163.472 66.3003C162.568 66.3003 161.835 67.0332 161.835 67.9373C161.835 68.8414 162.568 69.5743 163.472 69.5743Z" fill="#156AB3" fill-opacity="0.61"/>
<path d="M178.203 76.1212C179.107 76.1212 179.84 75.3883 179.84 74.4842C179.84 73.5801 179.107 72.8472 178.203 72.8472C177.299 72.8472 176.566 73.5801 176.566 74.4842C176.566 75.3883 177.299 76.1212 178.203 76.1212Z" fill="#156AB3" fill-opacity="0.61"/>
<path d="M168.783 50.9684L169.243 50.5684C169.003 50.7757 168.782 51.0039 168.582 51.2504C168.15 51.7956 167.781 52.3881 167.482 53.0164C167.015 54.0282 166.626 55.0747 166.32 56.1464C165.875 57.7641 165.521 59.4053 165.258 61.0624C164.878 63.3104 164.637 65.5574 164.417 67.4434C164.412 67.5281 164.39 67.6109 164.352 67.6868C164.314 67.7628 164.262 67.8303 164.197 67.8854L163.736 68.2854C163.863 68.1717 163.941 68.014 163.956 67.8444C164.177 65.9574 164.417 63.7104 164.798 61.4634C165.06 59.8059 165.414 58.1643 165.859 56.5464C166.162 55.4738 166.551 54.4271 167.021 53.4164C167.319 52.7879 167.689 52.1954 168.121 51.6504C168.315 51.3989 168.537 51.1701 168.783 50.9684V50.9684Z" fill="#2195DC"/>
<path d="M179.7 61.8241C179.648 60.4527 179.515 59.0856 179.3 57.7301C179.133 56.7523 178.899 55.787 178.6 54.8411C178.167 53.4579 177.496 52.1608 176.617 51.0081C176.172 50.4353 175.66 49.9168 175.094 49.4631C174.521 48.998 173.888 48.6132 173.211 48.3191C172.298 47.8699 171.281 47.6761 170.267 47.7581C169.522 47.841 168.807 48.1024 168.184 48.5201C168.044 48.6201 167.903 48.7201 167.763 48.8411L167.302 49.2411C167.443 49.1211 167.583 49.0211 167.723 48.9201C168.34 48.4909 169.058 48.2284 169.806 48.1581C170.819 48.0964 171.832 48.2896 172.751 48.7201C173.425 49.0189 174.058 49.403 174.634 49.8631C175.195 50.3228 175.704 50.8414 176.154 51.4101C177.033 52.5625 177.704 53.8592 178.137 55.2421C178.446 56.1856 178.68 57.1519 178.837 58.1321C179.063 59.4858 179.196 60.8533 179.237 62.2251C179.317 64.0711 179.257 65.9571 179.157 67.7631C179.016 70.1711 178.757 72.4391 178.536 74.3251C178.532 74.4177 178.508 74.5085 178.467 74.5914C178.425 74.6743 178.367 74.7474 178.295 74.8061L178.756 74.4061C178.826 74.3456 178.883 74.2718 178.924 74.1891C178.965 74.1064 178.99 74.0163 178.996 73.9241C179.217 72.0381 179.457 69.7711 179.617 67.3631C179.72 65.5561 179.78 63.6901 179.7 61.8241Z" fill="#2195DC"/>
<path d="M172.749 48.7012C173.423 48.9999 174.056 49.3841 174.632 49.8442C175.193 50.3033 175.703 50.8213 176.154 51.3892C177.033 52.542 177.704 53.8391 178.137 55.2222C178.446 56.1653 178.68 57.1313 178.837 58.1112C179.063 59.4652 179.196 60.833 179.237 62.2052C179.304 64.0516 179.271 65.9003 179.137 67.7432C178.996 70.1512 178.737 72.4182 178.516 74.3052C178.506 74.4242 178.466 74.5389 178.4 74.6381C178.333 74.7374 178.242 74.8179 178.136 74.8722C178.03 74.9264 177.911 74.9525 177.792 74.9479C177.672 74.9434 177.556 74.9083 177.454 74.8462C177.196 74.7296 176.977 74.5405 176.824 74.3019C176.671 74.0633 176.591 73.7855 176.593 73.5022C176.833 71.2952 177.134 68.6662 177.274 65.9372C177.433 63.2645 177.325 60.5826 176.953 57.9312C176.727 56.436 176.281 54.9824 175.631 53.6172C175.316 52.981 174.912 52.3931 174.431 51.8712C173.902 51.3037 173.261 50.8528 172.548 50.5472C171.958 50.2567 171.305 50.1192 170.648 50.1472C170.078 50.1957 169.531 50.3967 169.065 50.7292C168.713 50.9867 168.397 51.2893 168.124 51.6292C167.692 52.1742 167.322 52.7667 167.024 53.3952C166.557 54.4073 166.169 55.4537 165.862 56.5252C165.417 58.1431 165.063 59.7847 164.801 61.4422C164.42 63.6892 164.18 65.9362 163.959 67.8222C163.947 67.9398 163.906 68.0524 163.837 68.149C163.769 68.2456 163.677 68.3229 163.57 68.3733C163.463 68.4237 163.345 68.4455 163.227 68.4365C163.11 68.4275 162.996 68.3881 162.898 68.3222C162.64 68.2054 162.421 68.0163 162.268 67.7778C162.115 67.5393 162.034 67.2615 162.036 66.9782C162.277 64.8112 162.577 62.1422 163.058 59.4932C163.454 56.9632 164.174 54.4949 165.201 52.1492C165.748 50.8663 166.618 49.7464 167.725 48.8982C168.342 48.4689 169.06 48.2064 169.808 48.1362C170.82 48.0761 171.831 48.2703 172.749 48.7012Z" fill="#32B0E7"/>
<defs>
<linearGradient id="paint0_linear_3673_4470" x1="129.429" y1="20.8084" x2="160.6" y2="116.238" gradientUnits="userSpaceOnUse">
<stop stop-color="#50E6FF"/>
<stop offset="1" stop-color="#45CAF2"/>
</linearGradient>
<linearGradient id="paint1_linear_3673_4470" x1="188.613" y1="155.559" x2="188.613" y2="90.081" gradientUnits="userSpaceOnUse">
<stop stop-color="#1D4A79"/>
<stop offset="1" stop-color="#156AB3"/>
</linearGradient>
<linearGradient id="paint2_linear_3673_4470" x1="190.867" y1="118.736" x2="190.867" y2="129.761" gradientUnits="userSpaceOnUse">
<stop stop-color="#185A97"/>
<stop offset="1" stop-color="#156AB3"/>
</linearGradient>
<linearGradient id="paint3_linear_3673_4470" x1="168.142" y1="55.1453" x2="168.142" y2="130.721" gradientUnits="userSpaceOnUse">
<stop stop-color="#2195DC"/>
<stop offset="1" stop-color="#0078D4"/>
</linearGradient>
</defs>
</svg>
