<svg width="280" height="168" viewBox="0 0 280 168" fill="none" xmlns="http://www.w3.org/2000/svg">
<path d="M210.873 83.4571L210.707 129.07C210.707 132.63 208.224 134.037 205.161 132.216L129.829 88.7552C128.229 87.6953 126.897 86.2784 125.938 84.6161C124.98 82.9437 124.414 81.0755 124.283 79.1525L124.448 33.5397L210.873 83.4571Z" fill="#F2F2F2"/>
<path d="M154.325 62.7757L154.315 65.9736L131.903 53.2092L131.91 50.0089L154.325 62.7757Z" fill="#32B0E7"/>
<path d="M154.325 75.3494L154.315 78.5473L131.903 65.783L131.91 62.5826L154.325 75.3494Z" fill="#32B0E7"/>
<path d="M156.537 69.8976L156.527 73.098L131.903 59.2168L131.91 56.0189L156.537 69.8976Z" fill="#32B0E7"/>
<path d="M210.873 83.4572L210.707 129.07L214.101 127.083L214.267 81.4704L210.873 83.4572Z" fill="#DCDCDC"/>
<path d="M209.107 132.631L212.529 130.628C213.53 130.044 214.114 128.792 214.114 127.04L210.693 129.043C210.693 130.879 210.025 132.047 209.107 132.631Z" fill="#DCDCDC"/>
<path d="M205.326 63.3411C206.926 64.401 208.258 65.8179 209.217 67.4802C210.175 69.1526 210.741 71.0208 210.873 72.9438V83.7882L124.365 33.8708V23.0264C124.365 19.4667 126.849 18.0594 129.912 19.7979L205.326 63.3411Z" fill="#45CAF2"/>
<path d="M212.531 65.5257C211.548 63.8816 210.221 62.4696 208.64 61.3867L133.309 17.9262C131.736 17.0156 130.329 16.9328 129.335 17.5123L125.941 19.499C126.935 18.9196 128.342 19.0024 129.915 19.913L205.246 63.3734C206.846 64.4333 208.178 65.8502 209.137 67.5125C210.095 69.1849 210.661 71.0531 210.793 72.9761V72.9761V83.8205L214.187 81.8338V70.9893C214.016 69.0737 213.453 67.2138 212.531 65.5257V65.5257Z" fill="#32B0E7"/>
<path d="M182.999 108.743L182.059 110.37L181.925 110.578L184.788 109.575L184.919 109.382L185.86 107.755L182.999 108.743Z" fill="#1D4A79"/>
<path d="M176.38 94.6371L179.24 93.6491L181.262 94.401L178.402 95.389L176.38 94.6371Z" fill="#185A97"/>
<path d="M184.935 104.082C183.335 102.68 182.368 99.8716 182.771 97.7978C182.972 96.7609 183.473 96.1097 184.127 95.8781L181.267 96.8661C180.613 97.0977 180.112 97.7489 179.911 98.7858C179.508 100.86 180.475 103.668 182.075 105.07C182.89 105.775 183.693 105.977 184.361 105.749L187.222 104.761C186.568 104.992 185.75 104.787 184.935 104.082Z" fill="#185A97"/>
<path d="M178.654 91.4455L181.517 90.4425L182.851 90L179.991 90.988L178.654 91.4455Z" fill="#FAFAFA"/>
<path d="M189.818 109.866L189.437 107.25L190.126 106.276L187.266 107.264L186.577 108.238L186.973 110.857L187.011 111.223L189.871 110.235L189.818 109.866Z" fill="#1D4A79"/>
<path d="M184.367 92.556L182.851 90L179.991 90.988L181.507 93.544L182.638 93.9043L185.501 92.9012L184.367 92.556Z" fill="#185A97"/>
<path d="M189.656 106.045L192.516 105.057L192.121 107.007L189.261 107.995L189.656 106.045Z" fill="#1D4A79"/>
<path d="M192.322 104.77L190.842 102.673L190.673 100.971L187.828 101.962L187.979 103.676L189.462 105.758L189.656 106.045L192.516 105.057L192.322 104.77Z" fill="#185A97"/>
<path d="M189.081 100.412L191.941 99.4243L190.673 100.971L187.828 101.962L189.081 100.412Z" fill="#1D4A79"/>
<path d="M189.261 107.995L187.265 107.264L186.577 108.238L186.958 110.854L187.011 111.223L185.677 111.665L184.134 109.089L182.999 108.743L182.059 110.37L181.925 110.577L180.416 109.27L180.223 106.332L179.302 104.89L177.6 104.575L177.359 104.528L176.572 102.238L177.84 100.691L177.674 98.9747L176.194 96.8779L176 96.5907L176.38 94.6371L178.402 95.389L179.091 94.4155L178.71 91.7994L178.657 91.4304L179.991 90.988L181.507 93.544L182.656 93.8921L183.597 92.2658L183.731 92.058L185.24 93.365L185.433 96.3033L186.354 97.7456L188.056 98.0608L188.296 98.1075L189.081 100.412L187.813 101.959L187.966 103.658L189.447 105.755L189.641 106.042L189.261 107.995ZM182.09 105.073C183.69 106.476 185.327 105.921 185.745 103.85C186.148 101.776 185.183 98.9528 183.581 97.5652C181.981 96.1626 180.344 96.7177 179.938 98.8065C179.505 100.875 180.472 103.683 182.09 105.073Z" fill="#156AB3"/>
<path d="M191.154 97.1346L190.913 97.0879L189.211 96.7727L188.29 95.3304L188.082 92.3891L186.576 91.0671L183.713 92.0701L185.237 93.3801L185.43 96.3184L186.351 97.7607L188.053 98.0759L188.294 98.1226L189.081 100.412L191.941 99.4243L191.154 97.1346Z" fill="#185A97"/>
<path d="M197.171 134.237L195.805 136.601L195.61 136.903L199.771 135.445L199.961 135.165L201.327 132.802L197.171 134.237Z" fill="#1D4A79"/>
<path d="M187.552 113.739L191.708 112.303L194.647 113.395L190.491 114.831L187.552 113.739Z" fill="#185A97"/>
<path d="M199.984 127.464C197.659 125.426 196.253 121.345 196.839 118.332C197.132 116.825 197.86 115.879 198.81 115.542L194.653 116.978C193.704 117.314 192.976 118.261 192.683 119.767C192.097 122.781 193.503 126.862 195.828 128.9C197.012 129.923 198.179 130.218 199.15 129.886L203.307 128.45C202.357 128.787 201.168 128.487 199.984 127.464Z" fill="#185A97"/>
<path d="M190.857 109.101L195.017 107.643L196.956 107L192.8 108.436L190.857 109.101Z" fill="#FAFAFA"/>
<path d="M207.08 135.869L206.526 132.067L207.527 130.652L203.37 132.088L202.37 133.503L202.945 137.309L203.001 137.841L207.157 136.405L207.08 135.869Z" fill="#1D4A79"/>
<path d="M199.159 110.714L196.956 107L192.8 108.436L195.003 112.15L196.647 112.674L200.807 111.216L199.159 110.714Z" fill="#185A97"/>
<path d="M206.844 130.316L211 128.88L210.426 131.715L206.27 133.15L206.844 130.316Z" fill="#1D4A79"/>
<path d="M210.718 128.463L208.567 125.416L208.322 122.943L204.188 124.383L204.407 126.873L206.562 129.898L206.844 130.316L211 128.88L210.718 128.463Z" fill="#185A97"/>
<path d="M206.009 122.131L210.165 120.695L208.322 122.943L204.188 124.383L206.009 122.131Z" fill="#1D4A79"/>
<path d="M206.27 133.15L203.371 132.088L202.37 133.503L202.923 137.304L203.001 137.841L201.062 138.484L198.819 134.739L197.171 134.237L195.805 136.601L195.61 136.903L193.417 135.003L193.136 130.733L191.798 128.638L189.325 128.18L188.975 128.112L187.831 124.784L189.673 122.536L189.433 120.042L187.282 116.995L187 116.578L187.552 113.739L190.491 114.831L191.492 113.417L190.938 109.615L190.861 109.079L192.8 108.436L195.003 112.15L196.673 112.656L198.039 110.293L198.234 109.991L200.427 111.89L200.708 116.16L202.046 118.256L204.519 118.714L204.869 118.782L206.009 122.131L204.166 124.379L204.389 126.847L206.54 129.894L206.822 130.312L206.27 133.15ZM195.85 128.904C198.174 130.942 200.553 130.135 201.161 127.126C201.747 124.113 200.345 120.01 198.016 117.994C195.691 115.955 193.313 116.762 192.723 119.798C192.093 122.803 193.499 126.883 195.85 128.904Z" fill="#156AB3"/>
<path d="M209.021 117.368L208.671 117.3L206.198 116.842L204.86 114.746L204.557 110.472L202.368 108.551L198.208 110.008L200.423 111.912L200.704 116.182L202.042 118.278L204.515 118.736L204.865 118.804L206.009 122.131L210.165 120.695L209.021 117.368Z" fill="#185A97"/>
<path d="M142.059 81.5297L141.943 104.605V112.336L112.533 96.874L112.649 66.0679L119.915 69.8775L142.059 81.5297Z" fill="url(#paint0_linear)"/>
<path d="M112.649 66.0679L119.915 69.8775L141.943 81.5298L144.56 80.2188L122.416 68.4607L115.15 64.6511L112.649 66.0679Z" fill="#2195DC"/>
<path d="M141.944 112.336L144.438 110.919L144.561 80.2188L141.944 81.5298V112.336Z" fill="#0078D4"/>
<path d="M126.46 90.1719V98.2262L128.132 99.0963V91.042L135.751 95.0692V93.4348L128.132 89.3195V81.2417L126.46 80.3716V88.4317L118.841 84.3987V86.1624L126.46 90.1719Z" fill="white" stroke="white" stroke-width="1.85" stroke-miterlimit="10"/>
<path d="M102.394 121.909C101.701 115.869 98.8186 110.293 94.2928 106.234C89.7669 102.175 83.9109 99.9147 77.8317 99.8802C71.7524 99.8457 65.8711 102.04 61.2995 106.047C56.7279 110.054 53.7828 115.598 53.0209 121.629C52.8162 122.516 52.7532 123.429 52.8342 124.336C53.1142 127.789 55.6342 131.149 60.1142 133.856C69.9142 139.456 85.5942 139.456 95.3009 133.856C99.7809 131.242 102.208 127.789 102.488 124.429C102.554 123.588 102.522 122.743 102.394 121.909Z" fill="url(#paint1_linear)"/>
<path d="M77.6608 97.269C80.6199 97.2819 83.5144 96.4038 85.9675 94.749C88.4203 93.111 90.3324 90.7826 91.4621 88.0581C92.5918 85.3336 92.8883 82.3353 92.3142 79.4423C91.7484 76.5355 90.3169 73.8676 88.2075 71.789C86.0923 69.729 83.4401 68.3058 80.5542 67.6823C77.6715 67.1148 74.6856 67.4069 71.9675 68.5223C69.2471 69.6776 66.9149 71.5887 65.2475 74.029C63.5801 76.4761 62.7008 79.3746 62.7275 82.3357C62.7201 84.2889 63.1008 86.2241 63.8475 88.029C64.615 89.8413 65.7241 91.489 67.1142 92.8823C68.4909 94.2924 70.1429 95.4043 71.9675 96.149C73.7724 96.8957 75.7076 97.2764 77.6608 97.269Z" fill="url(#paint2_linear)"/>
<defs>
<linearGradient id="paint0_linear" x1="128.344" y1="66.3853" x2="126.36" y2="118.165" gradientUnits="userSpaceOnUse">
<stop stop-color="#32B0E7"/>
<stop offset="1" stop-color="#2195DC"/>
</linearGradient>
<linearGradient id="paint1_linear" x1="77.6451" y1="99.9003" x2="77.6451" y2="138.048" gradientUnits="userSpaceOnUse">
<stop stop-color="#4DC2EB"/>
<stop offset="1" stop-color="#0078D4"/>
</linearGradient>
<linearGradient id="paint2_linear" x1="77.6509" y1="67.4047" x2="77.6509" y2="97.2745" gradientUnits="userSpaceOnUse">
<stop stop-color="#4DC2EB"/>
<stop offset="1" stop-color="#0078D4"/>
</linearGradient>
</defs>
</svg>
