<svg xmlns="http://www.w3.org/2000/svg" width="395" height="390" viewBox="0 0 395 390">
  <title>MSC17_Collaboration_8</title>
  <g id="fd1abf36-fd54-4bc0-92aa-c23709f0c981" data-name="BG">
    <rect width="395" height="390" fill="#1a1a1a"/>
  </g>
  <g id="bf366625-e604-4262-9280-65921f74af3f" data-name="artwork">
    <g>
      <path d="M47.649,114.161h272.1a0,0,0,0,1,0,0v197.75a0,0,0,0,1,0,0H64.683a17.034,17.034,0,0,1-17.034-17.034V114.161A0,0,0,0,1,47.649,114.161Z" fill="#459bdd"/>
      <path d="M203.48,145.4,233.588,120h8.519a13.6,13.6,0,0,0,11.172-5.843h-37.35V125.91l-11.891,9.677-.558,9.809" fill="#1070c4"/>
      <path d="M58.729,114.161V270.92l-11.08,12.389v11.567a17.035,17.035,0,0,0,12.2,16.328c2.01,1.245,14.607.768,22.656.768L108,298.925,95.392,114.161Z" fill="#1070c4"/>
      <polygon points="309.177 299.134 173.997 299.134 173.997 296.27 306.314 296.27 306.314 128.31 95.973 128.31 95.973 125.446 309.177 125.446 309.177 299.134" fill="#49cdf3"/>
      <polygon points="319.752 240.93 303.656 261.68 295.82 247.818 319.752 217.473 319.752 240.93" fill="#1070c4"/>
      <polygon points="309.178 254.555 306.314 258.555 306.314 230.344 309.178 230.344 309.178 254.555" fill="#459bdd"/>
      <line x1="95.97" y1="297.702" x2="137.235" y2="297.702" fill="none" stroke="#40cdf5" stroke-miterlimit="10" stroke-width="2.864"/>
      <path d="M95.971,299.134H72.319c-12.072,0-19.572-7.976-19.572-20.817V125.446H96.162l.195,2.864H55.611V278.317c0,11.242,6.246,17.953,16.708,17.953H95.971Z" fill="#459bdd"/>
      <path d="M72.8,77.881H66.231A18.582,18.582,0,0,0,47.649,96.464V294.213h0a18.582,18.582,0,0,1,18.582-18.582H87.754Z" fill="#09538f"/>
      <g>
        <rect x="241.904" y="272.373" width="2.864" height="3.564" fill="#49cdf3"/>
        <rect x="241.904" y="259.899" width="2.864" height="3.564" fill="#49cdf3"/>
      </g>
      <g>
        <path d="M251.129,196.5A40.9,40.9,0,0,0,238.09,166.62a40.757,40.757,0,0,0-56.027,59.2A34.774,34.774,0,0,1,192.407,250.8v18.738a6.364,6.364,0,0,0,6.356,6.357h5.327v4.311h12.936V275.9h4.923a6.365,6.365,0,0,0,6.358-6.357V252.943h.022V250.8a35.871,35.871,0,0,1,10.832-25.457A40.47,40.47,0,0,0,251.129,196.5Zm-25.685,73.035a3.5,3.5,0,0,1-3.495,3.492h-7.787v4.312h-7.209V273.03h-8.19a3.5,3.5,0,0,1-3.493-3.492v-1.556h21.367v-2.864H195.27v-4.774h21.367V257.48H195.27v-4.537h30.174Zm.06-20.17h-8.459l1.541-44.987.107-3.126.225-6.569a4.5,4.5,0,0,1,4.5-4.5h.126a4.5,4.5,0,0,1,4.5,4.5v.336a4.487,4.487,0,0,1-2.751,4.143,37.594,37.594,0,0,1-4.026,1.423l-.137,3.193a40.506,40.506,0,0,0,5.344-1.814,7.522,7.522,0,0,0,4.61-6.945v-.336a7.546,7.546,0,0,0-7.537-7.537h-.126a7.533,7.533,0,0,0-7.536,7.485l-.246,7.161a38.6,38.6,0,0,1-8.335.214l.146,3.055a41.842,41.842,0,0,0,8.084-.192L214,249.368h-7.27l-1.527-44.518h0l-.1-3.08h0l-.245-7.085a7.537,7.537,0,1,0-15.073,0V195a7.514,7.514,0,0,0,4.641,6.958l.2.083a40.751,40.751,0,0,0,7.523,2.3l1.543,45.022h-8.457a37.546,37.546,0,0,0-11.183-25.6A37.894,37.894,0,1,1,244.74,180.6h-1.759v2.864h2.951a37.793,37.793,0,0,1-8.794,39.858A38.8,38.8,0,0,0,225.5,249.368Zm-23.463-48.153a37.733,37.733,0,0,1-6.247-1.979l-.2-.083a4.483,4.483,0,0,1-2.77-4.152v-.315a4.5,4.5,0,1,1,8.994.052Z" fill="#49cdf3"/>
        <rect x="104.677" y="184.615" width="43.86" height="2.864" fill="#49cdf3"/>
        <rect x="104.677" y="194.163" width="43.86" height="2.864" fill="#49cdf3"/>
        <rect x="104.677" y="203.71" width="43.86" height="2.864" fill="#49cdf3"/>
        <rect x="104.677" y="213.257" width="43.86" height="2.864" fill="#49cdf3"/>
        <rect x="215.929" y="180.595" width="3.864" height="2.864" fill="#49cdf3"/>
        <rect x="222.692" y="180.595" width="3.864" height="2.864" fill="#49cdf3"/>
        <rect x="229.454" y="180.595" width="3.865" height="2.864" fill="#49cdf3"/>
        <rect x="236.218" y="180.595" width="3.864" height="2.864" fill="#49cdf3"/>
        <rect x="249.743" y="180.595" width="3.864" height="2.864" fill="#49cdf3"/>
        <rect x="256.506" y="180.595" width="3.864" height="2.864" fill="#49cdf3"/>
        <rect x="263.143" y="172.377" width="2.863" height="19.3" fill="#49cdf3"/>
        <rect x="210.2" y="172.377" width="2.863" height="19.3" fill="#49cdf3"/>
        <rect x="241.904" y="266.136" width="2.864" height="3.564" fill="#49cdf3"/>
        <rect x="241.904" y="253.735" width="2.864" height="3.564" fill="#49cdf3"/>
        <rect x="233.686" y="248.753" width="19.301" height="2.864" fill="#49cdf3"/>
        <rect x="233.686" y="277.828" width="19.301" height="2.864" fill="#49cdf3"/>
        <rect x="160.327" y="231.491" width="2.863" height="3.865" fill="#49cdf3"/>
        <rect x="160.327" y="224.729" width="2.863" height="3.864" fill="#49cdf3"/>
        <rect x="160.327" y="217.965" width="2.863" height="3.865" fill="#49cdf3"/>
        <rect x="160.327" y="238.254" width="2.863" height="3.865" fill="#49cdf3"/>
        <rect x="160.327" y="190.914" width="2.863" height="3.864" fill="#49cdf3"/>
        <rect x="160.327" y="211.203" width="2.863" height="3.864" fill="#49cdf3"/>
        <rect x="160.327" y="170.625" width="2.863" height="3.864" fill="#49cdf3"/>
        <rect x="160.327" y="163.862" width="2.863" height="3.865" fill="#49cdf3"/>
        <rect x="160.327" y="177.388" width="2.863" height="3.864" fill="#49cdf3"/>
        <rect x="160.327" y="197.677" width="2.863" height="3.865" fill="#49cdf3"/>
        <rect x="160.327" y="204.44" width="2.863" height="3.864" fill="#49cdf3"/>
        <rect x="160.327" y="184.151" width="2.863" height="3.865" fill="#49cdf3"/>
        <rect x="152.11" y="157.325" width="19.3" height="2.864" fill="#49cdf3"/>
      </g>
      <g>
        <path d="M181.24,311.911a33.036,33.036,0,0,0,4.04-46.068c-.367,3.7-.805,8.194-1.129,11.653.078.2.162.406.235.614a26.1,26.1,0,0,1-15.89,33.316c-.508.18-1.019.338-1.53.485Z" fill="#1070c4"/>
        <path d="M138.329,311.911h14.253a26.075,26.075,0,0,1-16.838-14.928l-8.966-10.656a32.826,32.826,0,0,0,.842,7.919l-14.65,5.189,2.5,7.05,14.651-5.189A32.819,32.819,0,0,0,138.329,311.911Z" fill="#1070c4"/>
      </g>
      <path d="M182.783,299.161H190.4a21.1,21.1,0,0,0,1.015-2.892H184.08S183.157,298.488,182.783,299.161Z" fill="#459bdd"/>
      <polygon points="124.093 299.161 133.983 299.161 133.533 296.269 123.302 296.269 124.093 299.161" fill="#459bdd"/>
      <polygon points="227.141 125.441 215.955 125.441 212.979 128.31 223.862 128.31 227.141 125.441" fill="#459bdd"/>
      <g>
        <g>
          <path d="M142.014,270.163a4.78,4.78,0,1,0-2.863,0V276.9l8.553,8.555v15.86h2.864V284.265l-8.554-8.554Zm-1.432-6.451a1.915,1.915,0,1,1-1.916,1.915A1.917,1.917,0,0,1,140.582,263.712Z" fill="#49cdf3"/>
          <path d="M171.238,278.813a4.785,4.785,0,0,0-4.78,4.779,4.723,4.723,0,0,0,.559,2.195l-6.107,6.106V280.36l7.321-7.319v-4.459a4.779,4.779,0,1,0-2.864,0v3.272l-5.888,5.887-4.9-4.894V261.775a4.78,4.78,0,1,0-2.863,0v12.258l6.326,6.327v23.53h2.863v-7.946l8.133-8.132a4.716,4.716,0,0,0,2.195.559,4.779,4.779,0,0,0,0-9.558ZM166.8,262.131a1.915,1.915,0,1,1-1.916,1.915A1.917,1.917,0,0,1,166.8,262.131Zm-13.646-6.807a1.915,1.915,0,1,1-1.916,1.915A1.918,1.918,0,0,1,153.153,255.324Zm18.085,30.183a1.915,1.915,0,1,1,1.915-1.915A1.917,1.917,0,0,1,171.238,285.507Z" fill="#49cdf3"/>
        </g>
        <g>
          <path d="M111.647,295.028,126.3,289.84a33.012,33.012,0,1,0-2.5-7.05l-14.65,5.188Zm19.714-10.948a26.1,26.1,0,1,1,33.316,15.89A26.1,26.1,0,0,1,131.361,284.08Z" fill="#e6e6e6"/>
          <path d="M126.466,318.717l-3.254-27.784-11.044,3.911-3.806-8.517s5.134-.895,5.451,0l1.22-.432,5.023-1.779a8.891,8.891,0,0,0-6.5-2.157l-6.914.519-2.383-5.332a5.543,5.543,0,0,0-7.6-2.4,5.64,5.64,0,0,0-3.133,6.7l1.092,4.916-2.209-4.154a3.932,3.932,0,0,0-5.1-1.549h0a4.037,4.037,0,0,0-2.446,4.594l1.015,3.944-.7-.918a4.746,4.746,0,0,0-8.239,4l.121.463-1.442.208a5.322,5.322,0,0,0-4.658,5.867l-2.123,1.841a9.145,9.145,0,0,0-3.212,8.21L69.067,331.5l.022-.009A102.617,102.617,0,0,0,72.9,348.063l1.924,4.608L69.561,390h40.955l-4.059-37.753,15.04-17.828A21.434,21.434,0,0,0,126.466,318.717Z" fill="#f6caa7"/>
          <path d="M118.133,294.647l-3.7-10.454a1.72,1.72,0,0,0-2.2-1.047l-4.571,1.619,5.947,13.308,3.475-1.23A1.721,1.721,0,0,0,118.133,294.647Z" fill="#c2c2c2"/>
          <path d="M123.185,290.942l-5.655,2,.6,1.7a1.721,1.721,0,0,1-1.047,2.2l-3.475,1.23s2.992,4.546,6.792,2.985l3.8-1.671Z" fill="#deb695"/>
        </g>
      </g>
      <g>
        <g>
          <g>
            <g>
              <path d="M290.464,21.206c-1.548-1.445-20.983-11.4-20.983-11.4L238.83,40.732a10.3,10.3,0,0,1-3.516,2.324L195.32,58.939a6.2,6.2,0,0,0-2.9,2.359l-9.513,14.464a3,3,0,0,0-.257,2.816l3.25,7.686-.138.34a4.115,4.115,0,0,0-.3,1.822l1.015,15.988a4.331,4.331,0,0,0,.367,1.708l6.088,13.83,2.143-.984a5.192,5.192,0,0,0,.775-.44l1.856,7.945,2.363-.689a7.4,7.4,0,0,0,4.805-4.381l16.207-3.887,16.07-16.008,17.88-35.575a10.315,10.315,0,0,1,4.294-4.43l29.283-23.512S292.012,22.651,290.464,21.206Zm-76.408,88.153L208.938,111a7.258,7.258,0,0,0-4.1,2.988l-.9-6.59,2.693-14.347,1.608-4.509,2.518-.46a8.226,8.226,0,0,1,9.7,7.876l.058,2.2Z" fill="#8e562e"/>
              <path d="M199.476,125.958l-3.465-15.81a5.557,5.557,0,0,1-.09-1.823L197.272,96.6a7.511,7.511,0,0,1,4.092-5.764L209.039,87l-4.514,34.491a4.79,4.79,0,0,1-3.378,3.968Z" fill="#704322"/>
              <g>
                <path d="M250.157,32.522a45.479,45.479,0,0,0,5.968,24.414,22.455,22.455,0,0,1-7.166,5.375,19.962,19.962,0,0,0-9.387,10.257l-10.263,26.6a5.011,5.011,0,0,1-.871,1.458l-8.225,9.6a5.007,5.007,0,0,1-2.427,1.556l-13.828,3.951a7.248,7.248,0,0,0-.369,2.374l.041,3.6,17.457-4.187,16.07-16.008,17.88-35.575a10.315,10.315,0,0,1,4.294-4.43l12.151-9.757Z" fill="#704322"/>
                <path d="M209.872,88.245,213.659,74.3l2.111.43a4.262,4.262,0,0,1,3.238,5.38l-2.639,8.969A8.988,8.988,0,0,0,209.872,88.245Z" fill="#704322"/>
              </g>
            </g>
            <g>
              <polygon points="201.015 134.606 208.082 135.28 215.039 62.723 211.651 60.858 207.972 62.05 201.015 134.606" fill="#edac28" fill-rule="evenodd"/>
              <polygon points="203.128 145.679 201.015 134.606 208.082 135.28 203.913 145.754 203.128 145.679" fill="#fff" fill-rule="evenodd"/>
              <polygon points="202.407 141.9 203.128 145.679 203.914 145.754 205.336 142.179 202.407 141.9" fill-rule="evenodd"/>
              <path d="M208.2,57.209h7.1a0,0,0,0,1,0,0v4.178a1.01,1.01,0,0,1-1.01,1.01h-5.078a1.01,1.01,0,0,1-1.01-1.01V57.209A0,0,0,0,1,208.2,57.209Z" transform="translate(416.871 139.437) rotate(-174.553)" fill="#df6c47"/>
              <rect x="207.702" y="62.374" width="7.099" height="5.356" transform="translate(415.374 149.863) rotate(-174.553)" fill="#b2b2b2"/>
            </g>
            <path d="M247.862,28.053l.867,2.259A48.559,48.559,0,0,0,269.17,54.591h0l57.3-44.782L274.932,2.5Z" fill="#fff"/>
            <path d="M274.221,40.639c2.644-2.439,4.6-3.958,4.6-3.958l-21.43-16.546-3.184,1.5s-2.715,10.464,9,20.972L259.021,46.5a48.593,48.593,0,0,0,10.149,8.089l10.959-8.565Z" fill="#f3f3f3"/>
            <path d="M253.186,18.981l1.021,2.656a57.114,57.114,0,0,0,24.042,28.557h0L347.351,0H274.6Z" fill="#d2d2d2"/>
          </g>
          <path d="M221.087,117.516,203.63,121.7l-.175-3.191a7.57,7.57,0,0,1,5.48-7.692l5.121-1.461Z" fill="#8e562e"/>
        </g>
        <path d="M221.087,117.516,203.63,121.7l-.175-3.191s6.465-6.556,13.314-6.42a6.135,6.135,0,0,1,4.408,3.187Z" fill="#704322"/>
        <path d="M203.61,121.7l-.333-3.914,3.294-.829a2.257,2.257,0,0,1,2.77,1.925l.17,1.407Z" fill="#b48f75"/>
        <path d="M197.712,126.473l-1.339-5.73H197a3.572,3.572,0,0,1,3.451,2.649l.563,2.107Z" fill="#b48f75"/>
        <path d="M192.938,119.952l-2.312-5.253.451-.212a2.772,2.772,0,0,1,3.746,1.451l1.061,2.709Z" fill="#b48f75"/>
        <polygon points="185.904 86.264 193.255 69.775 183.422 80.395 185.904 86.264" fill="#704322"/>
        <path d="M193.5,94.526l4.859-11.118-5.238,4.937a9.411,9.411,0,0,0-2.685,9.095l2.822,11.487Z" fill="#704322"/>
      </g>
      <g>
        <g>
          <g>
            <rect x="285.308" y="170.845" width="21.127" height="135.564" transform="translate(374.262 610.566) rotate(-140.789)" fill="#c2c2c2"/>
            <g>
              <g>
                <g>
                  <rect x="288.836" y="258.12" width="3.387" height="2.17" transform="translate(351.772 643.71) rotate(-140.789)" fill="#939393"/>
                  <rect x="291.933" y="254.324" width="3.387" height="2.17" transform="translate(359.668 638.931) rotate(-140.789)" fill="#939393"/>
                  <rect x="285.739" y="261.915" width="3.387" height="2.17" transform="translate(343.876 648.488) rotate(-140.789)" fill="#939393"/>
                  <rect x="277.767" y="263.974" width="8.881" height="2.17" transform="translate(333.301 648.84) rotate(-140.789)" fill="#939393"/>
                  <polyline points="297.35 253.525 290.469 247.911 291.841 246.229 298.722 251.844" fill="#939393"/>
                </g>
                <g>
                  <rect x="301.224" y="242.937" width="3.387" height="2.17" transform="translate(383.356 624.595) rotate(-140.789)" fill="#939393"/>
                  <rect x="304.321" y="239.142" width="3.387" height="2.17" transform="translate(391.251 619.816) rotate(-140.789)" fill="#939393"/>
                  <rect x="298.127" y="246.733" width="3.387" height="2.17" transform="translate(375.46 629.374) rotate(-140.789)" fill="#939393"/>
                  <polyline points="309.737 238.343 302.856 232.728 304.228 231.047 311.109 236.661" fill="#939393"/>
                </g>
              </g>
              <g>
                <g>
                  <rect x="313.595" y="227.775" width="3.387" height="2.17" transform="translate(414.899 605.505) rotate(-140.789)" fill="#939393"/>
                  <rect x="316.692" y="223.979" width="3.387" height="2.17" transform="translate(422.795 600.726) rotate(-140.789)" fill="#939393"/>
                  <rect x="310.498" y="231.57" width="3.387" height="2.17" transform="translate(407.003 610.284) rotate(-140.789)" fill="#939393"/>
                  <polyline points="322.109 223.18 315.228 217.566 316.6 215.884 323.481 221.498" fill="#939393"/>
                </g>
                <g>
                  <rect x="325.983" y="212.592" width="3.387" height="2.17" transform="translate(446.482 586.39) rotate(-140.789)" fill="#939393"/>
                  <rect x="329.08" y="208.797" width="3.387" height="2.17" transform="translate(454.378 581.612) rotate(-140.789)" fill="#939393"/>
                  <rect x="322.886" y="216.388" width="3.387" height="2.17" transform="matrix(-0.775, -0.632, 0.632, -0.775, 438.586, 591.169)" fill="#939393"/>
                  <polyline points="334.496 207.998 327.615 202.383 328.987 200.702 335.868 206.316" fill="#939393"/>
                </g>
              </g>
              <g>
                <rect x="338.37" y="197.41" width="3.387" height="2.17" transform="translate(478.066 567.276) rotate(-140.789)" fill="#939393"/>
                <rect x="341.467" y="193.614" width="3.387" height="2.17" transform="translate(485.961 562.497) rotate(-140.789)" fill="#939393"/>
                <rect x="335.273" y="201.206" width="3.387" height="2.17" transform="matrix(-0.775, -0.632, 0.632, -0.775, 470.17, 572.054)" fill="#939393"/>
              </g>
              <g>
                <rect x="276.449" y="273.302" width="3.387" height="2.17" transform="translate(320.189 662.824) rotate(-140.789)" fill="#939393"/>
                <rect x="279.546" y="269.506" width="3.387" height="2.17" transform="translate(328.084 658.046) rotate(-140.789)" fill="#939393"/>
                <rect x="273.352" y="277.098" width="3.387" height="2.17" transform="translate(312.293 667.603) rotate(-140.789)" fill="#939393"/>
              </g>
            </g>
          </g>
          <path d="M284.076,251.046l-3.212-10.626a5.492,5.492,0,1,0-10.47,3.312l2.316,6.711-1.371-3.2a5.592,5.592,0,1,0-10.207,4.562l5,10.694-4.283-6.016a4.977,4.977,0,1,0-8.032,5.875L260,270.373a4.782,4.782,0,0,0,6.769.814h0a4.767,4.767,0,0,0,1.524-5.269,5.369,5.369,0,0,0,8.367-6.253l-1.5-3.506a5.275,5.275,0,0,0,8.918-5.113Z" fill="#ce9c5f"/>
          <path d="M307.026,306.964l6.47-13.638a21.443,21.443,0,0,0,.8-16.451l-11.379-32.853-19.9-14.1-1.993,3.58a6.824,6.824,0,0,0,1.464,8.022l7.476,6.962,1.35,14.036-1.881.705-23.367,48.244,3.922,7.437,4.161,5.435.169-.03L289.415,390H336.2Z" fill="#ce9c5f"/>
          <path d="M285.6,272.68l5.606-10.056-.1-1.446-29.9,36.646-2.1-1.715a45.025,45.025,0,0,0,6.961,15.365l4.2-.97a15.647,15.647,0,0,0,11.108-9.7,11.714,11.714,0,0,0,6.058,2.257s-6.167-5.286-5.553-18.287A30.4,30.4,0,0,1,285.6,272.68Z" fill="#ba8c57"/>
          <path d="M257.494,268.3l5.76,6.693a4.2,4.2,0,0,1-.273,5.763h0a4.2,4.2,0,0,1-5.981-.166l-6.053-6.508a4.367,4.367,0,0,1,.376-6.3h0A4.369,4.369,0,0,1,257.494,268.3Z" fill="#ce9c5f"/>
        </g>
        <path d="M271.723,259.28h0a3.426,3.426,0,0,1,3.426,3.426v2.008a0,0,0,0,1,0,0H268.3a0,0,0,0,1,0,0v-2.008A3.426,3.426,0,0,1,271.723,259.28Z" transform="translate(-82.785 132.381) rotate(-23.872)" fill="#d8b094"/>
        <path d="M278.963,249.939h0a3.426,3.426,0,0,1,3.426,3.426v2.008a0,0,0,0,1,0,0h-6.852a0,0,0,0,1,0,0v-2.008A3.426,3.426,0,0,1,278.963,249.939Z" transform="translate(-78.385 134.513) rotate(-23.873)" fill="#d8b094"/>
        <path d="M263.4,264.636h0a3.426,3.426,0,0,1,3.426,3.426v2.008a0,0,0,0,1,0,0h-6.852a0,0,0,0,1,0,0v-2.008a3.426,3.426,0,0,1,3.426-3.426Z" transform="translate(-107.043 207.12) rotate(-36.191)" fill="#d8b094"/>
        <path d="M259.887,275.46h0a2.4,2.4,0,0,1,2.4,2.4v2a0,0,0,0,1,0,0h-4.8a0,0,0,0,1,0,0v-2A2.4,2.4,0,0,1,259.887,275.46Z" transform="translate(-119.583 252.407) rotate(-43.086)" fill="#d8b094"/>
        <path d="M283.574,230.344l-1.035,2.311a7.124,7.124,0,0,0,6.555,1.576C287.94,233.413,283.574,230.344,283.574,230.344Z" fill="#d8b094"/>
        <path d="M307.036,306.944h0a53.259,53.259,0,0,0-.74,27.761L321.145,390h15.209Z" fill="#ba8c57"/>
      </g>
      <polygon points="106.615 282.48 107.664 284.765 110.975 283.592 110.615 282.18 106.615 282.48" fill="#deb695"/>
      <path d="M78.579,390l4.753-35.382a9.513,9.513,0,0,0-2.819-8.112c-5.982-5.7-8-9.786-8.512-14.186l-3.614-31.23a9.059,9.059,0,0,0-2.765,7.772L69.067,331.5l.022-.009A102.617,102.617,0,0,0,72.9,348.063l1.924,4.608L69.52,390Z" fill="#deb695"/>
    </g>
  </g>
</svg>
