<svg id="Layer_1" data-name="Layer 1" xmlns="http://www.w3.org/2000/svg" xmlns:xlink="http://www.w3.org/1999/xlink" viewBox="0 0 240 195"><defs><clipPath id="clip-path"><rect x="184" y="120" width="40" height="40" fill="none"/></clipPath><linearGradient id="linear-gradient" x1="-83" y1="1417.541" x2="-83" y2="1377.538" gradientTransform="matrix(1, 0, 0, -1, 287, 1537.539)" gradientUnits="userSpaceOnUse"><stop offset="0" stop-color="#b3b2b3"/><stop offset="0.375" stop-color="#afaeaf"/><stop offset="0.763" stop-color="#a2a2a2"/><stop offset="1" stop-color="#979797"/></linearGradient><linearGradient id="linear-gradient-2" x1="-249.408" y1="1490.492" x2="-249.408" y2="1521.444" gradientTransform="matrix(1, 0, 0, -1, 287, 1537.539)" gradientUnits="userSpaceOnUse"><stop offset="0" stop-color="#5e9641"/><stop offset="0.34" stop-color="#6baa42"/><stop offset="0.67" stop-color="#73b743"/><stop offset="1" stop-color="#76bb43"/></linearGradient><linearGradient id="linear-gradient-3" x1="-249.408" y1="1446.492" x2="-249.408" y2="1477.444" xlink:href="#linear-gradient-2"/><linearGradient id="linear-gradient-4" x1="-249.408" y1="1402.491" x2="-249.408" y2="1433.444" xlink:href="#linear-gradient-2"/><linearGradient id="linear-gradient-5" x1="-249.408" y1="1358.491" x2="-249.408" y2="1389.444" xlink:href="#linear-gradient-2"/><linearGradient id="linear-gradient-6" x1="-161" y1="1469.539" x2="-161" y2="1497.539" gradientTransform="matrix(1, 0, 0, -1, 287, 1537.539)" gradientUnits="userSpaceOnUse"><stop offset="0" stop-color="#0078d4"/><stop offset="0.776" stop-color="#5ea0ef"/></linearGradient><linearGradient id="linear-gradient-7" x1="-161" y1="1381.539" x2="-161" y2="1409.539" xlink:href="#linear-gradient-6"/><linearGradient id="linear-gradient-8" x1="-76.802" y1="1469.364" x2="-76.802" y2="1485.888" gradientTransform="matrix(1, 0, 0, -1, 287, 1537.539)" gradientUnits="userSpaceOnUse"><stop offset="0" stop-color="#0078d4"/><stop offset="0.82" stop-color="#5ea0ef"/></linearGradient><linearGradient id="linear-gradient-9" x1="-76.74" y1="1462.984" x2="-76.74" y2="1469.364" gradientTransform="matrix(1, 0, 0, -1, 287, 1537.539)" gradientUnits="userSpaceOnUse"><stop offset="0.15" stop-color="#ccc"/><stop offset="1" stop-color="#707070"/></linearGradient></defs><g clip-path="url(#clip-path)"><path d="M216.984,158.644a1.429,1.429,0,0,1-1.5,1.356H192.513a1.429,1.429,0,0,1-1.5-1.356V121.356a1.429,1.429,0,0,1,1.5-1.356h22.974a1.429,1.429,0,0,1,1.5,1.356Z" fill="url(#linear-gradient)"/><path d="M194.833,137.111A2.977,2.977,0,0,1,197.656,134H210.58a3.119,3.119,0,0,1,0,6.222H197.656a2.976,2.976,0,0,1-2.823-3.111Z" fill="#003067"/><path d="M194.833,127.86a2.977,2.977,0,0,1,2.823-3.111H210.58a3.119,3.119,0,0,1,0,6.222H197.656a2.976,2.976,0,0,1-2.823-3.111Z" fill="#003067"/><path d="M198.464,129.947a2.087,2.087,0,1,0-2.086-2.087A2.087,2.087,0,0,0,198.464,129.947Z" fill="#50e6ff"/><path d="M198.464,139.187a2.087,2.087,0,1,0-2.086-2.087A2.087,2.087,0,0,0,198.464,139.187Z" fill="#50e6ff"/></g><path d="M51.789,19.005H54.41a.7.7,0,0,1,.7.7v7.223a.7.7,0,0,1-.7.7H51.789Z" fill="#ffca00"/><path d="M51.789,31.571H54.41a.7.7,0,0,1,.7.7V44.365a.7.7,0,0,1-.7.7H51.789Z" fill="#ffca00"/><path d="M50.365,16.1H24.819A1.425,1.425,0,0,0,23.4,17.519V45.624a1.425,1.425,0,0,0,1.424,1.424H50.365a1.424,1.424,0,0,0,1.424-1.424V17.519A1.424,1.424,0,0,0,50.365,16.1Z" fill="url(#linear-gradient-2)"/><path d="M31.175,39.619H29.709a.412.412,0,0,1-.368-.274.43.43,0,0,1-.024-.159V21.956a.416.416,0,0,1,.024-.157.4.4,0,0,1,.084-.134.38.38,0,0,1,.13-.09.39.39,0,0,1,.154-.032h3.983a.4.4,0,0,1,.155.032.389.389,0,0,1,.13.09.4.4,0,0,1,.107.291.41.41,0,0,1-.023.159.447.447,0,0,1-.083.139.415.415,0,0,1-.13.1.422.422,0,0,1-.156.039H30.1V38.752h1.073a.422.422,0,0,1,.286.136.411.411,0,0,1,.082.138.415.415,0,0,1,.024.16.441.441,0,0,1-.112.293A.434.434,0,0,1,31.175,39.619Z" fill="#b4ec36"/><path d="M31.381,41.724h-3.3a.41.41,0,0,1-.285-.135.418.418,0,0,1-.107-.3l-.268-21.316a.411.411,0,0,1,.124-.31.327.327,0,0,1,.119-.093.335.335,0,0,1,.149-.031h5.881v.846H28.224l.248,20.47h2.909Z" fill="#b4ec36"/><path d="M43.762,39.825H40.481a.387.387,0,0,1-.16-.041.392.392,0,0,1-.129-.1.372.372,0,0,1-.094-.131.39.39,0,0,1-.03-.158V29.3a.4.4,0,0,1,.024-.157.4.4,0,0,1,.213-.225.394.394,0,0,1,.155-.031h1.878V24.246h.784v5.035a.413.413,0,0,1-.371.433H40.873v9.121h2.889Z" fill="#b4ec36"/><path d="M45.722,17.725h-11.6a.536.536,0,0,0-.536.537v5.344a.536.536,0,0,0,.536.537h11.6a.536.536,0,0,0,.537-.537V18.262A.536.536,0,0,0,45.722,17.725Z" fill="#365615"/><path d="M37.262,44.84V35.8a.536.536,0,0,0-.537-.537H35.549a.536.536,0,0,0-.536.537V44.84a.536.536,0,0,0,.536.536h1.176A.536.536,0,0,0,37.262,44.84Z" fill="#365615"/><path d="M33.424,44.881V35.843a.537.537,0,0,0-.537-.537H31.711a.537.537,0,0,0-.536.537v9.038a.536.536,0,0,0,.536.536h1.176A.536.536,0,0,0,33.424,44.881Z" fill="#365615"/><path d="M45.763,44.881V35.843a.537.537,0,0,0-.536-.537H44.051a.537.537,0,0,0-.537.537v9.038a.536.536,0,0,0,.537.536h1.176A.536.536,0,0,0,45.763,44.881Z" fill="#f2f2f2"/><path d="M35.735,31.943a2.317,2.317,0,1,0-2.146-2.311A2.233,2.233,0,0,0,35.735,31.943Z" fill="#f2f2f2"/><path d="M23.354,38.278H20.733a.7.7,0,0,1-.7-.619V25.567a.7.7,0,0,1,.7-.7h2.621Z" fill="#3b3b3b"/><path d="M51.789,63.005H54.41a.7.7,0,0,1,.7.7v7.223a.7.7,0,0,1-.7.7H51.789Z" fill="#ffca00"/><path d="M51.789,75.571H54.41a.7.7,0,0,1,.7.7V88.365a.7.7,0,0,1-.7.7H51.789Z" fill="#ffca00"/><path d="M50.365,60.1H24.819A1.425,1.425,0,0,0,23.4,61.519v28.1a1.425,1.425,0,0,0,1.424,1.424H50.365a1.424,1.424,0,0,0,1.424-1.424v-28.1A1.424,1.424,0,0,0,50.365,60.1Z" fill="url(#linear-gradient-3)"/><path d="M31.175,83.619H29.709a.41.41,0,0,1-.285-.135.412.412,0,0,1-.083-.139.43.43,0,0,1-.024-.159V65.956a.416.416,0,0,1,.024-.157.4.4,0,0,1,.084-.134.38.38,0,0,1,.13-.09.39.39,0,0,1,.154-.032h3.983a.4.4,0,0,1,.155.032.389.389,0,0,1,.13.09.4.4,0,0,1,.107.291.41.41,0,0,1-.023.159.447.447,0,0,1-.083.139.415.415,0,0,1-.13.1.422.422,0,0,1-.156.039H30.1V82.752h1.073a.4.4,0,0,1,.156.04.422.422,0,0,1,.13.1.411.411,0,0,1,.082.138.415.415,0,0,1,.024.16.441.441,0,0,1-.112.293A.434.434,0,0,1,31.175,83.619Z" fill="#b4ec36"/><path d="M31.381,85.724h-3.3a.41.41,0,0,1-.285-.135.418.418,0,0,1-.107-.3l-.268-21.315a.416.416,0,0,1,.029-.168.427.427,0,0,1,.095-.142.34.34,0,0,1,.119-.094.349.349,0,0,1,.149-.03h5.881v.846H28.224l.248,20.47h2.909Z" fill="#b4ec36"/><path d="M43.762,83.825H40.481a.387.387,0,0,1-.16-.041.392.392,0,0,1-.129-.1.372.372,0,0,1-.094-.131.39.39,0,0,1-.03-.158V73.3a.4.4,0,0,1,.024-.156.375.375,0,0,1,.084-.134.363.363,0,0,1,.129-.09.378.378,0,0,1,.155-.032h1.878V68.246h.784v5.035a.413.413,0,0,1-.371.433H40.873v9.121h2.889Z" fill="#b4ec36"/><path d="M45.722,61.725h-11.6a.536.536,0,0,0-.536.537v5.344a.536.536,0,0,0,.536.537h11.6a.536.536,0,0,0,.537-.537V62.262A.536.536,0,0,0,45.722,61.725Z" fill="#365615"/><path d="M37.262,88.84V79.8a.536.536,0,0,0-.537-.537H35.549a.536.536,0,0,0-.536.537V88.84a.536.536,0,0,0,.536.536h1.176A.536.536,0,0,0,37.262,88.84Z" fill="#365615"/><path d="M33.424,88.881V79.843a.537.537,0,0,0-.537-.537H31.711a.537.537,0,0,0-.536.537v9.038a.536.536,0,0,0,.536.536h1.176A.536.536,0,0,0,33.424,88.881Z" fill="#365615"/><path d="M45.763,88.881V79.843a.537.537,0,0,0-.536-.537H44.051a.537.537,0,0,0-.537.537v9.038a.536.536,0,0,0,.537.536h1.176A.536.536,0,0,0,45.763,88.881Z" fill="#f2f2f2"/><path d="M35.735,75.943a2.317,2.317,0,1,0-2.146-2.311A2.233,2.233,0,0,0,35.735,75.943Z" fill="#f2f2f2"/><path d="M23.354,82.278H20.733a.7.7,0,0,1-.7-.619V69.567a.7.7,0,0,1,.7-.7h2.621Z" fill="#3b3b3b"/><path d="M51.789,107.005H54.41a.7.7,0,0,1,.7.7v7.223a.7.7,0,0,1-.7.7H51.789Z" fill="#ffca00"/><path d="M51.789,119.571H54.41a.7.7,0,0,1,.7.7v12.092a.7.7,0,0,1-.7.7H51.789Z" fill="#ffca00"/><path d="M50.365,104.1H24.819a1.425,1.425,0,0,0-1.424,1.424v28.1a1.425,1.425,0,0,0,1.424,1.424H50.365a1.424,1.424,0,0,0,1.424-1.424v-28.1A1.424,1.424,0,0,0,50.365,104.1Z" fill="url(#linear-gradient-4)"/><path d="M31.175,127.619H29.709a.422.422,0,0,1-.156-.039.407.407,0,0,1-.129-.1.412.412,0,0,1-.083-.139.43.43,0,0,1-.024-.159v-17.23a.416.416,0,0,1,.024-.157.39.39,0,0,1,.084-.134.38.38,0,0,1,.13-.09.39.39,0,0,1,.154-.032h3.983a.4.4,0,0,1,.155.032.389.389,0,0,1,.13.09.373.373,0,0,1,.083.134.38.38,0,0,1,.024.157.41.41,0,0,1-.023.159.447.447,0,0,1-.083.139.415.415,0,0,1-.13.1.422.422,0,0,1-.156.039H30.1v16.363h1.073a.422.422,0,0,1,.286.136.419.419,0,0,1,.106.3.437.437,0,0,1-.112.292A.431.431,0,0,1,31.175,127.619Z" fill="#b4ec36"/><path d="M31.381,129.724h-3.3a.41.41,0,0,1-.285-.135.418.418,0,0,1-.107-.3l-.268-21.316a.416.416,0,0,1,.029-.168.427.427,0,0,1,.095-.142.327.327,0,0,1,.119-.093.335.335,0,0,1,.149-.031h5.881v.846H28.224l.248,20.47h2.909Z" fill="#b4ec36"/><path d="M43.762,127.825H40.481a.387.387,0,0,1-.16-.041.392.392,0,0,1-.129-.1.372.372,0,0,1-.094-.131.39.39,0,0,1-.03-.158V117.3a.4.4,0,0,1,.024-.157.375.375,0,0,1,.084-.134.363.363,0,0,1,.129-.09.4.4,0,0,1,.155-.032h1.878v-4.643h.784v5.035a.413.413,0,0,1-.371.433H40.873v9.121h2.889Z" fill="#b4ec36"/><path d="M45.722,105.725h-11.6a.537.537,0,0,0-.536.537v5.344a.536.536,0,0,0,.536.537h11.6a.536.536,0,0,0,.537-.537v-5.344A.537.537,0,0,0,45.722,105.725Z" fill="#365615"/><path d="M37.262,132.84V123.8a.536.536,0,0,0-.537-.537H35.549a.536.536,0,0,0-.536.537v9.038a.536.536,0,0,0,.536.536h1.176A.536.536,0,0,0,37.262,132.84Z" fill="#365615"/><path d="M33.424,132.881v-9.038a.537.537,0,0,0-.537-.537H31.711a.537.537,0,0,0-.536.537v9.038a.537.537,0,0,0,.536.537h1.176A.537.537,0,0,0,33.424,132.881Z" fill="#365615"/><path d="M45.763,132.881v-9.038a.537.537,0,0,0-.536-.537H44.051a.537.537,0,0,0-.537.537v9.038a.537.537,0,0,0,.537.537h1.176A.537.537,0,0,0,45.763,132.881Z" fill="#f2f2f2"/><path d="M35.735,119.943a2.317,2.317,0,1,0-2.146-2.311A2.233,2.233,0,0,0,35.735,119.943Z" fill="#f2f2f2"/><path d="M23.354,126.278H20.733a.7.7,0,0,1-.7-.619V113.567a.7.7,0,0,1,.7-.7h2.621Z" fill="#3b3b3b"/><path d="M51.789,151.005H54.41a.7.7,0,0,1,.7.7v7.223a.7.7,0,0,1-.7.7H51.789Z" fill="#ffca00"/><path d="M51.789,163.571H54.41a.7.7,0,0,1,.7.7v12.092a.7.7,0,0,1-.7.7H51.789Z" fill="#ffca00"/><path d="M50.365,148.1H24.819a1.425,1.425,0,0,0-1.424,1.424v28.1a1.425,1.425,0,0,0,1.424,1.424H50.365a1.424,1.424,0,0,0,1.424-1.424v-28.1A1.424,1.424,0,0,0,50.365,148.1Z" fill="url(#linear-gradient-5)"/><path d="M31.175,171.619H29.709a.422.422,0,0,1-.156-.039.407.407,0,0,1-.129-.1.412.412,0,0,1-.083-.139.43.43,0,0,1-.024-.159v-17.23a.416.416,0,0,1,.024-.157.39.39,0,0,1,.084-.134.38.38,0,0,1,.13-.09.39.39,0,0,1,.154-.032h3.983a.4.4,0,0,1,.155.032.389.389,0,0,1,.13.09.373.373,0,0,1,.083.134.38.38,0,0,1,.024.157.41.41,0,0,1-.023.159.447.447,0,0,1-.083.139.415.415,0,0,1-.13.1.422.422,0,0,1-.156.039H30.1v16.363h1.073a.422.422,0,0,1,.286.136.419.419,0,0,1,.106.3.437.437,0,0,1-.112.292A.431.431,0,0,1,31.175,171.619Z" fill="#b4ec36"/><path d="M31.381,173.724h-3.3a.41.41,0,0,1-.285-.135.418.418,0,0,1-.107-.3l-.268-21.316a.416.416,0,0,1,.029-.168.427.427,0,0,1,.095-.142.327.327,0,0,1,.119-.093.335.335,0,0,1,.149-.031h5.881v.846H28.224l.248,20.47h2.909Z" fill="#b4ec36"/><path d="M43.762,171.825H40.481a.387.387,0,0,1-.16-.041.392.392,0,0,1-.129-.1.372.372,0,0,1-.094-.131.39.39,0,0,1-.03-.158V161.3a.4.4,0,0,1,.024-.157.375.375,0,0,1,.084-.134.363.363,0,0,1,.129-.09.4.4,0,0,1,.155-.032h1.878v-4.643h.784v5.035a.413.413,0,0,1-.371.433H40.873v9.121h2.889Z" fill="#b4ec36"/><path d="M45.722,149.725h-11.6a.537.537,0,0,0-.536.537v5.344a.536.536,0,0,0,.536.537h11.6a.536.536,0,0,0,.537-.537v-5.344A.537.537,0,0,0,45.722,149.725Z" fill="#365615"/><path d="M37.262,176.84V167.8a.536.536,0,0,0-.537-.537H35.549a.536.536,0,0,0-.536.537v9.038a.536.536,0,0,0,.536.536h1.176A.536.536,0,0,0,37.262,176.84Z" fill="#365615"/><path d="M33.424,176.881v-9.038a.537.537,0,0,0-.537-.537H31.711a.537.537,0,0,0-.536.537v9.038a.537.537,0,0,0,.536.537h1.176A.537.537,0,0,0,33.424,176.881Z" fill="#365615"/><path d="M45.763,176.881v-9.038a.537.537,0,0,0-.536-.537H44.051a.537.537,0,0,0-.537.537v9.038a.537.537,0,0,0,.537.537h1.176A.537.537,0,0,0,45.763,176.881Z" fill="#f2f2f2"/><path d="M35.735,163.943a2.317,2.317,0,1,0-2.146-2.311A2.233,2.233,0,0,0,35.735,163.943Z" fill="#f2f2f2"/><path d="M23.354,170.278H20.733a.7.7,0,0,1-.7-.619V157.567a.7.7,0,0,1,.7-.7h2.621Z" fill="#3b3b3b"/><rect x="0.5" y="0.5" width="239" height="194" fill="none" stroke="#b3b3b3" stroke-dasharray="2 2"/><path d="M139.067,40H112.933a.933.933,0,0,0-.933.933V67.067a.933.933,0,0,0,.933.933h26.134a.933.933,0,0,0,.933-.933V40.933A.933.933,0,0,0,139.067,40Z" fill="url(#linear-gradient-6)"/><path d="M119.826,44.474v2.307a.2.2,0,0,0,.015.076.192.192,0,0,0,.044.065.2.2,0,0,0,.065.043.2.2,0,0,0,.077.015H125.1a.2.2,0,0,1,.141.059.2.2,0,0,1,.058.141v2.44a.2.2,0,0,1-.058.141.2.2,0,0,1-.141.059h-5.074a.2.2,0,0,0-.077.015.2.2,0,0,0-.065.043.183.183,0,0,0-.044.065.2.2,0,0,0-.015.076v2.307a.2.2,0,0,1-.033.112.2.2,0,0,1-.09.074.2.2,0,0,1-.115.011.2.2,0,0,1-.1-.055l-3.926-3.926a.2.2,0,0,1-.044-.065.208.208,0,0,1-.016-.077.2.2,0,0,1,.06-.142l3.926-3.926a.2.2,0,0,1,.1-.055.2.2,0,0,1,.115.011.2.2,0,0,1,.09.074A.2.2,0,0,1,119.826,44.474Z" fill="#fff"/><path d="M119.826,55.674v2.307a.2.2,0,0,0,.015.076.183.183,0,0,0,.044.065.2.2,0,0,0,.065.043.2.2,0,0,0,.077.015H125.1a.2.2,0,0,1,.141.059.2.2,0,0,1,.058.142V60.82a.2.2,0,0,1-.058.141.2.2,0,0,1-.141.059h-5.074a.2.2,0,0,0-.077.015.2.2,0,0,0-.065.043.192.192,0,0,0-.044.065.2.2,0,0,0-.015.076v2.307a.2.2,0,0,1-.033.112.2.2,0,0,1-.09.074.2.2,0,0,1-.115.011.2.2,0,0,1-.1-.055l-3.926-3.926a.2.2,0,0,1-.06-.142.208.208,0,0,1,.016-.077.2.2,0,0,1,.044-.065l3.926-3.926a.2.2,0,0,1,.1-.055.2.2,0,0,1,.115.011.2.2,0,0,1,.09.074A.2.2,0,0,1,119.826,55.674Z" fill="#fff"/><path d="M132.515,44.332l3.926,3.926a.2.2,0,0,1,.06.142.208.208,0,0,1-.016.077.2.2,0,0,1-.044.065l-3.926,3.926a.2.2,0,0,1-.1.055.2.2,0,0,1-.115-.011.2.2,0,0,1-.09-.074.2.2,0,0,1-.033-.112V50.019a.2.2,0,0,0-.015-.076.183.183,0,0,0-.044-.065.216.216,0,0,0-.065-.043.2.2,0,0,0-.077-.015H126.9a.2.2,0,0,1-.141-.059.2.2,0,0,1-.058-.141V47.18a.2.2,0,0,1,.058-.141.2.2,0,0,1,.141-.059h5.074a.2.2,0,0,0,.077-.015.216.216,0,0,0,.065-.043.192.192,0,0,0,.044-.065.2.2,0,0,0,.015-.076V44.474a.2.2,0,0,1,.033-.112.2.2,0,0,1,.09-.074.2.2,0,0,1,.115-.011A.2.2,0,0,1,132.515,44.332Z" fill="#fff"/><path d="M132.515,55.532l3.926,3.926a.2.2,0,0,1,.044.065.208.208,0,0,1,.016.077.2.2,0,0,1-.06.142l-3.926,3.926a.2.2,0,0,1-.1.055.2.2,0,0,1-.115-.011.2.2,0,0,1-.09-.074.2.2,0,0,1-.033-.112V61.219a.2.2,0,0,0-.015-.076.192.192,0,0,0-.044-.065.216.216,0,0,0-.065-.043.2.2,0,0,0-.077-.015H126.9a.2.2,0,0,1-.141-.059.2.2,0,0,1-.058-.141V58.381a.2.2,0,0,1,.058-.142.2.2,0,0,1,.141-.059h5.074a.2.2,0,0,0,.077-.015.216.216,0,0,0,.065-.043.183.183,0,0,0,.044-.065.2.2,0,0,0,.015-.076V55.674a.2.2,0,0,1,.033-.112.2.2,0,0,1,.09-.074.2.2,0,0,1,.115-.011A.2.2,0,0,1,132.515,55.532Z" fill="#fff"/><path d="M139.067,128H112.933a.933.933,0,0,0-.933.933v26.134a.933.933,0,0,0,.933.933h26.134a.933.933,0,0,0,.933-.933V128.933A.933.933,0,0,0,139.067,128Z" fill="url(#linear-gradient-7)"/><path d="M119.826,132.474v2.307a.2.2,0,0,0,.015.076.2.2,0,0,0,.044.065.2.2,0,0,0,.065.043.2.2,0,0,0,.077.015H125.1a.2.2,0,0,1,.141.059.2.2,0,0,1,.058.141v2.439a.2.2,0,0,1-.2.2h-5.074a.2.2,0,0,0-.077.015.189.189,0,0,0-.065.043.183.183,0,0,0-.044.065.2.2,0,0,0-.015.076v2.307a.2.2,0,0,1-.033.112.2.2,0,0,1-.09.074.2.2,0,0,1-.115.011.2.2,0,0,1-.1-.055l-3.926-3.927a.188.188,0,0,1-.044-.064.208.208,0,0,1-.016-.077.2.2,0,0,1,.06-.142l3.926-3.926a.2.2,0,0,1,.1-.055.2.2,0,0,1,.115.011.2.2,0,0,1,.09.074A.2.2,0,0,1,119.826,132.474Z" fill="#fff"/><path d="M119.826,143.674v2.307a.2.2,0,0,0,.015.076.2.2,0,0,0,.044.065.2.2,0,0,0,.065.043.2.2,0,0,0,.077.015H125.1a.2.2,0,0,1,.141.059.2.2,0,0,1,.058.141v2.439a.2.2,0,0,1-.2.2h-5.074a.2.2,0,0,0-.077.015.189.189,0,0,0-.065.043.183.183,0,0,0-.044.065.2.2,0,0,0-.015.076v2.307a.2.2,0,0,1-.033.112.2.2,0,0,1-.09.074.2.2,0,0,1-.115.011.2.2,0,0,1-.1-.055l-3.926-3.927a.188.188,0,0,1-.044-.064.208.208,0,0,1-.016-.077.2.2,0,0,1,.06-.142l3.926-3.926a.2.2,0,0,1,.1-.055.2.2,0,0,1,.205.085A.2.2,0,0,1,119.826,143.674Z" fill="#fff"/><path d="M132.515,132.332l3.926,3.926a.2.2,0,0,1,.06.142.208.208,0,0,1-.016.077.188.188,0,0,1-.044.064l-3.926,3.927a.2.2,0,0,1-.1.055.2.2,0,0,1-.115-.011.2.2,0,0,1-.09-.074.2.2,0,0,1-.033-.112v-2.307a.2.2,0,0,0-.015-.076.183.183,0,0,0-.044-.065.2.2,0,0,0-.142-.058H126.9a.2.2,0,0,1-.141-.059.2.2,0,0,1-.058-.142V135.18a.2.2,0,0,1,.058-.141.2.2,0,0,1,.141-.059h5.074a.2.2,0,0,0,.077-.015.216.216,0,0,0,.065-.043.2.2,0,0,0,.044-.065.2.2,0,0,0,.015-.076v-2.307a.2.2,0,0,1,.033-.112.2.2,0,0,1,.09-.074.2.2,0,0,1,.115-.011A.2.2,0,0,1,132.515,132.332Z" fill="#fff"/><path d="M132.515,143.532l3.926,3.926a.2.2,0,0,1,.06.142.208.208,0,0,1-.016.077.188.188,0,0,1-.044.064l-3.926,3.927a.2.2,0,0,1-.1.055.2.2,0,0,1-.115-.011.2.2,0,0,1-.09-.074.2.2,0,0,1-.033-.112v-2.307a.2.2,0,0,0-.015-.076.183.183,0,0,0-.044-.065.2.2,0,0,0-.142-.058H126.9a.2.2,0,0,1-.141-.059.2.2,0,0,1-.058-.142V146.38a.2.2,0,0,1,.058-.141.2.2,0,0,1,.141-.059h5.074a.2.2,0,0,0,.077-.015.216.216,0,0,0,.065-.043.2.2,0,0,0,.044-.065.2.2,0,0,0,.015-.076v-2.307a.2.2,0,0,1,.033-.112.2.2,0,0,1,.205-.085A.2.2,0,0,1,132.515,143.532Z" fill="#fff"/><path d="M204.882,33H181.831a.831.831,0,0,0-.831.831V48.669a.831.831,0,0,0,.831.831h23.051a.831.831,0,0,0,.831-.831V33.831A.831.831,0,0,0,204.882,33Z" fill="#005ba1"/><path d="M197.476,38.842v4.816l-4.107,2.395V41.262Z" fill="#50e6ff"/><path d="M197.475,38.842l-4.106,2.42-4.131-2.42,4.131-2.42Z" fill="#c3f1ff"/><path d="M193.369,41.262v4.791l-4.131-2.395V38.842Z" fill="#9cebff"/><path d="M213.587,42.46H190.535a.831.831,0,0,0-.831.831V58.129a.831.831,0,0,0,.831.831h23.052a.831.831,0,0,0,.831-.831V43.291A.831.831,0,0,0,213.587,42.46Z" fill="#0078d4"/><path d="M206.18,48.327v4.791l-4.107,2.42V50.722Z" fill="#50e6ff"/><path d="M206.18,48.327l-4.107,2.4-4.131-2.4,4.131-2.42Z" fill="#c3f1ff"/><path d="M202.073,50.722v4.816l-4.131-2.42V48.327Z" fill="#9cebff"/><path d="M221.724,51.651H198.673a.831.831,0,0,0-.831.831V67.32a.831.831,0,0,0,.831.831h23.051a.831.831,0,0,0,.831-.831V52.482A.831.831,0,0,0,221.724,51.651Z" fill="url(#linear-gradient-8)"/><path d="M214.318,57.518v4.791l-4.107,2.42V59.913Z" fill="#50e6ff"/><path d="M214.318,57.518l-4.107,2.42-4.131-2.42,4.131-2.42Z" fill="#c3f1ff"/><path d="M210.211,59.938v4.791l-4.131-2.42V57.518Z" fill="#9cebff"/><path d="M206.08,62.309l4.131-2.4v4.816Z" fill="#c3f1ff"/><path d="M214.318,62.309l-4.107-2.4v4.816Z" fill="#9cebff"/><path d="M215.149,73.162c-2.445-.391-2.445-2.151-2.445-4.889h-4.888c0,2.836,0,4.6-2.445,4.889a1.442,1.442,0,0,0-1.222,1.393h12.222a1.442,1.442,0,0,0-1.222-1.393Z" fill="url(#linear-gradient-9)"/><circle cx="143.5" cy="53.5" r="1.5" fill="#b3b3b3"/><path d="M182,53.5a1.5,1.5,0,1,1-1.5-1.5A1.5,1.5,0,0,1,182,53.5Z" fill="#b3b3b3"/><path d="M143.5,54h37V53h-37Z" fill="#b3b3b3"/><ellipse cx="185.592" cy="141.5" rx="1.408" ry="1.5" fill="#b3b3b3"/><ellipse cx="142.408" cy="141.5" rx="1.408" ry="1.5" fill="#b3b3b3"/><path d="M185.592,141H142.408v1h43.184Z" fill="#b3b3b3"/><circle cx="108.5" cy="50.5" r="1.5" fill="#b3b3b3"/><circle cx="58.5" cy="32.5" r="1.5" fill="#b3b3b3"/><path d="M75.5,50.5H75a.5.5,0,0,0,.5.5Zm0-18H76a.5.5,0,0,0-.5-.5Zm33,17.5h-33v1h33ZM76,50.5v-18H75v18ZM75.5,32h-17v1h17Z" fill="#b3b3b3"/><circle cx="108.5" cy="138.5" r="1.5" fill="#b3b3b3"/><circle cx="58.5" cy="120.5" r="1.5" fill="#b3b3b3"/><path d="M75.5,138.5H75a.5.5,0,0,0,.5.5Zm0-18H76a.5.5,0,0,0-.5-.5Zm33,17.5h-33v1h33Zm-32.5.5v-18H75v18ZM75.5,120h-17v1h17Z" fill="#b3b3b3"/><circle cx="108.5" cy="58.5" r="1.5" fill="#b3b3b3"/><circle cx="58.5" cy="75.5" r="1.5" fill="#b3b3b3"/><path d="M75.5,58.5V58a.5.5,0,0,0-.5.5Zm0,17V76a.5.5,0,0,0,.5-.5Zm33-17.5h-33v1h33Zm-33,17h-17v1h17ZM75,58.5v17h1v-17Z" fill="#b3b3b3"/><circle cx="108.5" cy="146.5" r="1.5" fill="#b3b3b3"/><circle cx="58.5" cy="163.5" r="1.5" fill="#b3b3b3"/><path d="M75.5,146.5V146a.5.5,0,0,0-.5.5Zm0,17v.5a.5.5,0,0,0,.5-.5Zm33-17.5h-33v1h33Zm-33,17h-17v1h17ZM75,146.5v17h1v-17Z" fill="#b3b3b3"/></svg>