<svg id="Layer_1" data-name="Layer 1" xmlns="http://www.w3.org/2000/svg" xmlns:xlink="http://www.w3.org/1999/xlink" viewBox="0 0 240 195"><defs><clipPath id="clip-path"><rect x="182" y="121" width="40" height="40" fill="none"/></clipPath><linearGradient id="linear-gradient" x1="-85" y1="1415.035" x2="-85" y2="1375.032" gradientTransform="matrix(1, 0, 0, -1, 287, 1536.034)" gradientUnits="userSpaceOnUse"><stop offset="0" stop-color="#b3b2b3"/><stop offset="0.375" stop-color="#afaeaf"/><stop offset="0.763" stop-color="#a2a2a2"/><stop offset="1" stop-color="#979797"/></linearGradient><linearGradient id="linear-gradient-2" x1="-250.408" y1="1487.986" x2="-250.408" y2="1518.938" gradientTransform="matrix(1, 0, 0, -1, 287, 1536.034)" gradientUnits="userSpaceOnUse"><stop offset="0" stop-color="#5e9641"/><stop offset="0.34" stop-color="#6baa42"/><stop offset="0.67" stop-color="#73b743"/><stop offset="1" stop-color="#76bb43"/></linearGradient><linearGradient id="linear-gradient-3" x1="-250.408" y1="1443.986" x2="-250.408" y2="1474.938" xlink:href="#linear-gradient-2"/><linearGradient id="linear-gradient-4" x1="-250.408" y1="1399.986" x2="-250.408" y2="1430.939" xlink:href="#linear-gradient-2"/><linearGradient id="linear-gradient-5" x1="-250.408" y1="1355.986" x2="-250.408" y2="1386.939" xlink:href="#linear-gradient-2"/><linearGradient id="linear-gradient-6" x1="-162" y1="1467.034" x2="-162" y2="1495.034" gradientTransform="matrix(1, 0, 0, -1, 287, 1536.034)" gradientUnits="userSpaceOnUse"><stop offset="0" stop-color="#0078d4"/><stop offset="0.776" stop-color="#5ea0ef"/></linearGradient><linearGradient id="linear-gradient-7" x1="-75.802" y1="1467.858" x2="-75.802" y2="1484.383" gradientTransform="matrix(1, 0, 0, -1, 287, 1536.034)" gradientUnits="userSpaceOnUse"><stop offset="0" stop-color="#0078d4"/><stop offset="0.82" stop-color="#5ea0ef"/></linearGradient><linearGradient id="linear-gradient-8" x1="-75.74" y1="1461.478" x2="-75.74" y2="1467.858" gradientTransform="matrix(1, 0, 0, -1, 287, 1536.034)" gradientUnits="userSpaceOnUse"><stop offset="0.15" stop-color="#ccc"/><stop offset="1" stop-color="#707070"/></linearGradient></defs><g clip-path="url(#clip-path)"><path d="M214.984,159.644a1.429,1.429,0,0,1-1.5,1.356H190.513a1.429,1.429,0,0,1-1.5-1.356V122.356a1.429,1.429,0,0,1,1.5-1.356h22.974a1.429,1.429,0,0,1,1.5,1.356Z" fill="url(#linear-gradient)"/><path d="M192.833,138.111A2.977,2.977,0,0,1,195.656,135H208.58a3.119,3.119,0,0,1,0,6.222H195.656a2.976,2.976,0,0,1-2.823-3.111Z" fill="#003067"/><path d="M192.833,128.86a2.977,2.977,0,0,1,2.823-3.111H208.58a3.119,3.119,0,0,1,0,6.222H195.656a2.976,2.976,0,0,1-2.823-3.111Z" fill="#003067"/><path d="M196.464,130.947a2.087,2.087,0,1,0-2.086-2.087A2.087,2.087,0,0,0,196.464,130.947Z" fill="#50e6ff"/><path d="M196.464,140.187a2.087,2.087,0,1,0-2.086-2.087A2.087,2.087,0,0,0,196.464,140.187Z" fill="#50e6ff"/></g><path d="M50.789,20.005H53.41a.7.7,0,0,1,.7.7v7.223a.7.7,0,0,1-.7.7H50.789Z" fill="#ffca00"/><path d="M50.789,32.571H53.41a.7.7,0,0,1,.7.7V45.365a.7.7,0,0,1-.7.7H50.789Z" fill="#ffca00"/><path d="M49.365,17.1H23.819A1.425,1.425,0,0,0,22.4,18.519V46.624a1.425,1.425,0,0,0,1.424,1.424H49.365a1.424,1.424,0,0,0,1.424-1.424V18.519A1.424,1.424,0,0,0,49.365,17.1Z" fill="url(#linear-gradient-2)"/><path d="M30.175,40.619H28.709a.412.412,0,0,1-.368-.274.43.43,0,0,1-.024-.159V22.956a.416.416,0,0,1,.024-.157.4.4,0,0,1,.084-.134.38.38,0,0,1,.13-.09.39.39,0,0,1,.154-.032h3.983a.4.4,0,0,1,.155.032.389.389,0,0,1,.13.09.4.4,0,0,1,.107.291.41.41,0,0,1-.023.159.447.447,0,0,1-.083.139.415.415,0,0,1-.13.1.422.422,0,0,1-.156.039H29.1V39.752h1.073a.422.422,0,0,1,.286.136.411.411,0,0,1,.082.138.415.415,0,0,1,.024.16.441.441,0,0,1-.112.293A.434.434,0,0,1,30.175,40.619Z" fill="#b4ec36"/><path d="M30.381,42.724h-3.3a.41.41,0,0,1-.285-.135.418.418,0,0,1-.107-.3l-.268-21.316a.411.411,0,0,1,.124-.31.327.327,0,0,1,.119-.093.335.335,0,0,1,.149-.031h5.881v.846H27.224l.248,20.47h2.909Z" fill="#b4ec36"/><path d="M42.762,40.825H39.481a.387.387,0,0,1-.16-.041.392.392,0,0,1-.129-.1.372.372,0,0,1-.094-.131.39.39,0,0,1-.03-.158V30.3a.4.4,0,0,1,.024-.157.4.4,0,0,1,.213-.225.394.394,0,0,1,.155-.031h1.878V25.246h.784v5.035a.413.413,0,0,1-.371.433H39.873v9.121h2.889Z" fill="#b4ec36"/><path d="M44.722,18.725h-11.6a.536.536,0,0,0-.536.537v5.344a.536.536,0,0,0,.536.537h11.6a.536.536,0,0,0,.537-.537V19.262A.536.536,0,0,0,44.722,18.725Z" fill="#365615"/><path d="M36.262,45.84V36.8a.536.536,0,0,0-.537-.537H34.549a.536.536,0,0,0-.536.537V45.84a.536.536,0,0,0,.536.536h1.176A.536.536,0,0,0,36.262,45.84Z" fill="#365615"/><path d="M32.424,45.881V36.843a.537.537,0,0,0-.537-.537H30.711a.537.537,0,0,0-.536.537v9.038a.536.536,0,0,0,.536.536h1.176A.536.536,0,0,0,32.424,45.881Z" fill="#365615"/><path d="M44.763,45.881V36.843a.537.537,0,0,0-.536-.537H43.051a.537.537,0,0,0-.537.537v9.038a.536.536,0,0,0,.537.536h1.176A.536.536,0,0,0,44.763,45.881Z" fill="#f2f2f2"/><path d="M34.735,32.943a2.317,2.317,0,1,0-2.146-2.311A2.233,2.233,0,0,0,34.735,32.943Z" fill="#f2f2f2"/><path d="M22.354,39.278H19.733a.7.7,0,0,1-.7-.619V26.567a.7.7,0,0,1,.7-.7h2.621Z" fill="#3b3b3b"/><path d="M50.789,64.005H53.41a.7.7,0,0,1,.7.7v7.223a.7.7,0,0,1-.7.7H50.789Z" fill="#ffca00"/><path d="M50.789,76.571H53.41a.7.7,0,0,1,.7.7V89.365a.7.7,0,0,1-.7.7H50.789Z" fill="#ffca00"/><path d="M49.365,61.1H23.819A1.425,1.425,0,0,0,22.4,62.519v28.1a1.425,1.425,0,0,0,1.424,1.424H49.365a1.424,1.424,0,0,0,1.424-1.424v-28.1A1.424,1.424,0,0,0,49.365,61.1Z" fill="url(#linear-gradient-3)"/><path d="M30.175,84.619H28.709a.41.41,0,0,1-.285-.135.412.412,0,0,1-.083-.139.43.43,0,0,1-.024-.159V66.956a.416.416,0,0,1,.024-.157.4.4,0,0,1,.084-.134.38.38,0,0,1,.13-.09.39.39,0,0,1,.154-.032h3.983a.4.4,0,0,1,.155.032.389.389,0,0,1,.13.09.4.4,0,0,1,.107.291.41.41,0,0,1-.023.159.447.447,0,0,1-.083.139.415.415,0,0,1-.13.1.422.422,0,0,1-.156.039H29.1V83.752h1.073a.4.4,0,0,1,.156.04.422.422,0,0,1,.13.1.411.411,0,0,1,.082.138.415.415,0,0,1,.024.16.441.441,0,0,1-.112.293A.434.434,0,0,1,30.175,84.619Z" fill="#b4ec36"/><path d="M30.381,86.724h-3.3a.41.41,0,0,1-.285-.135.418.418,0,0,1-.107-.3l-.268-21.315a.416.416,0,0,1,.029-.168.427.427,0,0,1,.095-.142.327.327,0,0,1,.119-.093.335.335,0,0,1,.149-.031h5.881v.846H27.224l.248,20.47h2.909Z" fill="#b4ec36"/><path d="M42.762,84.825H39.481a.387.387,0,0,1-.16-.041.392.392,0,0,1-.129-.1.372.372,0,0,1-.094-.131.39.39,0,0,1-.03-.158V74.3a.4.4,0,0,1,.024-.156.375.375,0,0,1,.084-.134.363.363,0,0,1,.129-.09.378.378,0,0,1,.155-.032h1.878V69.246h.784v5.035a.413.413,0,0,1-.371.433H39.873v9.121h2.889Z" fill="#b4ec36"/><path d="M44.722,62.725h-11.6a.536.536,0,0,0-.536.537v5.344a.536.536,0,0,0,.536.537h11.6a.536.536,0,0,0,.537-.537V63.262A.536.536,0,0,0,44.722,62.725Z" fill="#365615"/><path d="M36.262,89.84V80.8a.536.536,0,0,0-.537-.537H34.549a.536.536,0,0,0-.536.537V89.84a.536.536,0,0,0,.536.536h1.176A.536.536,0,0,0,36.262,89.84Z" fill="#365615"/><path d="M32.424,89.881V80.843a.537.537,0,0,0-.537-.537H30.711a.537.537,0,0,0-.536.537v9.038a.537.537,0,0,0,.536.537h1.176A.537.537,0,0,0,32.424,89.881Z" fill="#365615"/><path d="M44.763,89.881V80.843a.537.537,0,0,0-.536-.537H43.051a.537.537,0,0,0-.537.537v9.038a.537.537,0,0,0,.537.537h1.176A.537.537,0,0,0,44.763,89.881Z" fill="#f2f2f2"/><path d="M34.735,76.943a2.317,2.317,0,1,0-2.146-2.311A2.233,2.233,0,0,0,34.735,76.943Z" fill="#f2f2f2"/><path d="M22.354,83.278H19.733a.7.7,0,0,1-.7-.619V70.567a.7.7,0,0,1,.7-.7h2.621Z" fill="#3b3b3b"/><path d="M50.789,108.005H53.41a.7.7,0,0,1,.7.7v7.223a.7.7,0,0,1-.7.7H50.789Z" fill="#ffca00"/><path d="M50.789,120.571H53.41a.7.7,0,0,1,.7.7v12.092a.7.7,0,0,1-.7.7H50.789Z" fill="#ffca00"/><path d="M49.365,105.1H23.819a1.425,1.425,0,0,0-1.424,1.424v28.1a1.425,1.425,0,0,0,1.424,1.424H49.365a1.424,1.424,0,0,0,1.424-1.424v-28.1A1.424,1.424,0,0,0,49.365,105.1Z" fill="url(#linear-gradient-4)"/><path d="M30.175,128.619H28.709a.422.422,0,0,1-.156-.039.407.407,0,0,1-.129-.1.412.412,0,0,1-.083-.139.43.43,0,0,1-.024-.159v-17.23a.416.416,0,0,1,.024-.157.39.39,0,0,1,.084-.134.38.38,0,0,1,.13-.09.39.39,0,0,1,.154-.032h3.983a.4.4,0,0,1,.155.032.389.389,0,0,1,.13.09.373.373,0,0,1,.083.134.38.38,0,0,1,.024.157.41.41,0,0,1-.023.159.447.447,0,0,1-.083.139.415.415,0,0,1-.13.1.422.422,0,0,1-.156.039H29.1v16.363h1.073a.422.422,0,0,1,.286.136.419.419,0,0,1,.106.3.437.437,0,0,1-.112.292A.431.431,0,0,1,30.175,128.619Z" fill="#b4ec36"/><path d="M30.381,130.724h-3.3a.41.41,0,0,1-.285-.135.418.418,0,0,1-.107-.3l-.268-21.316a.416.416,0,0,1,.029-.168.427.427,0,0,1,.095-.142.327.327,0,0,1,.119-.093.335.335,0,0,1,.149-.031h5.881v.846H27.224l.248,20.47h2.909Z" fill="#b4ec36"/><path d="M42.762,128.825H39.481a.387.387,0,0,1-.16-.041.392.392,0,0,1-.129-.1.372.372,0,0,1-.094-.131.39.39,0,0,1-.03-.158V118.3a.4.4,0,0,1,.024-.157.375.375,0,0,1,.084-.134.363.363,0,0,1,.129-.09.4.4,0,0,1,.155-.032h1.878v-4.643h.784v5.035a.413.413,0,0,1-.371.433H39.873v9.121h2.889Z" fill="#b4ec36"/><path d="M44.722,106.725h-11.6a.537.537,0,0,0-.536.537v5.344a.536.536,0,0,0,.536.537h11.6a.536.536,0,0,0,.537-.537v-5.344A.537.537,0,0,0,44.722,106.725Z" fill="#365615"/><path d="M36.262,133.84V124.8a.536.536,0,0,0-.537-.537H34.549a.536.536,0,0,0-.536.537v9.038a.536.536,0,0,0,.536.536h1.176A.536.536,0,0,0,36.262,133.84Z" fill="#365615"/><path d="M32.424,133.881v-9.038a.537.537,0,0,0-.537-.537H30.711a.537.537,0,0,0-.536.537v9.038a.537.537,0,0,0,.536.537h1.176A.537.537,0,0,0,32.424,133.881Z" fill="#365615"/><path d="M44.763,133.881v-9.038a.537.537,0,0,0-.536-.537H43.051a.537.537,0,0,0-.537.537v9.038a.537.537,0,0,0,.537.537h1.176A.537.537,0,0,0,44.763,133.881Z" fill="#f2f2f2"/><path d="M34.735,120.943a2.317,2.317,0,1,0-2.146-2.311A2.233,2.233,0,0,0,34.735,120.943Z" fill="#f2f2f2"/><path d="M22.354,127.278H19.733a.7.7,0,0,1-.7-.619V114.567a.7.7,0,0,1,.7-.7h2.621Z" fill="#3b3b3b"/><path d="M50.789,152.005H53.41a.7.7,0,0,1,.7.7v7.223a.7.7,0,0,1-.7.7H50.789Z" fill="#ffca00"/><path d="M50.789,164.571H53.41a.7.7,0,0,1,.7.7v12.092a.7.7,0,0,1-.7.7H50.789Z" fill="#ffca00"/><path d="M49.365,149.1H23.819a1.425,1.425,0,0,0-1.424,1.424v28.1a1.425,1.425,0,0,0,1.424,1.424H49.365a1.424,1.424,0,0,0,1.424-1.424v-28.1A1.424,1.424,0,0,0,49.365,149.1Z" fill="url(#linear-gradient-5)"/><path d="M30.175,172.619H28.709a.422.422,0,0,1-.156-.039.407.407,0,0,1-.129-.1.412.412,0,0,1-.083-.139.43.43,0,0,1-.024-.159v-17.23a.416.416,0,0,1,.024-.157.39.39,0,0,1,.084-.134.38.38,0,0,1,.13-.09.39.39,0,0,1,.154-.032h3.983a.4.4,0,0,1,.155.032.389.389,0,0,1,.13.09.373.373,0,0,1,.083.134.38.38,0,0,1,.024.157.41.41,0,0,1-.023.159.447.447,0,0,1-.083.139.415.415,0,0,1-.13.1.422.422,0,0,1-.156.039H29.1v16.363h1.073a.422.422,0,0,1,.286.136.419.419,0,0,1,.106.3.437.437,0,0,1-.112.292A.431.431,0,0,1,30.175,172.619Z" fill="#b4ec36"/><path d="M30.381,174.724h-3.3a.41.41,0,0,1-.285-.135.418.418,0,0,1-.107-.3l-.268-21.316a.416.416,0,0,1,.029-.168.427.427,0,0,1,.095-.142.327.327,0,0,1,.119-.093.335.335,0,0,1,.149-.031h5.881v.846H27.224l.248,20.47h2.909Z" fill="#b4ec36"/><path d="M42.762,172.825H39.481a.387.387,0,0,1-.16-.041.392.392,0,0,1-.129-.1.372.372,0,0,1-.094-.131.39.39,0,0,1-.03-.158V162.3a.4.4,0,0,1,.024-.157.375.375,0,0,1,.084-.134.363.363,0,0,1,.129-.09.4.4,0,0,1,.155-.032h1.878v-4.643h.784v5.035a.413.413,0,0,1-.371.433H39.873v9.121h2.889Z" fill="#b4ec36"/><path d="M44.722,150.725h-11.6a.537.537,0,0,0-.536.537v5.344a.536.536,0,0,0,.536.537h11.6a.536.536,0,0,0,.537-.537v-5.344A.537.537,0,0,0,44.722,150.725Z" fill="#365615"/><path d="M36.262,177.84V168.8a.536.536,0,0,0-.537-.537H34.549a.536.536,0,0,0-.536.537v9.038a.536.536,0,0,0,.536.536h1.176A.536.536,0,0,0,36.262,177.84Z" fill="#365615"/><path d="M32.424,177.881v-9.038a.537.537,0,0,0-.537-.537H30.711a.537.537,0,0,0-.536.537v9.038a.537.537,0,0,0,.536.537h1.176A.537.537,0,0,0,32.424,177.881Z" fill="#365615"/><path d="M44.763,177.881v-9.038a.537.537,0,0,0-.536-.537H43.051a.537.537,0,0,0-.537.537v9.038a.537.537,0,0,0,.537.537h1.176A.537.537,0,0,0,44.763,177.881Z" fill="#f2f2f2"/><path d="M34.735,164.943a2.317,2.317,0,1,0-2.146-2.311A2.233,2.233,0,0,0,34.735,164.943Z" fill="#f2f2f2"/><path d="M22.354,171.278H19.733a.7.7,0,0,1-.7-.619V158.567a.7.7,0,0,1,.7-.7h2.621Z" fill="#3b3b3b"/><rect x="0.5" y="0.5" width="239" height="194" fill="none" stroke="#b3b3b3" stroke-dasharray="2 2"/><path d="M138.067,41H111.933a.933.933,0,0,0-.933.933V68.067a.933.933,0,0,0,.933.933h26.134a.933.933,0,0,0,.933-.933V41.933A.933.933,0,0,0,138.067,41Z" fill="url(#linear-gradient-6)"/><path d="M118.826,45.474v2.307a.2.2,0,0,0,.015.076.192.192,0,0,0,.044.065.2.2,0,0,0,.065.043.2.2,0,0,0,.077.015H124.1a.2.2,0,0,1,.141.059.2.2,0,0,1,.058.141v2.44a.2.2,0,0,1-.058.141.2.2,0,0,1-.141.059h-5.074a.2.2,0,0,0-.077.015.2.2,0,0,0-.065.043.183.183,0,0,0-.044.065.2.2,0,0,0-.015.076v2.307a.2.2,0,0,1-.033.112.2.2,0,0,1-.09.074.2.2,0,0,1-.115.011.2.2,0,0,1-.1-.055l-3.926-3.926a.2.2,0,0,1-.044-.065.208.208,0,0,1-.016-.077.2.2,0,0,1,.06-.142l3.926-3.926a.2.2,0,0,1,.1-.055.2.2,0,0,1,.115.011.2.2,0,0,1,.09.074A.2.2,0,0,1,118.826,45.474Z" fill="#fff"/><path d="M118.826,56.674v2.307a.2.2,0,0,0,.015.076.183.183,0,0,0,.044.065.2.2,0,0,0,.065.043.2.2,0,0,0,.077.015H124.1a.2.2,0,0,1,.141.059.2.2,0,0,1,.058.142V61.82a.2.2,0,0,1-.058.141.2.2,0,0,1-.141.059h-5.074a.2.2,0,0,0-.077.015.2.2,0,0,0-.065.043.192.192,0,0,0-.044.065.2.2,0,0,0-.015.076v2.307a.2.2,0,0,1-.033.112.2.2,0,0,1-.09.074.2.2,0,0,1-.115.011.2.2,0,0,1-.1-.055l-3.926-3.926a.2.2,0,0,1-.06-.142.208.208,0,0,1,.016-.077.2.2,0,0,1,.044-.065l3.926-3.926a.2.2,0,0,1,.1-.055.2.2,0,0,1,.115.011.2.2,0,0,1,.09.074A.2.2,0,0,1,118.826,56.674Z" fill="#fff"/><path d="M131.515,45.332l3.926,3.926a.2.2,0,0,1,.06.142.208.208,0,0,1-.016.077.2.2,0,0,1-.044.065l-3.926,3.926a.2.2,0,0,1-.1.055.2.2,0,0,1-.115-.011.2.2,0,0,1-.09-.074.2.2,0,0,1-.033-.112V51.019a.2.2,0,0,0-.015-.076.183.183,0,0,0-.044-.065.216.216,0,0,0-.065-.043.2.2,0,0,0-.077-.015H125.9a.2.2,0,0,1-.141-.059.2.2,0,0,1-.058-.141V48.18a.2.2,0,0,1,.058-.141.2.2,0,0,1,.141-.059h5.074a.2.2,0,0,0,.077-.015.216.216,0,0,0,.065-.043.192.192,0,0,0,.044-.065.2.2,0,0,0,.015-.076V45.474a.2.2,0,0,1,.033-.112.2.2,0,0,1,.09-.074.2.2,0,0,1,.115-.011A.2.2,0,0,1,131.515,45.332Z" fill="#fff"/><path d="M131.515,56.532l3.926,3.926a.2.2,0,0,1,.044.065.208.208,0,0,1,.016.077.2.2,0,0,1-.06.142l-3.926,3.926a.2.2,0,0,1-.1.055.2.2,0,0,1-.115-.011.2.2,0,0,1-.09-.074.2.2,0,0,1-.033-.112V62.219a.2.2,0,0,0-.015-.076.192.192,0,0,0-.044-.065.216.216,0,0,0-.065-.043.2.2,0,0,0-.077-.015H125.9a.2.2,0,0,1-.141-.059.2.2,0,0,1-.058-.141V59.381a.2.2,0,0,1,.058-.142.2.2,0,0,1,.141-.059h5.074a.2.2,0,0,0,.077-.015.216.216,0,0,0,.065-.043.183.183,0,0,0,.044-.065.2.2,0,0,0,.015-.076V56.674a.2.2,0,0,1,.033-.112.2.2,0,0,1,.09-.074.2.2,0,0,1,.115-.011A.2.2,0,0,1,131.515,56.532Z" fill="#fff"/><path d="M205.882,33H182.831a.831.831,0,0,0-.831.831V48.669a.831.831,0,0,0,.831.831h23.051a.831.831,0,0,0,.831-.831V33.831A.831.831,0,0,0,205.882,33Z" fill="#005ba1"/><path d="M198.476,38.842v4.816l-4.107,2.395V41.262Z" fill="#50e6ff"/><path d="M198.475,38.842l-4.106,2.42-4.131-2.42,4.131-2.42Z" fill="#c3f1ff"/><path d="M194.369,41.262v4.791l-4.131-2.395V38.842Z" fill="#9cebff"/><path d="M214.587,42.46H191.535a.831.831,0,0,0-.831.831V58.129a.831.831,0,0,0,.831.831h23.052a.831.831,0,0,0,.831-.831V43.291A.831.831,0,0,0,214.587,42.46Z" fill="#0078d4"/><path d="M207.18,48.327v4.791l-4.107,2.42V50.722Z" fill="#50e6ff"/><path d="M207.18,48.327l-4.107,2.4-4.131-2.4,4.131-2.42Z" fill="#c3f1ff"/><path d="M203.073,50.722v4.816l-4.131-2.42V48.327Z" fill="#9cebff"/><path d="M222.724,51.651H199.673a.831.831,0,0,0-.831.831V67.32a.831.831,0,0,0,.831.831h23.051a.831.831,0,0,0,.831-.831V52.482A.831.831,0,0,0,222.724,51.651Z" fill="url(#linear-gradient-7)"/><path d="M215.318,57.518v4.791l-4.107,2.42V59.913Z" fill="#50e6ff"/><path d="M215.318,57.518l-4.107,2.42-4.131-2.42,4.131-2.42Z" fill="#c3f1ff"/><path d="M211.211,59.938v4.791l-4.131-2.42V57.518Z" fill="#9cebff"/><path d="M207.08,62.309l4.131-2.4v4.816Z" fill="#c3f1ff"/><path d="M215.318,62.309l-4.107-2.4v4.816Z" fill="#9cebff"/><path d="M216.149,73.162c-2.445-.391-2.445-2.151-2.445-4.889h-4.888c0,2.836,0,4.6-2.445,4.889a1.442,1.442,0,0,0-1.222,1.393h12.222a1.442,1.442,0,0,0-1.222-1.393Z" fill="url(#linear-gradient-8)"/><circle cx="141.5" cy="54.5" r="1.5" fill="#b3b3b3"/><circle cx="180.5" cy="54.5" r="1.5" fill="#b3b3b3"/><path d="M141.5,55h39V54h-39Z" fill="#b3b3b3"/><circle cx="106.5" cy="51.5" r="1.5" fill="#b3b3b3"/><circle cx="56.5" cy="33.5" r="1.5" fill="#b3b3b3"/><path d="M73.5,51.5H73a.5.5,0,0,0,.5.5Zm0-18H74a.5.5,0,0,0-.5-.5Zm33,17.5h-33v1h33ZM74,51.5v-18H73v18ZM73.5,33h-17v1h17Z" fill="#b3b3b3"/><circle cx="183.5" cy="139.5" r="1.5" fill="#b3b3b3"/><circle cx="56.5" cy="121.5" r="1.5" fill="#b3b3b3"/><path d="M73.5,139.5H73a.5.5,0,0,0,.5.5Zm0-18H74a.5.5,0,0,0-.5-.5Zm109,17.5H73.5v1h109ZM74,139.5v-18H73v18ZM73.5,121h-17v1h17Z" fill="#b3b3b3"/><circle cx="106.5" cy="59.5" r="1.5" fill="#b3b3b3"/><circle cx="56.5" cy="76.5" r="1.5" fill="#b3b3b3"/><path d="M73.5,59.5V59a.5.5,0,0,0-.5.5Zm0,17V77a.5.5,0,0,0,.5-.5Zm33-17.5h-33v1h33Zm-33,17h-17v1h17ZM73,59.5v17h1v-17Z" fill="#b3b3b3"/><circle cx="183.5" cy="147.5" r="1.5" fill="#b3b3b3"/><circle cx="56.5" cy="164.5" r="1.5" fill="#b3b3b3"/><path d="M73.5,147.5V147a.5.5,0,0,0-.5.5Zm0,17v.5a.5.5,0,0,0,.5-.5Zm109-17.5H73.5v1h109Zm-109,17h-17v1h17ZM73,147.5v17h1v-17Z" fill="#b3b3b3"/></svg>