<svg id="Layer_1" data-name="Layer 1" xmlns="http://www.w3.org/2000/svg" xmlns:xlink="http://www.w3.org/1999/xlink" viewBox="0 0 240 195"><defs><clipPath id="clip-path"><rect x="177" y="123" width="40" height="40" fill="none"/></clipPath><linearGradient id="linear-gradient" x1="-90" y1="1410.766" x2="-90" y2="1370.762" gradientTransform="matrix(1, 0, 0, -1, 287, 1533.764)" gradientUnits="userSpaceOnUse"><stop offset="0" stop-color="#b3b2b3"/><stop offset="0.375" stop-color="#afaeaf"/><stop offset="0.763" stop-color="#a2a2a2"/><stop offset="1" stop-color="#979797"/></linearGradient><linearGradient id="linear-gradient-2" x1="-252.408" y1="1486.716" x2="-252.408" y2="1517.669" gradientTransform="matrix(1, 0, 0, -1, 287, 1533.764)" gradientUnits="userSpaceOnUse"><stop offset="0" stop-color="#5e9641"/><stop offset="0.34" stop-color="#6baa42"/><stop offset="0.67" stop-color="#73b743"/><stop offset="1" stop-color="#76bb43"/></linearGradient><linearGradient id="linear-gradient-3" x1="-252.408" y1="1442.716" x2="-252.408" y2="1473.669" xlink:href="#linear-gradient-2"/><linearGradient id="linear-gradient-4" x1="-252.408" y1="1398.716" x2="-252.408" y2="1429.669" xlink:href="#linear-gradient-2"/><linearGradient id="linear-gradient-5" x1="-252.408" y1="1354.716" x2="-252.408" y2="1385.669" xlink:href="#linear-gradient-2"/><linearGradient id="linear-gradient-6" x1="-165" y1="1420.764" x2="-165" y2="1448.764" gradientTransform="matrix(1, 0, 0, -1, 287, 1533.764)" gradientUnits="userSpaceOnUse"><stop offset="0" stop-color="#0078d4"/><stop offset="0.776" stop-color="#5ea0ef"/></linearGradient><linearGradient id="linear-gradient-7" x1="-75.87" y1="1465.413" x2="-75.87" y2="1481.937" gradientTransform="matrix(1, 0, 0, -1, 287, 1533.764)" gradientUnits="userSpaceOnUse"><stop offset="0" stop-color="#0078d4"/><stop offset="0.82" stop-color="#5ea0ef"/></linearGradient><linearGradient id="linear-gradient-8" x1="-75.809" y1="1459.033" x2="-75.809" y2="1465.413" gradientTransform="matrix(1, 0, 0, -1, 287, 1533.764)" gradientUnits="userSpaceOnUse"><stop offset="0.15" stop-color="#ccc"/><stop offset="1" stop-color="#707070"/></linearGradient></defs><g clip-path="url(#clip-path)"><path d="M209.984,161.644a1.429,1.429,0,0,1-1.5,1.356H185.513a1.429,1.429,0,0,1-1.5-1.356V124.356a1.429,1.429,0,0,1,1.5-1.356h22.974a1.429,1.429,0,0,1,1.5,1.356Z" fill="url(#linear-gradient)"/><path d="M187.833,140.111A2.977,2.977,0,0,1,190.656,137H203.58a3.119,3.119,0,0,1,0,6.222H190.656a2.976,2.976,0,0,1-2.823-3.111Z" fill="#003067"/><path d="M187.833,130.86a2.977,2.977,0,0,1,2.823-3.111H203.58a3.119,3.119,0,0,1,0,6.222H190.656a2.976,2.976,0,0,1-2.823-3.111Z" fill="#003067"/><path d="M191.464,132.947a2.087,2.087,0,1,0-2.086-2.087A2.087,2.087,0,0,0,191.464,132.947Z" fill="#50e6ff"/><path d="M191.464,142.187a2.087,2.087,0,1,0-2.086-2.087A2.087,2.087,0,0,0,191.464,142.187Z" fill="#50e6ff"/></g><path d="M48.789,19.005H51.41a.7.7,0,0,1,.7.7v7.223a.7.7,0,0,1-.7.7H48.789Z" fill="#ffca00"/><path d="M48.789,31.571H51.41a.7.7,0,0,1,.7.7V44.365a.7.7,0,0,1-.7.7H48.789Z" fill="#ffca00"/><path d="M47.365,16.1H21.819A1.425,1.425,0,0,0,20.4,17.519V45.624a1.425,1.425,0,0,0,1.424,1.424H47.365a1.425,1.425,0,0,0,1.424-1.424V17.519A1.425,1.425,0,0,0,47.365,16.1Z" fill="url(#linear-gradient-2)"/><path d="M28.175,39.619H26.709a.412.412,0,0,1-.368-.274.43.43,0,0,1-.024-.159V21.956a.416.416,0,0,1,.024-.157.4.4,0,0,1,.084-.134.38.38,0,0,1,.13-.09.39.39,0,0,1,.154-.032h3.983a.4.4,0,0,1,.155.032.389.389,0,0,1,.13.09.4.4,0,0,1,.107.291.41.41,0,0,1-.023.159.447.447,0,0,1-.083.139.415.415,0,0,1-.13.1.422.422,0,0,1-.156.039H27.1V38.752h1.073a.422.422,0,0,1,.286.136.411.411,0,0,1,.082.138.415.415,0,0,1,.024.16.441.441,0,0,1-.112.293A.434.434,0,0,1,28.175,39.619Z" fill="#b4ec36"/><path d="M28.381,41.724h-3.3a.422.422,0,0,1-.156-.039.439.439,0,0,1-.13-.1.426.426,0,0,1-.082-.139.392.392,0,0,1-.024-.159l-.268-21.316a.411.411,0,0,1,.124-.31.327.327,0,0,1,.119-.093.335.335,0,0,1,.149-.031h5.881v.846H25.224l.247,20.47h2.91Z" fill="#b4ec36"/><path d="M40.762,39.825H37.481a.387.387,0,0,1-.16-.041.392.392,0,0,1-.129-.1.372.372,0,0,1-.094-.131.39.39,0,0,1-.03-.158V29.3a.4.4,0,0,1,.024-.157.4.4,0,0,1,.213-.225.394.394,0,0,1,.155-.031h1.878V24.246h.784v5.035a.413.413,0,0,1-.371.433H37.873v9.121h2.889Z" fill="#b4ec36"/><path d="M42.722,17.725h-11.6a.536.536,0,0,0-.536.537v5.344a.536.536,0,0,0,.536.537h11.6a.536.536,0,0,0,.537-.537V18.262A.536.536,0,0,0,42.722,17.725Z" fill="#365615"/><path d="M34.262,44.84V35.8a.536.536,0,0,0-.537-.537H32.549a.536.536,0,0,0-.536.537V44.84a.536.536,0,0,0,.536.536h1.176A.536.536,0,0,0,34.262,44.84Z" fill="#365615"/><path d="M30.424,44.881V35.843a.537.537,0,0,0-.537-.537H28.711a.537.537,0,0,0-.536.537v9.038a.536.536,0,0,0,.536.536h1.176A.536.536,0,0,0,30.424,44.881Z" fill="#365615"/><path d="M42.763,44.881V35.843a.537.537,0,0,0-.536-.537H41.051a.537.537,0,0,0-.537.537v9.038a.536.536,0,0,0,.537.536h1.176A.536.536,0,0,0,42.763,44.881Z" fill="#f2f2f2"/><path d="M32.735,31.943a2.317,2.317,0,1,0-2.146-2.311A2.233,2.233,0,0,0,32.735,31.943Z" fill="#f2f2f2"/><path d="M20.354,38.278H17.733a.7.7,0,0,1-.7-.619V25.567a.7.7,0,0,1,.7-.7h2.621Z" fill="#3b3b3b"/><path d="M48.789,63.005H51.41a.7.7,0,0,1,.7.7v7.223a.7.7,0,0,1-.7.7H48.789Z" fill="#ffca00"/><path d="M48.789,75.571H51.41a.7.7,0,0,1,.7.7V88.365a.7.7,0,0,1-.7.7H48.789Z" fill="#ffca00"/><path d="M47.365,60.1H21.819A1.425,1.425,0,0,0,20.4,61.519v28.1a1.425,1.425,0,0,0,1.424,1.424H47.365a1.425,1.425,0,0,0,1.424-1.424v-28.1A1.425,1.425,0,0,0,47.365,60.1Z" fill="url(#linear-gradient-3)"/><path d="M28.175,83.619H26.709a.41.41,0,0,1-.285-.135.412.412,0,0,1-.083-.139.43.43,0,0,1-.024-.159V65.956a.416.416,0,0,1,.024-.157.4.4,0,0,1,.084-.134.38.38,0,0,1,.13-.09.39.39,0,0,1,.154-.032h3.983a.4.4,0,0,1,.155.032.389.389,0,0,1,.13.09.4.4,0,0,1,.107.291.41.41,0,0,1-.023.159.447.447,0,0,1-.083.139.415.415,0,0,1-.13.1.422.422,0,0,1-.156.039H27.1V82.752h1.073a.4.4,0,0,1,.156.04.422.422,0,0,1,.13.1.411.411,0,0,1,.082.138.415.415,0,0,1,.024.16.441.441,0,0,1-.112.293A.434.434,0,0,1,28.175,83.619Z" fill="#b4ec36"/><path d="M28.381,85.724h-3.3a.422.422,0,0,1-.156-.039.439.439,0,0,1-.13-.1.426.426,0,0,1-.082-.139.4.4,0,0,1-.024-.16l-.268-21.315a.416.416,0,0,1,.029-.168.427.427,0,0,1,.095-.142.34.34,0,0,1,.119-.094.349.349,0,0,1,.149-.03h5.881v.846H25.224l.247,20.47h2.91Z" fill="#b4ec36"/><path d="M40.762,83.825H37.481a.387.387,0,0,1-.16-.041.392.392,0,0,1-.129-.1.372.372,0,0,1-.094-.131.39.39,0,0,1-.03-.158V73.3a.4.4,0,0,1,.024-.156.375.375,0,0,1,.084-.134.363.363,0,0,1,.129-.09.378.378,0,0,1,.155-.032h1.878V68.246h.784v5.035a.413.413,0,0,1-.371.433H37.873v9.121h2.889Z" fill="#b4ec36"/><path d="M42.722,61.725h-11.6a.536.536,0,0,0-.536.537v5.344a.536.536,0,0,0,.536.537h11.6a.536.536,0,0,0,.537-.537V62.262A.536.536,0,0,0,42.722,61.725Z" fill="#365615"/><path d="M34.262,88.84V79.8a.536.536,0,0,0-.537-.537H32.549a.536.536,0,0,0-.536.537V88.84a.536.536,0,0,0,.536.536h1.176A.536.536,0,0,0,34.262,88.84Z" fill="#365615"/><path d="M30.424,88.881V79.843a.537.537,0,0,0-.537-.537H28.711a.537.537,0,0,0-.536.537v9.038a.536.536,0,0,0,.536.536h1.176A.536.536,0,0,0,30.424,88.881Z" fill="#365615"/><path d="M42.763,88.881V79.843a.537.537,0,0,0-.536-.537H41.051a.537.537,0,0,0-.537.537v9.038a.536.536,0,0,0,.537.536h1.176A.536.536,0,0,0,42.763,88.881Z" fill="#f2f2f2"/><path d="M32.735,75.943a2.317,2.317,0,1,0-2.146-2.311A2.233,2.233,0,0,0,32.735,75.943Z" fill="#f2f2f2"/><path d="M20.354,82.278H17.733a.7.7,0,0,1-.7-.619V69.567a.7.7,0,0,1,.7-.7h2.621Z" fill="#3b3b3b"/><path d="M48.789,107.005H51.41a.7.7,0,0,1,.7.7v7.223a.7.7,0,0,1-.7.7H48.789Z" fill="#ffca00"/><path d="M48.789,119.571H51.41a.7.7,0,0,1,.7.7v12.092a.7.7,0,0,1-.7.7H48.789Z" fill="#ffca00"/><path d="M47.365,104.1H21.819a1.425,1.425,0,0,0-1.424,1.424v28.1a1.425,1.425,0,0,0,1.424,1.424H47.365a1.425,1.425,0,0,0,1.424-1.424v-28.1A1.425,1.425,0,0,0,47.365,104.1Z" fill="url(#linear-gradient-4)"/><path d="M28.175,127.619H26.709a.422.422,0,0,1-.156-.039.407.407,0,0,1-.129-.1.412.412,0,0,1-.083-.139.43.43,0,0,1-.024-.159v-17.23a.416.416,0,0,1,.024-.157.39.39,0,0,1,.084-.134.38.38,0,0,1,.13-.09.39.39,0,0,1,.154-.032h3.983a.4.4,0,0,1,.155.032.389.389,0,0,1,.13.09.373.373,0,0,1,.083.134.38.38,0,0,1,.024.157.41.41,0,0,1-.023.159.447.447,0,0,1-.083.139.415.415,0,0,1-.13.1.422.422,0,0,1-.156.039H27.1v16.363h1.073a.422.422,0,0,1,.286.136.419.419,0,0,1,.106.3.437.437,0,0,1-.112.292A.431.431,0,0,1,28.175,127.619Z" fill="#b4ec36"/><path d="M28.381,129.724h-3.3a.422.422,0,0,1-.156-.039.439.439,0,0,1-.13-.1.426.426,0,0,1-.082-.139.392.392,0,0,1-.024-.159l-.268-21.316a.416.416,0,0,1,.029-.168.427.427,0,0,1,.095-.142.327.327,0,0,1,.119-.093.335.335,0,0,1,.149-.031h5.881v.846H25.224l.247,20.47h2.91Z" fill="#b4ec36"/><path d="M40.762,127.825H37.481a.387.387,0,0,1-.16-.041.392.392,0,0,1-.129-.1.372.372,0,0,1-.094-.131.39.39,0,0,1-.03-.158V117.3a.4.4,0,0,1,.024-.157.375.375,0,0,1,.084-.134.363.363,0,0,1,.129-.09.4.4,0,0,1,.155-.032h1.878v-4.643h.784v5.035a.413.413,0,0,1-.371.433H37.873v9.121h2.889Z" fill="#b4ec36"/><path d="M42.722,105.725h-11.6a.537.537,0,0,0-.536.537v5.344a.536.536,0,0,0,.536.537h11.6a.536.536,0,0,0,.537-.537v-5.344A.537.537,0,0,0,42.722,105.725Z" fill="#365615"/><path d="M34.262,132.84V123.8a.536.536,0,0,0-.537-.537H32.549a.536.536,0,0,0-.536.537v9.038a.536.536,0,0,0,.536.536h1.176A.536.536,0,0,0,34.262,132.84Z" fill="#365615"/><path d="M30.424,132.881v-9.038a.537.537,0,0,0-.537-.537H28.711a.537.537,0,0,0-.536.537v9.038a.537.537,0,0,0,.536.537h1.176A.537.537,0,0,0,30.424,132.881Z" fill="#365615"/><path d="M42.763,132.881v-9.038a.537.537,0,0,0-.536-.537H41.051a.537.537,0,0,0-.537.537v9.038a.537.537,0,0,0,.537.537h1.176A.537.537,0,0,0,42.763,132.881Z" fill="#f2f2f2"/><path d="M32.735,119.943a2.317,2.317,0,1,0-2.146-2.311A2.233,2.233,0,0,0,32.735,119.943Z" fill="#f2f2f2"/><path d="M20.354,126.278H17.733a.7.7,0,0,1-.7-.619V113.567a.7.7,0,0,1,.7-.7h2.621Z" fill="#3b3b3b"/><path d="M48.789,151.005H51.41a.7.7,0,0,1,.7.7v7.223a.7.7,0,0,1-.7.7H48.789Z" fill="#ffca00"/><path d="M48.789,163.571H51.41a.7.7,0,0,1,.7.7v12.092a.7.7,0,0,1-.7.7H48.789Z" fill="#ffca00"/><path d="M47.365,148.1H21.819a1.425,1.425,0,0,0-1.424,1.424v28.1a1.425,1.425,0,0,0,1.424,1.424H47.365a1.425,1.425,0,0,0,1.424-1.424v-28.1A1.425,1.425,0,0,0,47.365,148.1Z" fill="url(#linear-gradient-5)"/><path d="M28.175,171.619H26.709a.422.422,0,0,1-.156-.039.407.407,0,0,1-.129-.1.412.412,0,0,1-.083-.139.43.43,0,0,1-.024-.159v-17.23a.416.416,0,0,1,.024-.157.39.39,0,0,1,.084-.134.38.38,0,0,1,.13-.09.39.39,0,0,1,.154-.032h3.983a.4.4,0,0,1,.155.032.389.389,0,0,1,.13.09.373.373,0,0,1,.083.134.38.38,0,0,1,.024.157.41.41,0,0,1-.023.159.447.447,0,0,1-.083.139.415.415,0,0,1-.13.1.422.422,0,0,1-.156.039H27.1v16.363h1.073a.422.422,0,0,1,.286.136.419.419,0,0,1,.106.3.437.437,0,0,1-.112.292A.431.431,0,0,1,28.175,171.619Z" fill="#b4ec36"/><path d="M28.381,173.724h-3.3a.422.422,0,0,1-.156-.039.439.439,0,0,1-.13-.1.426.426,0,0,1-.082-.139.392.392,0,0,1-.024-.159l-.268-21.316a.416.416,0,0,1,.029-.168.427.427,0,0,1,.095-.142.327.327,0,0,1,.119-.093.335.335,0,0,1,.149-.031h5.881v.846H25.224l.247,20.47h2.91Z" fill="#b4ec36"/><path d="M40.762,171.825H37.481a.387.387,0,0,1-.16-.041.392.392,0,0,1-.129-.1.372.372,0,0,1-.094-.131.39.39,0,0,1-.03-.158V161.3a.4.4,0,0,1,.024-.157.375.375,0,0,1,.084-.134.363.363,0,0,1,.129-.09.4.4,0,0,1,.155-.032h1.878v-4.643h.784v5.035a.413.413,0,0,1-.371.433H37.873v9.121h2.889Z" fill="#b4ec36"/><path d="M42.722,149.725h-11.6a.537.537,0,0,0-.536.537v5.344a.536.536,0,0,0,.536.537h11.6a.536.536,0,0,0,.537-.537v-5.344A.537.537,0,0,0,42.722,149.725Z" fill="#365615"/><path d="M34.262,176.84V167.8a.536.536,0,0,0-.537-.537H32.549a.536.536,0,0,0-.536.537v9.038a.536.536,0,0,0,.536.536h1.176A.536.536,0,0,0,34.262,176.84Z" fill="#365615"/><path d="M30.424,176.881v-9.038a.537.537,0,0,0-.537-.537H28.711a.537.537,0,0,0-.536.537v9.038a.537.537,0,0,0,.536.537h1.176A.537.537,0,0,0,30.424,176.881Z" fill="#365615"/><path d="M42.763,176.881v-9.038a.537.537,0,0,0-.536-.537H41.051a.537.537,0,0,0-.537.537v9.038a.537.537,0,0,0,.537.537h1.176A.537.537,0,0,0,42.763,176.881Z" fill="#f2f2f2"/><path d="M32.735,163.943a2.317,2.317,0,1,0-2.146-2.311A2.233,2.233,0,0,0,32.735,163.943Z" fill="#f2f2f2"/><path d="M20.354,170.278H17.733a.7.7,0,0,1-.7-.619V157.567a.7.7,0,0,1,.7-.7h2.621Z" fill="#3b3b3b"/><rect x="0.5" y="0.5" width="239" height="194" fill="none" stroke="#b3b3b3" stroke-dasharray="2 2"/><path d="M135.067,85H108.933a.933.933,0,0,0-.933.933v26.134a.933.933,0,0,0,.933.933h26.134a.933.933,0,0,0,.933-.933V85.933A.933.933,0,0,0,135.067,85Z" fill="url(#linear-gradient-6)"/><path d="M115.826,89.474v2.307a.2.2,0,0,0,.015.076.2.2,0,0,0,.044.065.2.2,0,0,0,.065.043.2.2,0,0,0,.077.015H121.1a.2.2,0,0,1,.2.2v2.439a.2.2,0,0,1-.2.2h-5.074a.2.2,0,0,0-.077.015.189.189,0,0,0-.065.043.192.192,0,0,0-.044.065.2.2,0,0,0-.015.076v2.307a.2.2,0,0,1-.033.112.2.2,0,0,1-.09.074.2.2,0,0,1-.115.011.2.2,0,0,1-.1-.055l-3.926-3.927a.188.188,0,0,1-.044-.064.208.208,0,0,1-.016-.077.2.2,0,0,1,.06-.142l3.926-3.926a.2.2,0,0,1,.1-.055.2.2,0,0,1,.205.085A.2.2,0,0,1,115.826,89.474Z" fill="#fff"/><path d="M115.826,100.674v2.307a.2.2,0,0,0,.015.076.2.2,0,0,0,.044.065.2.2,0,0,0,.065.043.2.2,0,0,0,.077.015H121.1a.2.2,0,0,1,.141.059.2.2,0,0,1,.058.141v2.439a.2.2,0,0,1-.2.2h-5.074a.2.2,0,0,0-.077.015.189.189,0,0,0-.065.043.183.183,0,0,0-.044.065.2.2,0,0,0-.015.076v2.307a.2.2,0,0,1-.033.112.2.2,0,0,1-.09.074.2.2,0,0,1-.115.011.2.2,0,0,1-.1-.055l-3.926-3.927a.188.188,0,0,1-.044-.064.208.208,0,0,1-.016-.077.2.2,0,0,1,.06-.142l3.926-3.926a.2.2,0,0,1,.1-.055.2.2,0,0,1,.205.085A.2.2,0,0,1,115.826,100.674Z" fill="#fff"/><path d="M128.515,89.332l3.926,3.926a.2.2,0,0,1,.06.142.208.208,0,0,1-.016.077.188.188,0,0,1-.044.064l-3.926,3.927a.2.2,0,0,1-.1.055.2.2,0,0,1-.115-.011.2.2,0,0,1-.09-.074.2.2,0,0,1-.033-.112V95.019a.2.2,0,0,0-.015-.076.192.192,0,0,0-.044-.065.2.2,0,0,0-.142-.058H122.9a.2.2,0,0,1-.141-.059.2.2,0,0,1-.058-.142V92.18a.2.2,0,0,1,.2-.2h5.074a.2.2,0,0,0,.077-.015.216.216,0,0,0,.065-.043.2.2,0,0,0,.044-.065.2.2,0,0,0,.015-.076V89.474a.2.2,0,0,1,.033-.112.2.2,0,0,1,.205-.085A.2.2,0,0,1,128.515,89.332Z" fill="#fff"/><path d="M128.515,100.532l3.926,3.926a.2.2,0,0,1,.06.142.208.208,0,0,1-.016.077.188.188,0,0,1-.044.064l-3.926,3.927a.2.2,0,0,1-.1.055.2.2,0,0,1-.115-.011.2.2,0,0,1-.09-.074.2.2,0,0,1-.033-.112v-2.307a.2.2,0,0,0-.015-.076.183.183,0,0,0-.044-.065.2.2,0,0,0-.142-.058H122.9a.2.2,0,0,1-.141-.059.2.2,0,0,1-.058-.142V103.38a.2.2,0,0,1,.058-.141.2.2,0,0,1,.141-.059h5.074a.2.2,0,0,0,.077-.015.216.216,0,0,0,.065-.043.2.2,0,0,0,.044-.065.2.2,0,0,0,.015-.076v-2.307a.2.2,0,0,1,.033-.112.2.2,0,0,1,.205-.085A.2.2,0,0,1,128.515,100.532Z" fill="#fff"/><path d="M205.813,33.176H182.762a.831.831,0,0,0-.831.831V48.845a.831.831,0,0,0,.831.831h23.051a.831.831,0,0,0,.831-.831V34.007A.831.831,0,0,0,205.813,33.176Z" fill="#005ba1"/><path d="M198.407,39.018v4.815l-4.107,2.4V41.438Z" fill="#50e6ff"/><path d="M198.406,39.018l-4.106,2.42-4.131-2.42L194.3,36.6Z" fill="#c3f1ff"/><path d="M194.3,41.438v4.791l-4.131-2.4V39.018Z" fill="#9cebff"/><path d="M214.518,42.636H191.467a.832.832,0,0,0-.832.831V58.305a.832.832,0,0,0,.832.831h23.051a.831.831,0,0,0,.831-.831V43.467A.831.831,0,0,0,214.518,42.636Z" fill="#0078d4"/><path d="M207.111,48.5v4.791l-4.106,2.42V50.9Z" fill="#50e6ff"/><path d="M207.111,48.5,203,50.9l-4.131-2.4L203,46.082Z" fill="#c3f1ff"/><path d="M203,50.9v4.815l-4.131-2.42V48.5Z" fill="#9cebff"/><path d="M222.655,51.827H199.6a.831.831,0,0,0-.831.831V67.5a.831.831,0,0,0,.831.832h23.051a.832.832,0,0,0,.832-.832V52.658A.832.832,0,0,0,222.655,51.827Z" fill="url(#linear-gradient-7)"/><path d="M215.249,57.693v4.792l-4.107,2.42V60.089Z" fill="#50e6ff"/><path d="M215.249,57.693l-4.107,2.42-4.131-2.42,4.131-2.42Z" fill="#c3f1ff"/><path d="M211.142,60.113v4.792l-4.131-2.42V57.693Z" fill="#9cebff"/><path d="M207.011,62.485l4.131-2.4v4.816Z" fill="#c3f1ff"/><path d="M215.249,62.485l-4.107-2.4v4.816Z" fill="#9cebff"/><path d="M216.08,73.338c-2.444-.391-2.444-2.151-2.444-4.889h-4.889c0,2.835,0,4.595-2.445,4.889a1.442,1.442,0,0,0-1.222,1.393H217.3a1.44,1.44,0,0,0-1.222-1.393Z" fill="url(#linear-gradient-8)"/><circle cx="55.5" cy="34.5" r="1.5" fill="#b3b3b3"/><circle cx="105.5" cy="87.5" r="1.5" fill="#b3b3b3"/><path d="M80.5,34.5H81a.5.5,0,0,0-.5-.5Zm0,53H80a.5.5,0,0,0,.5.5ZM55.5,35h25V34h-25ZM80,34.5v53h1v-53ZM80.5,88h25V87h-25Z" fill="#b3b3b3"/><circle cx="105.5" cy="95.5" r="1.5" fill="#b3b3b3"/><circle cx="55.5" cy="77.5" r="1.5" fill="#b3b3b3"/><path d="M72.5,95.5H72a.5.5,0,0,0,.5.5Zm0-18H73a.5.5,0,0,0-.5-.5Zm33,17.5h-33v1h33ZM73,95.5v-18H72v18ZM72.5,77h-17v1h17Z" fill="#b3b3b3"/><circle cx="105.5" cy="103.5" r="1.5" fill="#b3b3b3"/><circle cx="55.5" cy="120.5" r="1.5" fill="#b3b3b3"/><path d="M72.5,103.5V103a.5.5,0,0,0-.5.5Zm0,17v.5a.5.5,0,0,0,.5-.5Zm33-17.5h-33v1h33Zm-33,17h-17v1h17ZM72,103.5v17h1v-17Z" fill="#b3b3b3"/><circle cx="105.5" cy="111.5" r="1.5" fill="#b3b3b3"/><circle cx="55.5" cy="163.5" r="1.5" fill="#b3b3b3"/><path d="M80.5,111.5V111a.5.5,0,0,0-.5.5Zm0,52v.5a.5.5,0,0,0,.5-.5Zm25-52.5h-25v1h25Zm-25.5.5v52h1v-52Zm.5,51.5h-25v1h25Z" fill="#b3b3b3"/><circle cx="139.5" cy="99.5" r="1.5" fill="#b3b3b3"/><circle cx="177.5" cy="54.5" r="1.5" fill="#b3b3b3"/><path d="M158.5,99.5v.5a.5.5,0,0,0,.5-.5Zm0-45V54a.5.5,0,0,0-.5.5Zm-19,45.5h19V99h-19Zm19.5-.5v-45h-1v45ZM158.5,55h19V54h-19Z" fill="#b3b3b3"/><circle cx="177.5" cy="143.5" r="1.5" fill="#b3b3b3"/><circle cx="139.5" cy="99.5" r="1.5" fill="#b3b3b3"/><path d="M158.5,143.5H158a.5.5,0,0,0,.5.5Zm0-44h.5a.5.5,0,0,0-.5-.5Zm19,43.5h-19v1h19Zm-18.5.5v-44h-1v44ZM158.5,99h-19v1h19Z" fill="#b3b3b3"/></svg>