<svg xmlns="http://www.w3.org/2000/svg" width="18" height="18" viewBox="0 0 18 18">
  <defs>
    <linearGradient id="a916a650-d068-4dfa-ae34-e4f0afd67aef" x1="10.624" y1="17.744" x2="10.624" y2="3.268" gradientUnits="userSpaceOnUse">
      <stop offset="0" stop-color="#773adc"/>
      <stop offset="0.776" stop-color="#a67af4"/>
    </linearGradient>
    <radialGradient id="e99a3290-982f-4885-9d38-8074122ec21d" cx="5.001" cy="7.053" r="5.838" gradientUnits="userSpaceOnUse">
      <stop offset="0" stop-color="#ffca00"/>
      <stop offset="1" stop-color="#faa21d"/>
    </radialGradient>
  </defs>
  <g id="ab23a96f-7463-49bd-a42b-1340bc2def60">
    <path d="M16.052,3.268H6.508L6.056,4.789H8.973a.72.72,0,0,1,.719.719.664.664,0,0,1-.111.354l-.014.028-.017.025L4.713,12.829v4.433a.482.482,0,0,0,.482.482H16.052a.482.482,0,0,0,.483-.482V3.751A.483.483,0,0,0,16.052,3.268Z" fill="url(#a916a650-d068-4dfa-ae34-e4f0afd67aef)"/>
    <path d="M16.052,3.027H6.579l-.143.482h9.616a.242.242,0,0,1,.241.242v13.51a.242.242,0,0,1-.241.242H5.2a.242.242,0,0,1-.241-.242V12.483l-.482.69v4.088a.724.724,0,0,0,.723.724H16.052a.724.724,0,0,0,.724-.724V3.751A.724.724,0,0,0,16.052,3.027Z" fill="#773adc"/>
    <rect x="6.046" y="11.565" width="2.077" height="5.213" rx="0.092" fill="#fff" opacity="0.4"/>
    <rect x="9.508" y="8.641" width="2.077" height="8.136" rx="0.115" fill="#fff" opacity="0.6"/>
    <rect x="12.969" y="5.699" width="2.077" height="11.078" rx="0.134" fill="#fff" opacity="0.8"/>
    <path d="M6.8.018a.246.246,0,0,0-.131-.033.33.33,0,0,0-.23.132L.787,8.335a.321.321,0,0,0-.032.3.332.332,0,0,0,.263.164H4.4L2.891,13.759a.241.241,0,0,0,.132.329.2.2,0,0,0,.131.033.33.33,0,0,0,.23-.132L9.2,5.672c.033-.065.066-.1.066-.164a.3.3,0,0,0-.3-.3H5.488L6.935.347A.241.241,0,0,0,6.8.018Z" fill="url(#e99a3290-982f-4885-9d38-8074122ec21d)"/>
  </g>
</svg>
