<svg width="16" height="16" viewBox="0 0 16 16" fill="none" xmlns="http://www.w3.org/2000/svg">
<g clip-path="url(#clip0_1457_466)">
<path d="M12.1253 5.76V14.9227C12.1253 14.9888 12.1123 15.0543 12.087 15.1154C12.0616 15.1765 12.0245 15.232 11.9777 15.2787C11.9309 15.3255 11.8753 15.3625 11.8141 15.3877C11.753 15.413 11.6875 15.4259 11.6213 15.4258H0.504001C0.437857 15.4259 0.372338 15.413 0.311196 15.3877C0.250053 15.3625 0.194485 15.3255 0.147673 15.2787C0.10086 15.232 0.063722 15.1765 0.0383827 15.1154C0.0130434 15.0543 6.80688e-07 14.9888 7.83924e-07 14.9227V1.07911C-0.000116079 1.01285 0.012834 0.947213 0.0381101 0.885962C0.0633861 0.824711 0.100492 0.769046 0.147304 0.722151C0.194117 0.675256 0.249717 0.638052 0.310923 0.612668C0.372129 0.587284 0.43774 0.574219 0.504001 0.574219H6.91733H6.92445C7.04353 0.574385 7.15874 0.616564 7.24978 0.69333V4.48977C7.24836 4.71783 7.33753 4.93711 7.49771 5.09946C7.65788 5.2618 7.87595 5.35391 8.104 5.35555H11.9209C11.9843 5.40218 12.0359 5.46309 12.0714 5.53336C12.1069 5.60362 12.1254 5.68126 12.1253 5.76Z" fill="url(#paint0_linear_1457_466)"/>
<path d="M11.9336 5.35544H8.10424C7.87619 5.35379 7.65812 5.26168 7.49794 5.09934C7.33777 4.937 7.2486 4.71771 7.25002 4.48966V0.684326L11.9336 5.35544Z" fill="#0078D4"/>
<path d="M9.87787 9.0532L9.78898 8.96431C9.75918 8.93478 9.71893 8.91821 9.67698 8.91821C9.63503 8.91821 9.59478 8.93478 9.56498 8.96431L8.66454 9.85675L8.29654 9.48786C8.26674 9.45833 8.22649 9.44177 8.18454 9.44177C8.14259 9.44177 8.10233 9.45833 8.07254 9.48786L7.9792 9.5812C7.94967 9.61099 7.93311 9.65125 7.93311 9.6932C7.93311 9.73515 7.94967 9.7754 7.9792 9.8052L8.55254 10.3794C8.56717 10.3943 8.58461 10.406 8.60384 10.4141C8.62306 10.4221 8.6437 10.4263 8.66454 10.4263C8.68538 10.4263 8.70601 10.4221 8.72524 10.4141C8.74446 10.406 8.7619 10.3943 8.77654 10.3794L9.87787 9.2772C9.89257 9.26258 9.90424 9.24519 9.9122 9.22605C9.92016 9.20691 9.92426 9.18638 9.92426 9.16564C9.92426 9.14491 9.92016 9.12438 9.9122 9.10523C9.90424 9.08609 9.89257 9.06871 9.87787 9.05409V9.0532Z" fill="#C3F1FF"/>
<path d="M6.64158 9.32959H2.75802C2.54595 9.32959 2.37402 9.50151 2.37402 9.71359V9.71448C2.37402 9.92656 2.54595 10.0985 2.75802 10.0985H6.64158C6.85366 10.0985 7.02558 9.92656 7.02558 9.71448V9.71359C7.02558 9.50151 6.85366 9.32959 6.64158 9.32959Z" fill="#C3F1FF"/>
<path d="M6.64158 12.0088H2.75802C2.54595 12.0088 2.37402 12.1807 2.37402 12.3928V12.3937C2.37402 12.6058 2.54595 12.7777 2.75802 12.7777H6.64158C6.85366 12.7777 7.02558 12.6058 7.02558 12.3937V12.3928C7.02558 12.1807 6.85366 12.0088 6.64158 12.0088Z" fill="#C3F1FF"/>
<path d="M9.87787 6.33055L9.78898 6.24166C9.77434 6.22682 9.75691 6.21504 9.73768 6.207C9.71845 6.19896 9.69782 6.19482 9.67698 6.19482C9.65614 6.19482 9.63551 6.19896 9.61628 6.207C9.59705 6.21504 9.57962 6.22682 9.56498 6.24166L8.66454 7.1341L8.29654 6.76522C8.26674 6.73569 8.22649 6.71912 8.18454 6.71912C8.14259 6.71912 8.10233 6.73569 8.07254 6.76522L7.9792 6.85855C7.94967 6.88835 7.93311 6.9286 7.93311 6.97055C7.93311 7.0125 7.94967 7.05275 7.9792 7.08255L8.55254 7.65677C8.56717 7.67161 8.58461 7.68339 8.60384 7.69143C8.62306 7.69947 8.6437 7.70361 8.66454 7.70361C8.68538 7.70361 8.70601 7.69947 8.72524 7.69143C8.74446 7.68339 8.7619 7.67161 8.77654 7.65677L9.87787 6.55455C9.89257 6.53993 9.90424 6.52255 9.9122 6.5034C9.92016 6.48426 9.92426 6.46373 9.92426 6.44299C9.92426 6.42226 9.92016 6.40173 9.9122 6.38259C9.90424 6.36344 9.89257 6.34606 9.87787 6.33144V6.33055Z" fill="#C3F1FF"/>
<path d="M6.64158 6.60693H2.75802C2.54595 6.60693 2.37402 6.77886 2.37402 6.99093V6.99182C2.37402 7.2039 2.54595 7.37582 2.75802 7.37582H6.64158C6.85366 7.37582 7.02558 7.2039 7.02558 6.99182V6.99093C7.02558 6.77886 6.85366 6.60693 6.64158 6.60693Z" fill="#C3F1FF"/>
<path d="M13.1592 7.53516L9.04102 11.6525L9.20546 11.9254L9.71391 12.752L14.0446 8.42049L13.1592 7.53516Z" fill="#86D633"/>
<path d="M14.3057 8.15922L15.2391 7.225L14.5635 6.55122C14.5083 6.49607 14.4335 6.46509 14.3555 6.46509C14.2775 6.46509 14.2027 6.49607 14.1475 6.55122L13.4204 7.27744L14.3057 8.15922Z" fill="#86D633"/>
<path d="M14.9297 9.30492L10.8106 13.4223L10.5395 13.2578L9.71191 12.7511L14.0444 8.4187L14.9297 9.30492Z" fill="#76BC2D"/>
<path d="M14.3042 8.15899L15.2393 7.22388L15.914 7.89943C15.969 7.95487 15.9998 8.02979 15.9998 8.10788C15.9998 8.18596 15.969 8.26088 15.914 8.31632L15.1878 9.04254L14.3042 8.15899Z" fill="#76BC2D"/>
<path d="M10.8109 13.4266L8.55044 14.2221C8.47232 14.2235 8.39682 14.1939 8.3405 14.1398C8.28418 14.0856 8.25163 14.0113 8.25 13.9332V13.9243L9.04111 11.6621L9.71667 12.7572L10.8109 13.4266Z" fill="#F2F2F2"/>
</g>
<defs>
<linearGradient id="paint0_linear_1457_466" x1="6.06222" y1="0.736885" x2="6.06222" y2="14.6996" gradientUnits="userSpaceOnUse">
<stop stop-color="#5EA0EF"/>
<stop offset="1" stop-color="#0078D4"/>
</linearGradient>
<clipPath id="clip0_1457_466">
<rect width="16" height="16" fill="white"/>
</clipPath>
</defs>
</svg>
