<svg width="16" height="16" viewBox="0 0 16 16" fill="none" xmlns="http://www.w3.org/2000/svg">
<path d="M7.52002 4.85352H8.40891V13.3868H7.52002V4.85352Z" fill="#32BEDD"/>
<path d="M13.7601 0.577881H2.27561C2.14198 0.582491 2.01537 0.638838 1.9225 0.735028C1.82962 0.831218 1.77775 0.959728 1.77783 1.09344V4.33788C1.77781 4.47309 1.83091 4.60289 1.92568 4.69933C2.02045 4.79576 2.14931 4.85111 2.2845 4.85344H13.7601C13.8273 4.85345 13.894 4.84005 13.956 4.81404C14.0181 4.78802 14.0743 4.7499 14.1215 4.70191C14.1687 4.65391 14.2058 4.59701 14.2307 4.5345C14.2557 4.472 14.2679 4.40516 14.2667 4.33788V1.09344C14.2679 1.02616 14.2557 0.959314 14.2307 0.896813C14.2058 0.834311 14.1687 0.777403 14.1215 0.729409C14.0743 0.681415 14.0181 0.643297 13.956 0.617281C13.894 0.591264 13.8273 0.577871 13.7601 0.577881Z" fill="url(#paint0_linear_1457_496)"/>
<path d="M13.7246 6.37354H2.24014C2.1136 6.38468 1.99587 6.44294 1.91027 6.53677C1.82466 6.63061 1.77742 6.75318 1.77791 6.8802V10.1335C1.77671 10.2004 1.78899 10.2668 1.81403 10.3288C1.83906 10.3909 1.87634 10.4472 1.92363 10.4945C1.97092 10.5418 2.02725 10.5791 2.08927 10.6041C2.15129 10.6291 2.21771 10.6414 2.28458 10.6402H13.7246C13.8574 10.6379 13.984 10.5835 14.0771 10.4887C14.1702 10.3939 14.2224 10.2664 14.2224 10.1335V6.8802C14.2202 6.74804 14.1673 6.62177 14.0746 6.52747C13.982 6.43318 13.8567 6.37807 13.7246 6.37354Z" fill="url(#paint1_linear_1457_496)"/>
<path d="M8.05365 15.4222C8.79494 15.4222 9.39587 14.8213 9.39587 14.08C9.39587 13.3387 8.79494 12.7378 8.05365 12.7378C7.31236 12.7378 6.71143 13.3387 6.71143 14.08C6.71143 14.8213 7.31236 15.4222 8.05365 15.4222Z" fill="#7FBA00"/>
<path d="M8.018 15.4134C8.75929 15.4134 9.36023 14.8125 9.36023 14.0712C9.36023 13.3299 8.75929 12.729 8.018 12.729C7.27671 12.729 6.67578 13.3299 6.67578 14.0712C6.67578 14.8125 7.27671 15.4134 8.018 15.4134Z" fill="url(#paint2_linear_1457_496)"/>
<path d="M12.9958 1.37793H12.3291C12.2555 1.37793 12.1958 1.43763 12.1958 1.51126V2.17793C12.1958 2.25157 12.2555 2.31126 12.3291 2.31126H12.9958C13.0694 2.31126 13.1291 2.25157 13.1291 2.17793V1.51126C13.1291 1.43763 13.0694 1.37793 12.9958 1.37793Z" fill="#B4EC36"/>
<path d="M12.9958 2.98682H12.3291C12.2555 2.98682 12.1958 3.04651 12.1958 3.12015V3.78682C12.1958 3.86045 12.2555 3.92015 12.3291 3.92015H12.9958C13.0694 3.92015 13.1291 3.86045 13.1291 3.78682V3.12015C13.1291 3.04651 13.0694 2.98682 12.9958 2.98682Z" fill="#B4EC36"/>
<path d="M12.9958 7.14673H12.3291C12.2555 7.14673 12.1958 7.20642 12.1958 7.28006V7.94673C12.1958 8.02037 12.2555 8.08006 12.3291 8.08006H12.9958C13.0694 8.08006 13.1291 8.02037 13.1291 7.94673V7.28006C13.1291 7.20642 13.0694 7.14673 12.9958 7.14673Z" fill="#B4EC36"/>
<path d="M12.9958 8.75562H12.3291C12.2555 8.75562 12.1958 8.81531 12.1958 8.88895V9.55561C12.1958 9.62925 12.2555 9.68895 12.3291 9.68895H12.9958C13.0694 9.68895 13.1291 9.62925 13.1291 9.55561V8.88895C13.1291 8.81531 13.0694 8.75562 12.9958 8.75562Z" fill="#B4EC36"/>
<defs>
<linearGradient id="paint0_linear_1457_496" x1="8.01783" y1="4.85344" x2="8.01783" y2="0.577881" gradientUnits="userSpaceOnUse">
<stop stop-color="#198AB3"/>
<stop offset="1" stop-color="#32D4F5"/>
</linearGradient>
<linearGradient id="paint1_linear_1457_496" x1="7.98236" y1="10.6402" x2="7.98236" y2="6.37354" gradientUnits="userSpaceOnUse">
<stop stop-color="#198AB3"/>
<stop offset="1" stop-color="#32D4F5"/>
</linearGradient>
<linearGradient id="paint2_linear_1457_496" x1="8.018" y1="15.4134" x2="8.018" y2="12.729" gradientUnits="userSpaceOnUse">
<stop stop-color="#198AB3"/>
<stop offset="1" stop-color="#32D4F5"/>
</linearGradient>
</defs>
</svg>
