<svg width="16" height="16" viewBox="0 0 16 16" fill="none" xmlns="http://www.w3.org/2000/svg">
<g clip-path="url(#clip0_1457_522)">
<path d="M14.2381 7.31382H9.24965C9.16756 7.30995 9.08726 7.33872 9.02631 7.39384C8.96535 7.44897 8.92869 7.52598 8.92432 7.60805V11.0169L9.74832 11.76C9.8065 11.8051 9.85369 11.8629 9.88632 11.9288C9.91895 11.9948 9.93617 12.0674 9.93668 12.141C9.9372 12.2146 9.92099 12.2874 9.88928 12.3538C9.85758 12.4202 9.8112 12.4786 9.75365 12.5245L8.92432 13.3334V15.7085C8.92869 15.7906 8.96535 15.8676 9.02631 15.9227C9.08726 15.9778 9.16756 16.0066 9.24965 16.0027H14.2381C14.3202 16.0066 14.4005 15.9778 14.4614 15.9227C14.5224 15.8676 14.5591 15.7906 14.5634 15.7085V7.60805C14.5591 7.52598 14.5224 7.44897 14.4614 7.39384C14.4005 7.33872 14.3202 7.30995 14.2381 7.31382Z" fill="url(#paint0_linear_1457_522)"/>
<path d="M9.57262 12.3069L7.97084 13.8669C7.80195 14.0358 7.65529 13.9744 7.65529 13.7042V13.0127C7.65541 12.9861 7.65021 12.9597 7.63998 12.9351C7.62975 12.9106 7.6147 12.8883 7.59573 12.8697C7.57675 12.851 7.55423 12.8364 7.5295 12.8266C7.50477 12.8168 7.47833 12.8121 7.45173 12.8127C6.41973 12.8358 3.55129 12.546 3.45173 8.62688C3.45102 8.60012 3.45566 8.5735 3.46538 8.54857C3.4751 8.52363 3.48971 8.5009 3.50834 8.48168C3.52697 8.46247 3.54925 8.44718 3.57388 8.4367C3.5985 8.42622 3.62497 8.42076 3.65173 8.42065H4.66862C4.69642 8.42064 4.72392 8.42646 4.74934 8.43772C4.77476 8.44898 4.79754 8.46544 4.81621 8.48604C4.83489 8.50664 4.84904 8.53092 4.85776 8.55732C4.86648 8.58372 4.86957 8.61165 4.86684 8.63932C4.78693 9.00971 4.79562 9.39373 4.89221 9.76012C4.98879 10.1265 5.17053 10.4649 5.42264 10.7478C5.67475 11.0306 5.99009 11.25 6.343 11.3879C6.69591 11.5258 7.07641 11.5785 7.45351 11.5415C7.50687 11.5415 7.55806 11.5204 7.59587 11.4828C7.63369 11.4451 7.65505 11.394 7.65529 11.3407V10.7015C7.65529 10.3753 7.75307 10.3211 7.97084 10.538L9.57084 11.9824C9.59681 12.0007 9.61804 12.0249 9.63275 12.0531C9.64745 12.0812 9.65522 12.1124 9.65539 12.1442C9.65557 12.1759 9.64815 12.2073 9.63375 12.2356C9.61935 12.2639 9.59839 12.2883 9.57262 12.3069Z" fill="#0078D4"/>
<path d="M7.07563 8.3921C7.07126 8.47417 7.0346 8.55118 6.97364 8.6063C6.91269 8.66143 6.83239 8.6902 6.7503 8.68632H1.76186C1.67976 8.6902 1.59947 8.66143 1.53852 8.6063C1.47756 8.55118 1.44089 8.47417 1.43652 8.3921V0.294324C1.44089 0.212255 1.47756 0.135249 1.53852 0.0801225C1.59947 0.0249962 1.67976 -0.00377142 1.76186 0.000101903H6.7503C6.83239 -0.00377142 6.91269 0.0249962 6.97364 0.0801225C7.0346 0.135249 7.07126 0.212255 7.07563 0.294324V8.3921Z" fill="url(#paint1_linear_1457_522)"/>
<path d="M6.29686 3.71376C6.30484 3.88437 6.24486 4.05119 6.13006 4.17765C6.01526 4.30411 5.855 4.37991 5.68442 4.38843H2.8782C2.70754 4.3799 2.5472 4.30414 2.43226 4.1777C2.31732 4.05127 2.25713 3.88446 2.26486 3.71376C2.25689 3.54291 2.31697 3.37587 2.43193 3.24924C2.5469 3.12261 2.70738 3.04672 2.8782 3.0382H5.68886C5.85953 3.04695 6.01978 3.12294 6.13456 3.24954C6.24933 3.37615 6.30929 3.54306 6.30131 3.71376H6.29686ZM6.29686 1.70665C6.30487 1.53677 6.24549 1.37059 6.13164 1.24426C6.01778 1.11792 5.85866 1.04163 5.68886 1.03198H2.8782C2.70754 1.0405 2.5472 1.11627 2.43226 1.2427C2.31732 1.36914 2.25713 1.53595 2.26486 1.70665C2.25689 1.8775 2.31697 2.04454 2.43193 2.17117C2.5469 2.2978 2.70738 2.37369 2.8782 2.3822H5.68886C5.85953 2.37346 6.01978 2.29747 6.13456 2.17087C6.24933 2.04426 6.30929 1.87735 6.30131 1.70665H6.29686Z" fill="#003067"/>
<path d="M3.58862 1.70675C3.5888 1.79666 3.56228 1.88461 3.51244 1.95944C3.4626 2.03427 3.39167 2.09263 3.30863 2.12712C3.2256 2.16161 3.13419 2.17068 3.046 2.15318C2.95781 2.13568 2.87679 2.0924 2.81321 2.02882C2.74964 1.96525 2.70636 1.88423 2.68886 1.79604C2.67136 1.70784 2.68043 1.61644 2.71492 1.53341C2.74941 1.45037 2.80777 1.37944 2.8826 1.3296C2.95743 1.27976 3.04537 1.25324 3.13529 1.25342C3.25552 1.25342 3.37083 1.30118 3.45584 1.3862C3.54086 1.47121 3.58862 1.58652 3.58862 1.70675ZM3.13529 3.26053C3.04563 3.26053 2.95798 3.28712 2.88343 3.33693C2.80888 3.38674 2.75077 3.45754 2.71646 3.54038C2.68215 3.62322 2.67317 3.71437 2.69066 3.8023C2.70816 3.89024 2.75133 3.97102 2.81473 4.03442C2.87813 4.09782 2.95891 4.14099 3.04685 4.15849C3.13478 4.17598 3.22593 4.167 3.30877 4.13269C3.39161 4.09838 3.46241 4.04027 3.51222 3.96572C3.56203 3.89117 3.58862 3.80352 3.58862 3.71386C3.58862 3.59363 3.54086 3.47832 3.45584 3.39331C3.37083 3.30829 3.25552 3.26053 3.13529 3.26053Z" fill="#50E6FF"/>
<path d="M13.7856 11.0277C13.7934 11.1985 13.7332 11.3654 13.6183 11.492C13.5034 11.6186 13.343 11.6945 13.1723 11.7033H10.3661C10.1954 11.6945 10.0352 11.6185 9.92039 11.4919C9.80561 11.3653 9.74565 11.1984 9.75364 11.0277C9.74565 10.857 9.80561 10.6901 9.92039 10.5635C10.0352 10.4369 10.1954 10.3609 10.3661 10.3522H13.1723C13.3431 10.3607 13.5036 10.4366 13.6186 10.5632C13.7335 10.6898 13.7936 10.8569 13.7856 11.0277ZM13.7856 9.0215C13.7936 8.85066 13.7335 8.68361 13.6186 8.55698C13.5036 8.43036 13.3431 8.35447 13.1723 8.34595H10.3661C10.1954 8.35469 10.0352 8.43068 9.92039 8.55729C9.80561 8.68389 9.74565 8.8508 9.75364 9.0215C9.74566 9.19211 9.80564 9.35893 9.92044 9.48539C10.0352 9.61185 10.1955 9.68765 10.3661 9.69617H13.1723C13.343 9.68765 13.5033 9.61188 13.6182 9.48545C13.7332 9.35901 13.7934 9.1922 13.7856 9.0215Z" fill="#003067"/>
<path d="M11.0766 9.02136C11.0764 9.11098 11.0497 9.19854 10.9998 9.27298C10.9498 9.34741 10.879 9.40538 10.7961 9.43955C10.7133 9.47373 10.6222 9.48258 10.5343 9.46499C10.4464 9.44739 10.3657 9.40415 10.3024 9.34071C10.2391 9.27728 10.196 9.1965 10.1786 9.10859C10.1611 9.02067 10.1702 8.92957 10.2045 8.84678C10.2389 8.764 10.297 8.69325 10.3715 8.64348C10.446 8.5937 10.5336 8.56714 10.6233 8.56714C10.6829 8.56714 10.7419 8.57889 10.7969 8.60173C10.852 8.62457 10.902 8.65804 10.9441 8.70023C10.9862 8.74242 11.0196 8.7925 11.0423 8.84761C11.0651 8.90271 11.0767 8.96175 11.0766 9.02136ZM10.6233 10.5742C10.5336 10.5742 10.4459 10.6008 10.3714 10.6507C10.2968 10.7005 10.2387 10.7713 10.2044 10.8541C10.1701 10.9369 10.1611 11.0281 10.1786 11.116C10.1961 11.204 10.2393 11.2847 10.3027 11.3481C10.3661 11.4115 10.4469 11.4547 10.5348 11.4722C10.6228 11.4897 10.7139 11.4807 10.7967 11.4464C10.8796 11.4121 10.9504 11.354 11.0002 11.2794C11.05 11.2049 11.0766 11.1172 11.0766 11.0276C11.0757 10.908 11.0275 10.7936 10.9426 10.7093C10.8576 10.6251 10.7429 10.5778 10.6233 10.5778V10.5742Z" fill="#50E6FF"/>
</g>
<defs>
<linearGradient id="paint0_linear_1457_522" x1="11.7439" y1="16" x2="11.7439" y2="7.31382" gradientUnits="userSpaceOnUse">
<stop stop-color="#949494"/>
<stop offset="0.532" stop-color="#A2A2A2"/>
<stop offset="1" stop-color="#B3B3B3"/>
</linearGradient>
<linearGradient id="paint1_linear_1457_522" x1="4.25608" y1="8.68632" x2="4.25608" y2="0.000101709" gradientUnits="userSpaceOnUse">
<stop stop-color="#949494"/>
<stop offset="0.532" stop-color="#A2A2A2"/>
<stop offset="1" stop-color="#B3B3B3"/>
</linearGradient>
<clipPath id="clip0_1457_522">
<rect width="16" height="16" fill="white"/>
</clipPath>
</defs>
</svg>
