<svg width="16" height="16" viewBox="0 0 16 16" fill="none" xmlns="http://www.w3.org/2000/svg">
<g clip-path="url(#clip0_1457_770)">
<path d="M15.5974 13.5109C15.4542 14.1332 14.6773 14.7474 13.2711 15.2247C9.75485 16.2585 6.01607 16.2638 2.49691 15.2398C1.20179 14.7794 0.503128 14.1963 0.393794 13.5998C0.375128 13.4949 0.393794 11.8523 0.393794 11.8523L15.6213 11.7109C15.6213 11.7109 15.6142 13.4309 15.5974 13.5109Z" fill="#5EA0EF"/>
<path d="M8.02719 14.4521C12.2356 14.4099 15.6354 13.1961 15.6208 11.7411C15.6062 10.2861 12.1828 9.14081 7.97431 9.18305C3.76586 9.22528 0.366086 10.439 0.380688 11.8941C0.395291 13.3491 3.81875 14.4944 8.02719 14.4521Z" fill="#50E6FF"/>
<path d="M11.879 11.5359C11.8728 11.6481 11.8227 11.7534 11.7395 11.8291C11.6564 11.9048 11.5469 11.9447 11.4345 11.9403H4.57408C4.46175 11.9447 4.35221 11.9048 4.26907 11.8291C4.18593 11.7534 4.13585 11.6481 4.12964 11.5359V0.405238C4.13517 0.292674 4.18501 0.18687 4.26828 0.110928C4.35155 0.0349854 4.46149 -0.00492724 4.57408 -9.55955e-05H11.4319C11.5442 -0.00469818 11.6539 0.0351739 11.7371 0.11088C11.8203 0.186585 11.8703 0.292025 11.8763 0.404349L11.879 11.5359Z" fill="url(#paint0_linear_1457_770)"/>
<path d="M9.96622 6.03634H6.10844C5.87403 6.02414 5.65396 5.91972 5.49626 5.74586C5.33856 5.57201 5.25602 5.34283 5.26667 5.10834V5.10834C5.25529 4.87341 5.3375 4.64354 5.49528 4.4691C5.65306 4.29466 5.87355 4.18987 6.10844 4.17767H9.96622C10.2009 4.18964 10.4214 4.29409 10.5793 4.46817C10.7372 4.64225 10.8198 4.87178 10.8089 5.10656C10.82 5.3415 10.7376 5.57126 10.5796 5.74553C10.4217 5.9198 10.2011 6.02437 9.96622 6.03634ZM10.8089 2.34656C10.8186 2.11253 10.7355 1.88414 10.5777 1.71103C10.4199 1.53793 10.2001 1.4341 9.96622 1.42212H6.10844C5.87468 1.43433 5.65516 1.53825 5.49756 1.71133C5.33995 1.88441 5.25698 2.11268 5.26667 2.34656V2.34656C5.25578 2.5812 5.3382 2.81061 5.49593 2.98466C5.65366 3.15871 5.87387 3.26326 6.10844 3.27545H9.96622C10.2009 3.26348 10.4214 3.15904 10.5793 2.98496C10.7372 2.81088 10.8198 2.58135 10.8089 2.34656V2.34656Z" fill="#552F99"/>
<path d="M9.72444 1.72339C9.8475 1.72339 9.9678 1.75988 10.0701 1.82825C10.1725 1.89662 10.2522 1.9938 10.2993 2.1075C10.3464 2.22119 10.3587 2.3463 10.3347 2.467C10.3107 2.5877 10.2514 2.69857 10.1644 2.78559C10.0774 2.87261 9.96653 2.93187 9.84583 2.95588C9.72513 2.97989 9.60002 2.96756 9.48633 2.92047C9.37263 2.87337 9.27545 2.79362 9.20708 2.6913C9.13871 2.58898 9.10222 2.46867 9.10222 2.34561C9.10222 2.18059 9.16777 2.02232 9.28446 1.90563C9.40115 1.78894 9.55941 1.72339 9.72444 1.72339V1.72339ZM9.10222 5.10117C9.10222 5.22423 9.13871 5.34453 9.20708 5.44685C9.27545 5.54918 9.37263 5.62893 9.48633 5.67602C9.60002 5.72312 9.72513 5.73544 9.84583 5.71143C9.96653 5.68742 10.0774 5.62816 10.1644 5.54114C10.2514 5.45412 10.3107 5.34326 10.3347 5.22256C10.3587 5.10186 10.3464 4.97675 10.2993 4.86305C10.2522 4.74936 10.1725 4.65218 10.0701 4.58381C9.9678 4.51544 9.8475 4.47894 9.72444 4.47894C9.64235 4.47883 9.56105 4.49495 9.48523 4.52639C9.4094 4.55783 9.34054 4.60396 9.28262 4.66213C9.2247 4.7203 9.17887 4.78935 9.14775 4.86531C9.11664 4.94127 9.10086 5.02264 9.10133 5.10472L9.10222 5.10117Z" fill="#50E6FF"/>
</g>
<defs>
<linearGradient id="paint0_linear_1457_770" x1="8.00342" y1="-9.55956e-05" x2="8.00342" y2="11.9403" gradientUnits="userSpaceOnUse">
<stop stop-color="#A67AF4"/>
<stop offset="0.999" stop-color="#773ADC"/>
</linearGradient>
<clipPath id="clip0_1457_770">
<rect width="16" height="16" fill="white"/>
</clipPath>
</defs>
</svg>
