<svg width="16" height="16" viewBox="0 0 16 16" fill="none" xmlns="http://www.w3.org/2000/svg">
<path d="M15.5554 8.79989V7.111L15.2888 7.02211L13.4221 6.39989L12.9777 5.24434L13.9554 3.28878L12.711 2.04434L12.4443 2.13322L10.7554 3.02211L9.59989 2.57767L8.79989 0.444336H7.111L7.02211 0.711003L6.39989 2.48878L5.24434 3.02211L3.28878 2.04434L2.04434 3.28878L2.13322 3.55545L3.02211 5.24434L2.57767 6.39989L0.444336 7.19989V8.88878L0.711003 8.97767L2.57767 9.59989L3.02211 10.7554L2.04434 12.711L3.28878 13.9554L3.55545 13.8666L5.24434 12.9777L6.39989 13.4221L7.19989 15.4666H8.88878L8.97767 15.1999L9.59989 13.3332L10.7554 12.8888L12.711 13.8666L13.9554 12.6221L13.8666 12.4443L12.9777 10.7554L13.4221 9.59989L15.5554 8.79989Z" fill="url(#paint0_linear_1457_758)"/>
<path d="M10.9333 5.7778L10.2222 6.40003C10.4573 6.65905 10.6375 6.96308 10.7519 7.29372C10.8662 7.62437 10.9123 7.97477 10.8874 8.32373C10.8625 8.6727 10.767 9.01299 10.6069 9.32403C10.4467 9.63507 10.2251 9.91039 9.9555 10.1334C9.69677 10.3691 9.39281 10.5498 9.0621 10.6645C8.73138 10.7792 8.3808 10.8255 8.03165 10.8006C7.6825 10.7756 7.34206 10.68 7.03101 10.5195C6.71995 10.3589 6.44477 10.1368 6.22217 9.86669C5.79305 9.39136 5.5555 8.77374 5.5555 8.13336C5.5555 7.49298 5.79305 6.87536 6.22217 6.40003H6.31106L6.84439 6.84447H6.93328V6.75558L6.7555 4.9778C6.7555 4.88892 6.66661 4.88892 6.57773 4.88892L4.88884 5.15558C4.86526 5.15558 4.84265 5.16495 4.82598 5.18162C4.80931 5.19829 4.79995 5.2209 4.79995 5.24447V5.24447L5.33328 5.68892V5.68892V5.7778C5.02734 6.13274 4.79504 6.54498 4.64989 6.99053C4.50475 7.43607 4.44965 7.90604 4.48781 8.37307C4.52598 8.84011 4.65663 9.2949 4.87218 9.71097C5.08773 10.127 5.38387 10.4961 5.74337 10.7967C6.10287 11.0972 6.51856 11.3233 6.96624 11.4617C7.41392 11.6002 7.88466 11.6482 8.35107 11.603C8.81748 11.5578 9.27025 11.4203 9.68303 11.1986C10.0958 10.9768 10.4604 10.6751 10.7555 10.3111C11.3758 9.73099 11.7424 8.92966 11.7756 8.08099C11.8089 7.23232 11.5062 6.40475 10.9333 5.7778V5.7778Z" fill="white"/>
<defs>
<linearGradient id="paint0_linear_1457_758" x1="7.99989" y1="15.5554" x2="7.99989" y2="0.444336" gradientUnits="userSpaceOnUse">
<stop stop-color="#32BEDD"/>
<stop offset="1" stop-color="#32D4F5"/>
</linearGradient>
</defs>
</svg>
