<svg width="16" height="16" viewBox="0 0 16 16" fill="none" xmlns="http://www.w3.org/2000/svg">
<path d="M5.75911 11.6587V10.9858L5.07556 10.7556L4.89778 10.296L5.24445 9.60003V9.52181L5.032 9.30848L4.77422 9.05159H4.68533L4.01333 9.38759L3.55556 9.26048L3.264 8.51025H2.59911L2.37511 9.19292L1.87111 9.41781L1.12089 8.99203L0.627556 9.42225V9.51114L0.963556 10.1725L0.773333 10.632L0 10.9636V11.6587H0.100444L0.811556 11.8934L1.00178 12.3529L0.646222 13.1263L1.11733 13.5965H1.20622L1.87822 13.2605L2.33778 13.4507L2.62933 14.2578H3.28978V14.1565L3.52533 13.4507L3.96978 13.2605L4.75467 13.616L5.22489 13.1458V13.0569L4.88889 12.3974L5.01156 11.9271L5.75911 11.6587ZM2.94667 12.2747C2.76051 12.277 2.57786 12.224 2.42181 12.1225C2.26576 12.0209 2.14332 11.8754 2.06998 11.7043C1.99663 11.5332 1.97568 11.3441 2.00976 11.1611C2.04384 10.9781 2.13142 10.8093 2.26144 10.676C2.39146 10.5428 2.55807 10.4511 2.7402 10.4125C2.92234 10.374 3.11182 10.3903 3.28468 10.4594C3.45755 10.5285 3.60603 10.6473 3.71136 10.8008C3.8167 10.9544 3.87415 11.1357 3.87645 11.3218V11.3334C3.86511 11.5732 3.7625 11.7996 3.58963 11.9662C3.41676 12.1327 3.18673 12.2269 2.94667 12.2294V12.2747Z" fill="url(#paint0_linear_1457_780)"/>
<path d="M16.0001 7.8933V6.58219L15.9325 6.52619L14.5663 6.05597L14.2223 5.15997L14.9165 3.81508L14.9841 3.6693L14.5699 3.22485L14.0765 2.69863L13.8988 2.78752L12.5877 3.46041L11.6863 3.19997L11.1112 1.74219H9.81522L9.74766 1.80974L9.30322 3.14308L8.38499 3.48974L6.87388 2.7733L5.94944 3.69152L6.03833 3.8693L6.72188 5.16885L6.35299 6.06752L4.77344 6.63819V7.9493L4.96366 8.0053L6.35299 8.46485L6.72277 9.42219L6.00544 10.9333L6.92455 11.8595L7.10233 11.7813L8.41433 11.1111L9.31122 11.4809L9.88277 13.0604H11.2045V12.7804L11.6641 11.3911L12.553 11.0213L14.0881 11.7271L15.0063 10.8089L14.9174 10.6311L14.2748 9.42219L14.5325 8.50308L16.0001 7.8933ZM10.4988 9.10396C10.1352 9.10624 9.77907 9.00064 9.4755 8.80052C9.17193 8.6004 8.93453 8.31474 8.79331 7.97968C8.65211 7.64462 8.61343 7.27521 8.68219 6.91817C8.75095 6.56113 8.92405 6.2325 9.17959 5.97384C9.43514 5.71519 9.76165 5.53813 10.1178 5.46506C10.474 5.39199 10.8439 5.42619 11.1806 5.56334C11.5174 5.70049 11.8059 5.93442 12.0096 6.23555C12.2134 6.53668 12.3233 6.89148 12.3254 7.25508C12.3255 7.74161 12.1337 8.20854 11.7918 8.55464C11.4498 8.90075 10.9853 9.09812 10.4988 9.10396Z" fill="url(#paint1_linear_1457_780)"/>
<defs>
<linearGradient id="paint0_linear_1457_780" x1="2.87911" y1="8.51025" x2="2.87911" y2="14.2578" gradientUnits="userSpaceOnUse">
<stop stop-color="#FFD70F"/>
<stop offset="1" stop-color="#FEA11B"/>
</linearGradient>
<linearGradient id="paint1_linear_1457_780" x1="10.3868" y1="1.74219" x2="10.3868" y2="13.0586" gradientUnits="userSpaceOnUse">
<stop stop-color="#86D633"/>
<stop offset="0.994" stop-color="#76BC2D"/>
</linearGradient>
</defs>
</svg>
