<svg width="16" height="16" viewBox="0 0 16 16" fill="none" xmlns="http://www.w3.org/2000/svg">
<g clip-path="url(#clip0_1457_803)">
<path d="M15.3066 12.3734C15.3996 12.3745 15.4918 12.3572 15.5781 12.3225C15.6643 12.2877 15.7427 12.2362 15.8089 12.1708C15.875 12.1055 15.9276 12.0277 15.9634 11.9419C15.9993 11.8561 16.0177 11.7641 16.0177 11.6711C16.021 11.6317 16.0149 11.5921 15.9999 11.5556C15.7244 9.33335 14.4533 7.52002 12.0355 7.52002C9.6177 7.52002 8.31104 9.08446 8.06215 11.5556C8.04472 11.7439 8.10208 11.9315 8.22183 12.0779C8.34159 12.2242 8.51412 12.3176 8.70215 12.3378H15.3066V12.3734Z" fill="#0078D4"/>
<path opacity="0.8" d="M12.0443 8.07992C11.6151 8.08365 11.1943 7.95991 10.8354 7.72437L12.0354 10.8533L13.2177 7.75103C12.8641 7.96613 12.4582 8.0799 12.0443 8.07992Z" fill="white"/>
<path d="M12.0443 8.0799C13.2766 8.0799 14.2755 7.081 14.2755 5.84879C14.2755 4.61658 13.2766 3.61768 12.0443 3.61768C10.8121 3.61768 9.81323 4.61658 9.81323 5.84879C9.81323 7.081 10.8121 8.0799 12.0443 8.0799Z" fill="#0078D4"/>
<path d="M10.8355 14.5421C11.116 14.5421 11.3851 14.4307 11.5834 14.2323C11.7818 14.034 11.8932 13.7649 11.8932 13.4844C11.8977 13.443 11.8977 13.4013 11.8932 13.3599C11.4755 10.0355 9.58213 7.33325 5.97324 7.33325C2.36436 7.33325 0.391022 9.62659 -8.87052e-05 13.3333C-0.0274253 13.6136 0.0572387 13.8934 0.235427 14.1115C0.413615 14.3297 0.67086 14.4685 0.951022 14.4977H10.8177L10.8355 14.5421Z" fill="url(#paint0_linear_1457_803)"/>
<path opacity="0.8" d="M6.01777 8.1244C5.38641 8.11999 4.76951 7.93492 4.23999 7.59106L6.01777 12.2577L7.79555 7.62662C7.26049 7.95398 6.64502 8.12631 6.01777 8.1244Z" fill="white"/>
<path d="M5.99105 8.12443C7.832 8.12443 9.32438 6.63205 9.32438 4.7911C9.32438 2.95015 7.832 1.45776 5.99105 1.45776C4.1501 1.45776 2.65771 2.95015 2.65771 4.7911C2.65771 6.63205 4.1501 8.12443 5.99105 8.12443Z" fill="url(#paint1_linear_1457_803)"/>
</g>
<defs>
<linearGradient id="paint0_linear_1457_803" x1="5.95547" y1="6.45325" x2="5.95547" y2="16.3199" gradientUnits="userSpaceOnUse">
<stop offset="0.22" stop-color="#32D4F5"/>
<stop offset="1" stop-color="#198AB3"/>
</linearGradient>
<linearGradient id="paint1_linear_1457_803" x1="5.7066" y1="1.17332" x2="6.4266" y2="10.1244" gradientUnits="userSpaceOnUse">
<stop offset="0.22" stop-color="#32D4F5"/>
<stop offset="1" stop-color="#198AB3"/>
</linearGradient>
<clipPath id="clip0_1457_803">
<rect width="16" height="16" fill="white"/>
</clipPath>
</defs>
</svg>
