<svg xmlns="http://www.w3.org/2000/svg" width="18" height="18" viewBox="0 0 18 18">
  <defs>
    <linearGradient id="b6b5c9a6-8ed6-4d9a-8fe7-8473d483a9db" x1="9" y1="14.266" x2="9" y2="1.509" gradientUnits="userSpaceOnUse">
      <stop offset="0" stop-color="#0078d4"/>
      <stop offset="1" stop-color="#5ea0ef"/>
    </linearGradient>
  </defs>
  <g id="ae62d930-446c-4563-ab6f-40d4c467e2f8">
    <path d="M18,10.271a4.045,4.045,0,0,0-3.51-3.888A5.1,5.1,0,0,0,9.24,1.509a5.228,5.228,0,0,0-5,3.407A4.827,4.827,0,0,0,0,9.56a4.9,4.9,0,0,0,5.068,4.706c.151,0,.3-.007.447-.019h8.207a.819.819,0,0,0,.217-.032A4.093,4.093,0,0,0,18,10.271Z" fill="url(#b6b5c9a6-8ed6-4d9a-8fe7-8473d483a9db)"/>
    <rect x="4.47" y="7.603" width="8.973" height="2.453" rx="0.3" fill="#9cebff"/>
    <rect x="4.47" y="10.459" width="8.973" height="2.453" rx="0.3" fill="#50e6ff"/>
    <rect x="4.47" y="13.363" width="8.973" height="2.453" rx="0.3" fill="#32bedd"/>
    <path d="M12.569,8.7H12.2a.15.15,0,0,1-.15-.15V8.182a.15.15,0,0,1,.15-.15h.37a.15.15,0,0,1,.15.15v.371A.15.15,0,0,1,12.569,8.7Zm.15.774v-.37a.15.15,0,0,0-.15-.15H12.2a.15.15,0,0,0-.15.15v.37a.15.15,0,0,0,.15.15h.37A.15.15,0,0,0,12.719,9.477Zm0,1.932v-.371a.15.15,0,0,0-.15-.15H12.2a.15.15,0,0,0-.15.15v.371a.15.15,0,0,0,.15.15h.37A.15.15,0,0,0,12.719,11.409Zm0,.924v-.37a.15.15,0,0,0-.15-.15H12.2a.15.15,0,0,0-.15.15v.37a.15.15,0,0,0,.15.15h.37A.15.15,0,0,0,12.719,12.333Zm0,1.98v-.371a.15.15,0,0,0-.15-.15H12.2a.15.15,0,0,0-.15.15v.371a.15.15,0,0,0,.15.15h.37A.15.15,0,0,0,12.719,14.313Zm0,.924v-.37a.15.15,0,0,0-.15-.15H12.2a.15.15,0,0,0-.15.15v.37a.15.15,0,0,0,.15.15h.37A.15.15,0,0,0,12.719,15.237Z" fill="#fff"/>
  </g>
</svg>
