<svg id="Layer_1" data-name="Layer 1" xmlns="http://www.w3.org/2000/svg" xmlns:xlink="http://www.w3.org/1999/xlink" viewBox="0 0 205 111"><defs><clipPath id="clip-path"><rect x="139.286" y="24" width="60" height="60" fill="none"/></clipPath><linearGradient id="linear-gradient" x1="-117.715" y1="1538.483" x2="-117.715" y2="1478.478" gradientTransform="matrix(1, 0, 0, -1, 287, 1562.483)" gradientUnits="userSpaceOnUse"><stop offset="0" stop-color="#b3b2b3"/><stop offset="0.375" stop-color="#afaeaf"/><stop offset="0.763" stop-color="#a2a2a2"/><stop offset="1" stop-color="#979797"/></linearGradient><linearGradient id="linear-gradient-2" x1="-252.408" y1="1494.721" x2="-252.408" y2="1525.674" gradientTransform="matrix(1, 0, 0, -1, 287, 1562.483)" gradientUnits="userSpaceOnUse"><stop offset="0" stop-color="#5e9641"/><stop offset="0.34" stop-color="#6baa42"/><stop offset="0.67" stop-color="#73b743"/><stop offset="1" stop-color="#76bb43"/></linearGradient></defs><g clip-path="url(#clip-path)"><path d="M188.762,81.969A2.147,2.147,0,0,1,186.516,84h-34.46a2.147,2.147,0,0,1-2.247-2.034V26.036A2.145,2.145,0,0,1,152.056,24h34.46a2.145,2.145,0,0,1,2.246,2.033Z" fill="url(#linear-gradient)"/><path d="M155.536,49.667A4.463,4.463,0,0,1,159.769,45h19.387a4.678,4.678,0,0,1,0,9.333H159.769a4.461,4.461,0,0,1-4.233-4.666Z" fill="#003067"/><path d="M155.536,35.79a4.463,4.463,0,0,1,4.233-4.667h19.387a4.468,4.468,0,0,1,4.233,4.667,4.468,4.468,0,0,1-4.233,4.667H159.769a4.463,4.463,0,0,1-4.233-4.667Z" fill="#003067"/><path d="M160.982,38.92a3.13,3.13,0,1,0-3.13-3.13A3.13,3.13,0,0,0,160.982,38.92Z" fill="#50e6ff"/><path d="M160.982,52.78a3.13,3.13,0,1,0-3.13-3.13A3.13,3.13,0,0,0,160.982,52.78Z" fill="#50e6ff"/></g><path d="M48.789,39.719H51.41a.7.7,0,0,1,.7.7v7.222a.7.7,0,0,1-.7.7H48.789Z" fill="#ffca00"/><path d="M48.789,52.286H51.41a.7.7,0,0,1,.7.7V65.079a.7.7,0,0,1-.7.7H48.789Z" fill="#ffca00"/><path d="M47.365,36.81H21.819A1.424,1.424,0,0,0,20.4,38.233v28.1a1.425,1.425,0,0,0,1.424,1.424H47.365a1.425,1.425,0,0,0,1.424-1.424v-28.1A1.424,1.424,0,0,0,47.365,36.81Z" fill="url(#linear-gradient-2)"/><path d="M28.175,60.333H26.709a.41.41,0,0,1-.285-.135.4.4,0,0,1-.083-.138.438.438,0,0,1-.024-.16V42.67a.411.411,0,0,1,.024-.156.4.4,0,0,1,.084-.135.394.394,0,0,1,.13-.09.39.39,0,0,1,.154-.032h3.983a.4.4,0,0,1,.155.032.4.4,0,0,1,.13.09.386.386,0,0,1,.083.135.376.376,0,0,1,.024.156.41.41,0,0,1-.023.159.425.425,0,0,1-.083.139.415.415,0,0,1-.286.135H27.1V59.467h1.073a.4.4,0,0,1,.156.039.422.422,0,0,1,.13.1.406.406,0,0,1,.082.139.41.41,0,0,1,.024.159.439.439,0,0,1-.112.293A.434.434,0,0,1,28.175,60.333Z" fill="#b4ec36"/><path d="M28.381,62.438h-3.3a.4.4,0,0,1-.156-.039.422.422,0,0,1-.13-.1.416.416,0,0,1-.082-.139.392.392,0,0,1-.024-.159l-.268-21.316a.419.419,0,0,1,.029-.168.437.437,0,0,1,.095-.142.327.327,0,0,1,.119-.093.321.321,0,0,1,.149-.03h5.881V41.1H25.224l.247,20.469h2.91Z" fill="#b4ec36"/><path d="M40.762,60.54H37.481a.421.421,0,0,1-.16-.041.4.4,0,0,1-.129-.1.372.372,0,0,1-.094-.131.383.383,0,0,1-.03-.158V50.016a.4.4,0,0,1,.024-.157.387.387,0,0,1,.213-.224.4.4,0,0,1,.155-.032h1.878V44.96h.784V50a.407.407,0,0,1-.1.291.412.412,0,0,1-.272.143H37.873v9.12h2.889Z" fill="#b4ec36"/><path d="M42.722,38.44h-11.6a.536.536,0,0,0-.536.536v5.345a.536.536,0,0,0,.536.536h11.6a.536.536,0,0,0,.537-.536V38.976A.536.536,0,0,0,42.722,38.44Z" fill="#365615"/><path d="M34.262,65.554V56.516a.537.537,0,0,0-.537-.537H32.549a.537.537,0,0,0-.536.537v9.038a.536.536,0,0,0,.536.536h1.176A.536.536,0,0,0,34.262,65.554Z" fill="#365615"/><path d="M30.424,65.6V56.557a.536.536,0,0,0-.537-.536H28.711a.536.536,0,0,0-.536.536V65.6a.536.536,0,0,0,.536.537h1.176A.536.536,0,0,0,30.424,65.6Z" fill="#365615"/><path d="M42.764,65.6V56.557a.537.537,0,0,0-.537-.536H41.051a.537.537,0,0,0-.537.536V65.6a.537.537,0,0,0,.537.537h1.176A.537.537,0,0,0,42.764,65.6Z" fill="#f2f2f2"/><path d="M32.735,52.657a2.317,2.317,0,1,0-2.146-2.311A2.233,2.233,0,0,0,32.735,52.657Z" fill="#f2f2f2"/><path d="M20.354,58.992H17.733a.7.7,0,0,1-.7-.619V46.281a.7.7,0,0,1,.7-.7h2.621Z" fill="#3b3b3b"/><rect x="0.5" y="0.5" width="204" height="110" fill="none" stroke="#b3b3b3" stroke-dasharray="2 2"/><path d="M144.6,52.5l-5-2.887v5.774ZM58.4,53h81.7V52H58.4Z" fill="#b3b3b3"/></svg>