<svg id="Layer_1" data-name="Layer 1" xmlns="http://www.w3.org/2000/svg" xmlns:xlink="http://www.w3.org/1999/xlink" viewBox="0 0 205 111"><defs><clipPath id="clip-path"><rect x="139" y="24" width="60" height="60" fill="none"/></clipPath><linearGradient id="linear-gradient" x1="-118" y1="1297.744" x2="-118" y2="1237.739" gradientTransform="matrix(1, 0, 0, -1, 287, 1321.742)" gradientUnits="userSpaceOnUse"><stop offset="0" stop-color="#b3b2b3"/><stop offset="0.375" stop-color="#afaeaf"/><stop offset="0.763" stop-color="#a2a2a2"/><stop offset="1" stop-color="#979797"/></linearGradient><linearGradient id="linear-gradient-2" x1="-253.479" y1="1274.825" x2="-253.479" y2="1305.658" gradientTransform="matrix(1, 0, 0, -1, 287, 1321.742)" gradientUnits="userSpaceOnUse"><stop offset="0" stop-color="#5e9641"/><stop offset="0.34" stop-color="#6baa42"/><stop offset="0.67" stop-color="#73b743"/><stop offset="1" stop-color="#76bb43"/></linearGradient><linearGradient id="linear-gradient-3" x1="-253.479" y1="1228.825" x2="-253.479" y2="1259.658" xlink:href="#linear-gradient-2"/><linearGradient id="linear-gradient-4" x1="-182" y1="1253.742" x2="-182" y2="1281.742" gradientTransform="matrix(1, 0, 0, -1, 287, 1321.742)" gradientUnits="userSpaceOnUse"><stop offset="0" stop-color="#0078d4"/><stop offset="0.776" stop-color="#5ea0ef"/></linearGradient></defs><g clip-path="url(#clip-path)"><path d="M188.477,81.967A2.147,2.147,0,0,1,186.23,84H151.77a2.147,2.147,0,0,1-2.247-2.033V26.033A2.149,2.149,0,0,1,151.77,24h34.46a2.149,2.149,0,0,1,2.247,2.033Z" fill="url(#linear-gradient)"/><path d="M155.25,49.667A4.464,4.464,0,0,1,159.483,45H178.87a4.678,4.678,0,0,1,0,9.333H159.483a4.463,4.463,0,0,1-4.233-4.666Z" fill="#003067"/><path d="M155.25,35.79a4.464,4.464,0,0,1,4.233-4.667H178.87A4.466,4.466,0,0,1,183.1,35.79a4.466,4.466,0,0,1-4.233,4.667H159.483a4.464,4.464,0,0,1-4.233-4.667Z" fill="#003067"/><path d="M160.7,38.92a3.13,3.13,0,1,0-3.13-3.13A3.13,3.13,0,0,0,160.7,38.92Z" fill="#50e6ff"/><path d="M160.7,52.78a3.13,3.13,0,1,0-3.13-3.13A3.13,3.13,0,0,0,160.7,52.78Z" fill="#50e6ff"/></g><path d="M47.663,18.982h2.61a.7.7,0,0,1,.7.7v7.194a.7.7,0,0,1-.7.7h-2.61Z" fill="#ffca00"/><path d="M47.663,31.5h2.61a.7.7,0,0,1,.7.7V44.244a.7.7,0,0,1-.7.7h-2.61Z" fill="#ffca00"/><path d="M46.244,16.083H20.8A1.419,1.419,0,0,0,19.378,17.5v28A1.419,1.419,0,0,0,20.8,46.917H46.244A1.419,1.419,0,0,0,47.663,45.5v-28A1.419,1.419,0,0,0,46.244,16.083Z" fill="url(#linear-gradient-2)"/><path d="M27.128,39.517h-1.46a.412.412,0,0,1-.155-.039.439.439,0,0,1-.13-.1.412.412,0,0,1-.105-.3V21.921a.38.38,0,0,1,.107-.289.376.376,0,0,1,.129-.09.39.39,0,0,1,.154-.032h3.967a.391.391,0,0,1,.155.032.376.376,0,0,1,.129.09.38.38,0,0,1,.107.289A.41.41,0,0,1,30,22.08a.4.4,0,0,1-.083.138.407.407,0,0,1-.129.1.412.412,0,0,1-.156.039H26.059v16.3h1.069a.41.41,0,0,1,.285.135.412.412,0,0,1,.105.3.431.431,0,0,1-.111.292A.437.437,0,0,1,27.128,39.517Z" fill="#b4ec36"/><path d="M27.333,41.613H24.044a.4.4,0,0,1-.155-.039.41.41,0,0,1-.212-.233.41.41,0,0,1-.023-.159l-.267-21.234a.415.415,0,0,1,.029-.167.419.419,0,0,1,.094-.142.349.349,0,0,1,.119-.093.327.327,0,0,1,.148-.03h5.859v.843H24.188l.247,20.391h2.9Z" fill="#b4ec36"/><path d="M39.667,39.722H36.4a.387.387,0,0,1-.159-.041.376.376,0,0,1-.128-.1.356.356,0,0,1-.094-.13.385.385,0,0,1-.03-.157V29.239a.4.4,0,0,1,.024-.156.381.381,0,0,1,.083-.134.411.411,0,0,1,.129-.09.394.394,0,0,1,.155-.031h1.87V24.2h.781v5.015a.411.411,0,0,1-.369.432H36.789v9.086h2.878Z" fill="#b4ec36"/><path d="M41.619,17.707H30.067a.535.535,0,0,0-.534.535v5.324a.534.534,0,0,0,.534.534H41.619a.534.534,0,0,0,.535-.534V18.242A.535.535,0,0,0,41.619,17.707Z" fill="#365615"/><path d="M33.192,44.717v-9a.536.536,0,0,0-.535-.535H31.486a.535.535,0,0,0-.535.535v9a.535.535,0,0,0,.535.535h1.171A.536.536,0,0,0,33.192,44.717Z" fill="#365615"/><path d="M29.368,44.758v-9a.534.534,0,0,0-.534-.534H27.662a.534.534,0,0,0-.534.534v9a.534.534,0,0,0,.534.535h1.172A.534.534,0,0,0,29.368,44.758Z" fill="#365615"/><path d="M41.66,44.758v-9a.534.534,0,0,0-.534-.534H39.954a.534.534,0,0,0-.534.534v9a.534.534,0,0,0,.534.535h1.172A.534.534,0,0,0,41.66,44.758Z" fill="#f2f2f2"/><path d="M31.671,31.87a2.309,2.309,0,1,0-2.138-2.3A2.224,2.224,0,0,0,31.671,31.87Z" fill="#f2f2f2"/><path d="M19.337,38.181h-2.61a.7.7,0,0,1-.7-.617V25.518a.7.7,0,0,1,.7-.7h2.61Z" fill="#3b3b3b"/><path d="M47.663,64.982h2.61a.7.7,0,0,1,.7.7v7.194a.7.7,0,0,1-.7.7h-2.61Z" fill="#ffca00"/><path d="M47.663,77.5h2.61a.7.7,0,0,1,.7.7V90.244a.7.7,0,0,1-.7.7h-2.61Z" fill="#ffca00"/><path d="M46.244,62.083H20.8A1.419,1.419,0,0,0,19.378,63.5v28A1.419,1.419,0,0,0,20.8,92.917H46.244A1.419,1.419,0,0,0,47.663,91.5v-28A1.419,1.419,0,0,0,46.244,62.083Z" fill="url(#linear-gradient-3)"/><path d="M27.128,85.517h-1.46a.412.412,0,0,1-.155-.039.439.439,0,0,1-.13-.1.412.412,0,0,1-.105-.3V67.921a.38.38,0,0,1,.107-.289.376.376,0,0,1,.129-.09.39.39,0,0,1,.154-.032h3.967a.391.391,0,0,1,.155.032.376.376,0,0,1,.129.09.38.38,0,0,1,.107.289A.41.41,0,0,1,30,68.08a.4.4,0,0,1-.083.138.407.407,0,0,1-.129.1.412.412,0,0,1-.156.039H26.059v16.3h1.069a.41.41,0,0,1,.285.135.412.412,0,0,1,.105.3.431.431,0,0,1-.111.292A.441.441,0,0,1,27.128,85.517Z" fill="#b4ec36"/><path d="M27.333,87.613H24.044a.4.4,0,0,1-.155-.039.41.41,0,0,1-.212-.233.41.41,0,0,1-.023-.159l-.267-21.234a.415.415,0,0,1,.029-.167.41.41,0,0,1,.094-.142.349.349,0,0,1,.119-.093.341.341,0,0,1,.148-.03h5.859v.843H24.188l.247,20.391h2.9Z" fill="#b4ec36"/><path d="M39.667,85.722H36.4a.387.387,0,0,1-.159-.041.376.376,0,0,1-.128-.1.356.356,0,0,1-.094-.13.387.387,0,0,1-.03-.158V75.239a.4.4,0,0,1,.024-.156.381.381,0,0,1,.083-.134.411.411,0,0,1,.129-.09.394.394,0,0,1,.155-.031h1.87V70.2h.781v5.015a.411.411,0,0,1-.369.432H36.789v9.085h2.878Z" fill="#b4ec36"/><path d="M41.619,63.707H30.067a.534.534,0,0,0-.534.535v5.323a.534.534,0,0,0,.534.535H41.619a.534.534,0,0,0,.535-.535V64.242A.534.534,0,0,0,41.619,63.707Z" fill="#365615"/><path d="M33.192,90.717v-9a.536.536,0,0,0-.535-.535H31.486a.535.535,0,0,0-.535.535v9a.535.535,0,0,0,.535.535h1.171A.536.536,0,0,0,33.192,90.717Z" fill="#365615"/><path d="M29.368,90.758v-9a.534.534,0,0,0-.534-.534H27.662a.534.534,0,0,0-.534.534v9a.535.535,0,0,0,.534.535h1.172A.535.535,0,0,0,29.368,90.758Z" fill="#365615"/><path d="M41.66,90.758v-9a.534.534,0,0,0-.534-.534H39.954a.534.534,0,0,0-.534.534v9a.535.535,0,0,0,.534.535h1.172A.535.535,0,0,0,41.66,90.758Z" fill="#f2f2f2"/><path d="M31.671,77.87a2.308,2.308,0,1,0-2.138-2.3A2.224,2.224,0,0,0,31.671,77.87Z" fill="#f2f2f2"/><path d="M19.337,84.18h-2.61a.7.7,0,0,1-.7-.616V71.518a.7.7,0,0,1,.7-.7h2.61Z" fill="#3b3b3b"/><path d="M118.067,40H91.933a.933.933,0,0,0-.933.933V67.067a.933.933,0,0,0,.933.933h26.134a.933.933,0,0,0,.933-.933V40.933A.933.933,0,0,0,118.067,40Z" fill="url(#linear-gradient-4)"/><path d="M98.826,44.474v2.307a.2.2,0,0,0,.015.076.2.2,0,0,0,.044.065.216.216,0,0,0,.065.043.2.2,0,0,0,.077.015H104.1a.2.2,0,0,1,.141.059.2.2,0,0,1,.058.141v2.439a.2.2,0,0,1-.2.2H99.027a.2.2,0,0,0-.142.058.183.183,0,0,0-.044.065.2.2,0,0,0-.015.076v2.307a.2.2,0,0,1-.033.112.2.2,0,0,1-.09.074.2.2,0,0,1-.115.011.2.2,0,0,1-.1-.055l-3.926-3.926a.2.2,0,0,1-.044-.065A.208.208,0,0,1,94.5,48.4a.2.2,0,0,1,.06-.142l3.926-3.926a.2.2,0,0,1,.1-.055.2.2,0,0,1,.115.011.2.2,0,0,1,.09.074A.2.2,0,0,1,98.826,44.474Z" fill="#fff"/><path d="M98.826,55.674v2.307a.2.2,0,0,0,.015.076.183.183,0,0,0,.044.065.216.216,0,0,0,.065.043.2.2,0,0,0,.077.015H104.1a.2.2,0,0,1,.141.059.2.2,0,0,1,.058.142V60.82a.2.2,0,0,1-.058.141.2.2,0,0,1-.141.059H99.027a.2.2,0,0,0-.077.015.216.216,0,0,0-.065.043.192.192,0,0,0-.044.065.2.2,0,0,0-.015.076v2.307a.2.2,0,0,1-.033.112.2.2,0,0,1-.09.074.2.2,0,0,1-.115.011.2.2,0,0,1-.1-.055l-3.926-3.926a.2.2,0,0,1-.06-.142.208.208,0,0,1,.016-.077.2.2,0,0,1,.044-.065l3.926-3.926a.2.2,0,0,1,.1-.055.2.2,0,0,1,.115.011.2.2,0,0,1,.09.074A.2.2,0,0,1,98.826,55.674Z" fill="#fff"/><path d="M111.515,44.332l3.926,3.926a.2.2,0,0,1,.06.142.208.208,0,0,1-.016.077.2.2,0,0,1-.044.065l-3.926,3.926a.2.2,0,0,1-.1.055.2.2,0,0,1-.115-.011.2.2,0,0,1-.09-.074.2.2,0,0,1-.033-.112V50.019a.2.2,0,0,0-.015-.076.183.183,0,0,0-.044-.065.2.2,0,0,0-.142-.058H105.9a.2.2,0,0,1-.2-.2V47.18a.2.2,0,0,1,.058-.141.2.2,0,0,1,.141-.059h5.074a.2.2,0,0,0,.077-.015.216.216,0,0,0,.065-.043.2.2,0,0,0,.044-.065.2.2,0,0,0,.015-.076V44.474a.2.2,0,0,1,.033-.112.2.2,0,0,1,.09-.074.2.2,0,0,1,.115-.011A.2.2,0,0,1,111.515,44.332Z" fill="#fff"/><path d="M111.515,55.532l3.926,3.926a.2.2,0,0,1,.044.065.208.208,0,0,1,.016.077.2.2,0,0,1-.06.142l-3.926,3.926a.2.2,0,0,1-.1.055.2.2,0,0,1-.115-.011.2.2,0,0,1-.09-.074.2.2,0,0,1-.033-.112V61.219a.2.2,0,0,0-.015-.076.192.192,0,0,0-.044-.065.216.216,0,0,0-.065-.043.2.2,0,0,0-.077-.015H105.9a.2.2,0,0,1-.141-.059.2.2,0,0,1-.058-.141V58.381a.2.2,0,0,1,.058-.142.2.2,0,0,1,.141-.059h5.074a.2.2,0,0,0,.077-.015.216.216,0,0,0,.065-.043.183.183,0,0,0,.044-.065.2.2,0,0,0,.015-.076V55.674a.2.2,0,0,1,.033-.112.2.2,0,0,1,.09-.074.2.2,0,0,1,.115-.011A.2.2,0,0,1,111.515,55.532Z" fill="#fff"/><rect x="0.5" y="0.5" width="204" height="110" fill="none" stroke="#b3b3b3" stroke-dasharray="2 2"/><path d="M147.939,53.5l-5-2.887v5.774Zm-26.878.5h22.378V53H121.061Z" fill="#b3b3b3"/><path d="M61.189,32.794h.5a.5.5,0,0,0-.5-.5Zm0,16.412h-.5a.5.5,0,0,0,.5.5Zm28.793,0-5-2.887v5.774ZM54.018,33.294h7.171v-1H54.018Zm6.671-.5V49.206h1V32.794Zm.5,16.912H85.482v-1H61.189Z" fill="#b3b3b3"/><path d="M61,76.156v.5a.5.5,0,0,0,.5-.5Zm0-16.312v-.5a.5.5,0,0,0-.5.5Zm28.955,0-5-2.887V62.73ZM53.045,76.656H61v-1H53.045Zm8.455-.5V59.844h-1V76.156ZM61,60.344H85.455v-1H61Z" fill="#b3b3b3"/></svg>