<svg width="16" height="16" viewBox="0 0 16 16" fill="none" xmlns="http://www.w3.org/2000/svg">
<path d="M7.99989 15.5554C12.1727 15.5554 15.5554 12.1727 15.5554 7.99989C15.5554 3.82707 12.1727 0.444336 7.99989 0.444336C3.82707 0.444336 0.444336 3.82707 0.444336 7.99989C0.444336 12.1727 3.82707 15.5554 7.99989 15.5554Z" fill="url(#paint0_radial_1457_512)"/>
<path d="M8.00014 14.5777C11.6329 14.5777 14.5779 11.6327 14.5779 7.9999C14.5779 4.36709 11.6329 1.42212 8.00014 1.42212C4.36733 1.42212 1.42236 4.36709 1.42236 7.9999C1.42236 11.6327 4.36733 14.5777 8.00014 14.5777Z" fill="white"/>
<path d="M9.27123 7.27989L11.6979 9.83989L11.0135 10.551L7.90234 7.27989L10.969 4.05322L11.6535 4.76433L9.27123 7.27989Z" fill="#5E9624"/>
<path d="M11.6979 9.83978L9.27126 7.27979L8.5957 7.9909L11.0135 10.5509L11.6979 9.83978Z" fill="#86D633"/>
<path d="M6.45342 8.6754L4.03564 11.2354L4.7112 11.9465L7.82231 8.6754L4.75564 5.44873L4.0712 6.15984L6.45342 8.6754Z" fill="#5E9624"/>
<path d="M4.03564 11.2353L6.45342 8.67529L7.12898 9.3864L4.7112 11.9464L4.03564 11.2353Z" fill="#86D633"/>
<defs>
<radialGradient id="paint0_radial_1457_512" cx="0" cy="0" r="1" gradientUnits="userSpaceOnUse" gradientTransform="translate(7.81749 7.82869) scale(7.52)">
<stop offset="0.18" stop-color="#5EA0EF"/>
<stop offset="0.56" stop-color="#5C9FEE"/>
<stop offset="0.69" stop-color="#559CED"/>
<stop offset="0.78" stop-color="#4A97E9"/>
<stop offset="0.86" stop-color="#3990E4"/>
<stop offset="0.93" stop-color="#2387DE"/>
<stop offset="0.99" stop-color="#087BD6"/>
<stop offset="1" stop-color="#0078D4"/>
</radialGradient>
</defs>
</svg>
