<svg width="16" height="16" viewBox="0 0 16 16" fill="none" xmlns="http://www.w3.org/2000/svg">
<path d="M16 9.64299C15.9746 8.8067 15.6468 8.00656 15.0752 7.3856C14.5037 6.76465 13.7257 6.36337 12.8803 6.25351C12.8289 5.0851 12.3102 3.98363 11.4367 3.18783C10.5632 2.39203 9.40525 1.96602 8.21379 2.00212C7.25095 1.98502 6.30648 2.26178 5.51091 2.79414C4.71535 3.32649 4.10797 4.08816 3.77274 4.97386C2.75343 5.09473 1.81213 5.57031 1.11984 6.31421C0.427554 7.0581 0.0302111 8.02096 0 9.02785C0.0453682 10.1572 0.54517 11.2228 1.3899 11.9913C2.23462 12.7598 3.35539 13.1684 4.50662 13.1277C4.64047 13.1277 4.77611 13.1215 4.90276 13.1109H12.1985C12.2636 13.1096 12.3282 13.1002 12.3907 13.0827C13.3282 13.0763 14.227 12.7149 14.8995 12.074C15.572 11.4331 15.9662 10.5622 16 9.64299V9.64299Z" fill="url(#paint0_linear_1457_550)"/>
<defs>
<linearGradient id="paint0_linear_1457_550" x1="8.0009" y1="13.1277" x2="8.0009" y2="2.00212" gradientUnits="userSpaceOnUse">
<stop stop-color="#0078D4"/>
<stop offset="0.156" stop-color="#1380DA"/>
<stop offset="0.528" stop-color="#3C91E5"/>
<stop offset="0.822" stop-color="#559CEC"/>
<stop offset="1" stop-color="#5EA0EF"/>
</linearGradient>
</defs>
</svg>
