<svg width="16" height="16" viewBox="0 0 16 16" fill="none" xmlns="http://www.w3.org/2000/svg">
<path d="M5.75717 4.15713C2.59006 4.1496 0.0255412 3.21219 0.0283791 2.06396L0 13.1218C0 14.2606 2.51911 15.1924 5.65027 15.2149H5.72973C8.89684 15.2234 11.467 14.2992 11.4699 13.151L11.5001 2.09314C11.4945 3.24137 8.92427 4.1656 5.75717 4.15713Z" fill="url(#paint0_linear_1543_1701)"/>
<path d="M11.5001 2.09322C11.5001 3.24145 8.92705 4.1638 5.75995 4.15721C2.59284 4.15062 0.0254848 3.21227 0.0283227 2.06405C0.0311606 0.915817 2.60136 -0.00841277 5.76846 5.77619e-05C8.93556 0.0085283 11.501 0.941229 11.4972 2.09322" fill="#E6E6E6"/>
<path d="M10.16 1.92158C10.16 2.65099 8.18762 3.23922 5.76027 3.23169C3.33291 3.22416 1.3653 2.62934 1.36719 1.899C1.36908 1.16865 3.33953 0.581357 5.76689 0.587946C8.19425 0.594534 10.1619 1.19124 10.16 1.92158Z" fill="#50E6FF"/>
<path d="M5.76281 2.21444C4.58195 2.18411 3.40431 2.35081 2.27881 2.70762C3.39996 3.08148 4.57784 3.25885 5.75997 3.23185C6.94177 3.26589 8.12056 3.09584 9.24398 2.72926C8.12065 2.36535 6.94396 2.19133 5.76281 2.21444Z" fill="#198AB3"/>
<path d="M12.1081 8.50181C9.95979 8.49616 8.2211 7.86087 8.22299 7.08252L8.20312 14.5808C8.20312 15.3526 9.91249 15.9841 12.0352 16.0001H12.0882C14.2365 16.0058 15.979 15.3789 15.9809 14.6006L15.9998 7.10228C15.9979 7.88063 14.2554 8.50745 12.1081 8.50181Z" fill="url(#paint1_linear_1543_1701)"/>
<path d="M16 7.10243C16 7.88078 14.2556 8.5076 12.1082 8.50195C9.96089 8.4963 8.22125 7.86101 8.22315 7.08266C8.22504 6.30432 9.96751 5.6775 12.1149 5.68314C14.2622 5.68879 16.0028 6.32408 16 7.10243Z" fill="#E6E6E6"/>
<path d="M15.0948 6.9856C15.0948 7.48065 13.7581 7.87783 12.1112 7.87406C10.4643 7.8703 9.13141 7.46559 9.1333 6.97054C9.13519 6.47548 10.47 6.07737 12.1159 6.08207C13.7619 6.08678 15.0957 6.49054 15.0948 6.9856Z" fill="#50E6FF"/>
<path d="M12.111 7.18399C11.3095 7.16356 10.5102 7.27648 9.74609 7.51811C10.5062 7.77188 11.3048 7.89226 12.1063 7.87387C12.9086 7.89658 13.7089 7.78034 14.4712 7.53034C13.7093 7.28511 12.9116 7.16805 12.111 7.18399Z" fill="#198AB3"/>
<path d="M12.7716 9.49567C12.7567 9.48721 12.7397 9.48298 12.7224 9.48343C12.7054 9.48529 12.6888 9.49059 12.6739 9.499C12.6589 9.50742 12.6458 9.51877 12.6354 9.53237L10.5089 12.6119C10.498 12.628 10.4912 12.6466 10.489 12.6659C10.4869 12.6852 10.4895 12.7048 10.4966 12.7229C10.5069 12.7404 10.5214 12.755 10.5387 12.7657C10.556 12.7763 10.5756 12.7827 10.5959 12.7841H11.8692L11.3016 14.642C11.2921 14.6647 11.2919 14.6903 11.3011 14.7132C11.3103 14.736 11.3281 14.7544 11.3508 14.7643C11.3652 14.7741 11.3826 14.7784 11.4 14.7766C11.4171 14.7747 11.4336 14.7694 11.4486 14.761C11.4635 14.7526 11.4766 14.7412 11.487 14.7276L13.676 11.6114C13.6883 11.5869 13.7006 11.5747 13.7006 11.5502C13.7007 11.5357 13.6979 11.5213 13.6924 11.5078C13.6869 11.4943 13.6788 11.4821 13.6685 11.4718C13.6582 11.4614 13.646 11.4532 13.6325 11.4477C13.619 11.4421 13.6045 11.4392 13.5899 11.4392H12.2769L12.8246 9.61896C12.8294 9.60741 12.8318 9.59504 12.8317 9.58257C12.8316 9.57009 12.829 9.55776 12.8241 9.54628C12.8191 9.53481 12.812 9.52443 12.803 9.51574C12.794 9.50705 12.7833 9.50022 12.7716 9.49567Z" fill="#F2F2F2"/>
<defs>
<linearGradient id="paint0_linear_1543_1701" x1="0.0110471" y1="8.6329" x2="11.4799" y2="8.66248" gradientUnits="userSpaceOnUse">
<stop stop-color="#005BA1"/>
<stop offset="0.068" stop-color="#0060A9"/>
<stop offset="0.356" stop-color="#0071C8"/>
<stop offset="0.517" stop-color="#0078D4"/>
<stop offset="0.642" stop-color="#0074CD"/>
<stop offset="0.82" stop-color="#006ABB"/>
<stop offset="1" stop-color="#005BA1"/>
</linearGradient>
<linearGradient id="paint1_linear_1543_1701" x1="8.21049" y1="11.5369" x2="15.9882" y2="11.5569" gradientUnits="userSpaceOnUse">
<stop stop-color="#32BEDD"/>
<stop offset="0.322" stop-color="#47DAF5"/>
<stop offset="0.517" stop-color="#50E6FF"/>
<stop offset="0.664" stop-color="#4BDFF9"/>
<stop offset="0.872" stop-color="#3DCDEA"/>
<stop offset="1" stop-color="#32BEDD"/>
</linearGradient>
</defs>
</svg>
