<svg width="16" height="16" viewBox="0 0 16 16" fill="none" xmlns="http://www.w3.org/2000/svg">
<path d="M12.4187 7.16356C12.348 7.16356 12.2802 7.13546 12.2302 7.08545C12.1802 7.03544 12.1521 6.96761 12.1521 6.89689C12.1511 6.0888 11.8297 5.31407 11.2583 4.74267C10.6869 4.17126 9.91216 3.84983 9.10407 3.84889C9.06905 3.84889 9.03437 3.84199 9.00202 3.82859C8.96967 3.81519 8.94027 3.79555 8.91551 3.77078C8.89074 3.74602 8.8711 3.71662 8.8577 3.68427C8.8443 3.65192 8.8374 3.61724 8.8374 3.58222C8.8374 3.5472 8.8443 3.51253 8.8577 3.48017C8.8711 3.44782 8.89074 3.41842 8.91551 3.39366C8.94027 3.3689 8.96967 3.34926 9.00202 3.33585C9.03437 3.32245 9.06905 3.31556 9.10407 3.31556C9.91223 3.31461 10.687 2.99303 11.2583 2.42141C11.8296 1.84978 12.1507 1.07483 12.1512 0.266667C12.1512 0.195942 12.1793 0.128115 12.2293 0.0781049C12.2793 0.0280952 12.3471 0 12.4178 0V0C12.4886 0 12.5564 0.0280952 12.6064 0.0781049C12.6564 0.128115 12.6845 0.195942 12.6845 0.266667C12.6855 1.07491 13.007 1.84977 13.5786 2.4212C14.1502 2.99264 14.9252 3.31396 15.7334 3.31467C15.8041 3.31467 15.872 3.34276 15.922 3.39277C15.972 3.44278 16.0001 3.51061 16.0001 3.58133C16.0001 3.65206 15.972 3.71989 15.922 3.7699C15.872 3.81991 15.8041 3.848 15.7334 3.848C14.9255 3.84894 14.151 4.17028 13.5798 4.74152C13.0086 5.31276 12.6872 6.08726 12.6863 6.89511C12.6863 6.93013 12.6794 6.96481 12.666 6.99716C12.6526 7.02951 12.6329 7.05891 12.6082 7.08367C12.5834 7.10844 12.554 7.12808 12.5217 7.14148C12.4893 7.15488 12.4546 7.16178 12.4196 7.16178L12.4187 7.16356Z" fill="#5E9624"/>
<path d="M6.63022 0H0.533333C0.238781 0 0 0.238781 0 0.533333V6.63022C0 6.92477 0.238781 7.16356 0.533333 7.16356H6.63022C6.92477 7.16356 7.16356 6.92477 7.16356 6.63022V0.533333C7.16356 0.238781 6.92477 0 6.63022 0Z" fill="url(#paint0_linear_1457_598)"/>
<path d="M6.63022 8.83643H0.533333C0.238781 8.83643 0 9.07521 0 9.36976V15.4666C0 15.7612 0.238781 16 0.533333 16H6.63022C6.92477 16 7.16356 15.7612 7.16356 15.4666V9.36976C7.16356 9.07521 6.92477 8.83643 6.63022 8.83643Z" fill="url(#paint1_linear_1457_598)"/>
<path d="M15.4666 8.83643H9.36976C9.07521 8.83643 8.83643 9.07521 8.83643 9.36976V15.4666C8.83643 15.7612 9.07521 16 9.36976 16H15.4666C15.7612 16 16 15.7612 16 15.4666V9.36976C16 9.07521 15.7612 8.83643 15.4666 8.83643Z" fill="url(#paint2_linear_1457_598)"/>
<path d="M5.79189 6.327H1.37145C1.23 6.327 1.09435 6.27081 0.994326 6.17079C0.894306 6.07078 0.838116 5.93512 0.838116 5.79367V1.36878C0.838116 1.22733 0.894306 1.09168 0.994326 0.991659C1.09435 0.891639 1.23 0.835449 1.37145 0.835449H5.79189C5.93334 0.835449 6.069 0.891639 6.16902 0.991659C6.26904 1.09168 6.32523 1.22733 6.32523 1.36878V5.79189C6.32523 5.93334 6.26904 6.069 6.16902 6.16902C6.069 6.26904 5.93334 6.32523 5.79189 6.32523V6.327ZM6.32523 14.6283V10.2079C6.32523 10.0664 6.26904 9.93079 6.16902 9.83077C6.069 9.73075 5.93334 9.67456 5.79189 9.67456H1.36878C1.22733 9.67456 1.09168 9.73075 0.991659 9.83077C0.891639 9.93079 0.835449 10.0664 0.835449 10.2079V14.6301C0.835449 14.7716 0.891639 14.9072 0.991659 15.0072C1.09168 15.1073 1.22733 15.1634 1.36878 15.1634H5.79189C5.93334 15.1634 6.069 15.1073 6.16902 15.0072C6.26904 14.9072 6.32523 14.7716 6.32523 14.6301V14.6283ZM15.1626 14.6283V10.2079C15.1626 10.0664 15.1064 9.93079 15.0064 9.83077C14.9063 9.73075 14.7707 9.67456 14.6292 9.67456H10.2061C10.0647 9.67456 9.92901 9.73075 9.82899 9.83077C9.72897 9.93079 9.67278 10.0664 9.67278 10.2079V14.6301C9.67278 14.7716 9.72897 14.9072 9.82899 15.0072C9.92901 15.1073 10.0647 15.1634 10.2061 15.1634H14.6266C14.697 15.164 14.7668 15.1507 14.832 15.1241C14.8972 15.0976 14.9566 15.0584 15.0066 15.0088C15.0566 14.9592 15.0962 14.9002 15.1233 14.8352C15.1504 14.7702 15.1643 14.7005 15.1643 14.6301V14.6239L15.1626 14.6283Z" fill="#86D633"/>
<defs>
<linearGradient id="paint0_linear_1457_598" x1="3.58222" y1="0" x2="3.58222" y2="7.16356" gradientUnits="userSpaceOnUse">
<stop stop-color="#86D633"/>
<stop offset="1" stop-color="#76BC2D"/>
</linearGradient>
<linearGradient id="paint1_linear_1457_598" x1="3.58222" y1="8.94131" x2="3.58222" y2="1.77776" gradientUnits="userSpaceOnUse">
<stop stop-color="#86D633"/>
<stop offset="1" stop-color="#76BC2D"/>
</linearGradient>
<linearGradient id="paint2_linear_1457_598" x1="12.4178" y1="8.94131" x2="12.4178" y2="1.77776" gradientUnits="userSpaceOnUse">
<stop stop-color="#86D633"/>
<stop offset="1" stop-color="#76BC2D"/>
</linearGradient>
</defs>
</svg>
