<svg width="16" height="16" viewBox="0 0 16 16" fill="none" xmlns="http://www.w3.org/2000/svg">
<path d="M3.71055 0H2.55322C2.26063 0 2.02344 0.23719 2.02344 0.529778V15.4702C2.02344 15.7628 2.26063 16 2.55322 16H3.71055C4.00314 16 4.24033 15.7628 4.24033 15.4702V0.529778C4.24033 0.23719 4.00314 0 3.71055 0Z" fill="#0078D4"/>
<path d="M8.52549 0H7.36816C7.07557 0 6.83838 0.23719 6.83838 0.529778V15.4702C6.83838 15.7628 7.07557 16 7.36816 16H8.52549C8.81808 16 9.05527 15.7628 9.05527 15.4702V0.529778C9.05527 0.23719 8.81808 0 8.52549 0Z" fill="#0078D4"/>
<path d="M13.4181 0H12.2607C11.9681 0 11.731 0.23719 11.731 0.529778V15.4702C11.731 15.7628 11.9681 16 12.2607 16H13.4181C13.7107 16 13.9478 15.7628 13.9478 15.4702V0.529778C13.9478 0.23719 13.7107 0 13.4181 0Z" fill="#0078D4"/>
<path d="M3.71055 5.47729H2.55322C2.26063 5.47729 2.02344 5.71448 2.02344 6.00707V15.4702C2.02344 15.7628 2.26063 16 2.55322 16H3.71055C4.00314 16 4.24033 15.7628 4.24033 15.4702V6.00707C4.24033 5.71448 4.00314 5.47729 3.71055 5.47729Z" fill="url(#paint0_linear_1496_116)"/>
<path d="M8.52549 12.6721H7.36816C7.07557 12.6721 6.83838 12.9093 6.83838 13.2019V15.4703C6.83838 15.7629 7.07557 16.0001 7.36816 16.0001H8.52549C8.81808 16.0001 9.05527 15.7629 9.05527 15.4703V13.2019C9.05527 12.9093 8.81808 12.6721 8.52549 12.6721Z" fill="url(#paint1_linear_1496_116)"/>
<path d="M13.4181 5.47729H12.2607C11.9681 5.47729 11.731 5.71448 11.731 6.00707V15.4702C11.731 15.7628 11.9681 16 12.2607 16H13.4181C13.7107 16 13.9478 15.7628 13.9478 15.4702V6.00707C13.9478 5.71448 13.7107 5.47729 13.4181 5.47729Z" fill="url(#paint2_linear_1496_116)"/>
<path d="M4.3113 5.36353H2.01086C1.72171 5.36353 1.4873 5.59793 1.4873 5.88708C1.4873 6.17623 1.72171 6.41064 2.01086 6.41064H4.3113C4.60046 6.41064 4.83486 6.17623 4.83486 5.88708C4.83486 5.59793 4.60046 5.36353 4.3113 5.36353Z" fill="#E6E6E6"/>
<path d="M9.14334 12.4133H6.84289C6.55374 12.4133 6.31934 12.6477 6.31934 12.9369C6.31934 13.226 6.55374 13.4604 6.84289 13.4604H9.14334C9.43249 13.4604 9.66689 13.226 9.66689 12.9369C9.66689 12.6477 9.43249 12.4133 9.14334 12.4133Z" fill="#E6E6E6"/>
<path d="M13.9895 5.36353H11.6891C11.3999 5.36353 11.1655 5.59793 11.1655 5.88708C11.1655 6.17623 11.3999 6.41064 11.6891 6.41064H13.9895C14.2787 6.41064 14.5131 6.17623 14.5131 5.88708C14.5131 5.59793 14.2787 5.36353 13.9895 5.36353Z" fill="#E6E6E6"/>
<defs>
<linearGradient id="paint0_linear_1496_116" x1="3.13277" y1="5.47729" x2="3.13277" y2="16" gradientUnits="userSpaceOnUse">
<stop offset="0.17" stop-color="#50E6FF"/>
<stop offset="0.635" stop-color="#3DCDEA"/>
<stop offset="1" stop-color="#32BEDD"/>
</linearGradient>
<linearGradient id="paint1_linear_1496_116" x1="7.94771" y1="12.6721" x2="7.94771" y2="0.00011787" gradientUnits="userSpaceOnUse">
<stop offset="0.17" stop-color="#50E6FF"/>
<stop offset="0.635" stop-color="#3DCDEA"/>
<stop offset="1" stop-color="#32BEDD"/>
</linearGradient>
<linearGradient id="paint2_linear_1496_116" x1="12.8394" y1="5.47729" x2="12.8394" y2="-3.81619e-05" gradientUnits="userSpaceOnUse">
<stop offset="0.17" stop-color="#50E6FF"/>
<stop offset="0.635" stop-color="#3DCDEA"/>
<stop offset="1" stop-color="#32BEDD"/>
</linearGradient>
</defs>
</svg>
