<svg xmlns="http://www.w3.org/2000/svg" width="18" height="18" viewBox="0 0 18 18">
  <defs>
    <linearGradient id="adfa8e4e-1f23-48f9-9e52-8a2742c1922a" x1="9" y1="12.93" x2="9" y2="0.173" gradientUnits="userSpaceOnUse">
      <stop offset="0" stop-color="#0078d4"/>
      <stop offset="1" stop-color="#5ea0ef"/>
    </linearGradient>
  </defs>
  <g id="a3322c1b-e71d-4e72-b6f5-4eec2b74a114">
    <g>
      <path d="M17.567,15.119c-.159.7-1.029,1.382-2.6,1.916a21.455,21.455,0,0,1-12.052.017C1.466,16.539.684,15.89.562,15.221c-.021-.118,0-1.954,0-1.954L17.6,13.109S17.587,15.033,17.567,15.119Z" fill="#5ea0ef"/>
      <ellipse cx="9.07" cy="13.229" rx="8.525" ry="2.947" transform="translate(-0.132 0.092) rotate(-0.575)" fill="#50e6ff"/>
    </g>
    <path d="M18,8.934a4.044,4.044,0,0,0-3.51-3.887A5.1,5.1,0,0,0,9.24.173a5.228,5.228,0,0,0-5,3.407A4.826,4.826,0,0,0,0,8.224,4.9,4.9,0,0,0,5.068,12.93c.151,0,.3-.007.447-.019h8.207a.819.819,0,0,0,.217-.032A4.093,4.093,0,0,0,18,8.934Z" fill="url(#adfa8e4e-1f23-48f9-9e52-8a2742c1922a)"/>
    <rect x="4.47" y="6.267" width="8.973" height="2.453" rx="0.3" fill="#9cebff"/>
    <rect x="4.47" y="9.123" width="8.973" height="2.453" rx="0.3" fill="#50e6ff"/>
    <rect x="4.47" y="12.027" width="8.973" height="2.453" rx="0.3" fill="#32bedd"/>
    <path d="M12.569,7.367H12.2a.15.15,0,0,1-.15-.15V6.846a.15.15,0,0,1,.15-.15h.37a.15.15,0,0,1,.15.15v.371A.15.15,0,0,1,12.569,7.367Zm.15.774v-.37a.15.15,0,0,0-.15-.15H12.2a.15.15,0,0,0-.15.15v.37a.15.15,0,0,0,.15.15h.37A.15.15,0,0,0,12.719,8.141Zm0,1.932V9.7a.15.15,0,0,0-.15-.15H12.2a.15.15,0,0,0-.15.15v.371a.15.15,0,0,0,.15.15h.37A.15.15,0,0,0,12.719,10.073Zm0,.924v-.371a.15.15,0,0,0-.15-.15H12.2a.15.15,0,0,0-.15.15V11a.15.15,0,0,0,.15.15h.37A.15.15,0,0,0,12.719,11Zm0,1.98v-.371a.15.15,0,0,0-.15-.15H12.2a.15.15,0,0,0-.15.15v.371a.15.15,0,0,0,.15.15h.37A.15.15,0,0,0,12.719,12.977Zm0,.924v-.37a.15.15,0,0,0-.15-.15H12.2a.15.15,0,0,0-.15.15v.37a.15.15,0,0,0,.15.15h.37A.15.15,0,0,0,12.719,13.9Z" fill="#fff"/>
  </g>
</svg>
