<svg width="16" height="16" viewBox="0 0 16 16" fill="none" xmlns="http://www.w3.org/2000/svg">
<path d="M8.01878 13.1049C11.3914 13.1049 14.1254 12.4614 14.1254 11.6676C14.1254 10.8737 11.3914 10.2302 8.01878 10.2302C4.64616 10.2302 1.91211 10.8737 1.91211 11.6676C1.91211 12.4614 4.64616 13.1049 8.01878 13.1049Z" fill="#198AB3"/>
<path d="M14.1254 14.4959V11.6675C14.1254 12.4613 11.3911 13.1048 8.01869 13.1048C4.64624 13.1048 1.91113 12.4613 1.91113 11.6675V14.5626C1.91113 15.3564 4.64536 15.9999 8.0178 15.9999C11.32 15.9999 14.008 15.383 14.12 14.6115V14.5937C14.12 14.5839 14.12 14.5733 14.12 14.5626C14.12 14.5519 14.12 14.5448 14.12 14.5359V14.4968L14.1254 14.4959Z" fill="#005BA1"/>
<path d="M8.01878 7.98941C11.3914 7.98941 14.1254 7.3459 14.1254 6.55208C14.1254 5.75826 11.3914 5.11475 8.01878 5.11475C4.64616 5.11475 1.91211 5.75826 1.91211 6.55208C1.91211 7.3459 4.64616 7.98941 8.01878 7.98941Z" fill="#32BEDD"/>
<path d="M14.1254 9.38134V6.552C14.1254 7.34667 11.3911 7.99022 8.01869 7.99022C4.64624 7.99022 1.91113 7.34667 1.91113 6.552V9.448C1.91113 10.2418 4.64536 10.8853 8.0178 10.8853C11.32 10.8853 14.008 10.2684 14.12 9.49689V9.47911C14.12 9.46845 14.12 9.45867 14.12 9.448C14.12 9.43734 14.12 9.43022 14.12 9.42134V9.38222L14.1254 9.38134Z" fill="#0078D4"/>
<path d="M8.00022 2.87548C4.66511 2.87548 1.95578 2.24526 1.89889 1.46392H1.89355V4.33237C1.89355 5.12703 4.62778 5.77059 8.00022 5.77059C11.3024 5.77059 13.9904 5.1537 14.1016 4.38214V4.36437C14.1016 4.3537 14.1016 4.34303 14.1016 4.33237C14.102 4.32378 14.102 4.31518 14.1016 4.30659V4.26659V1.43726C14.1069 2.23103 11.3727 2.87548 8.00022 2.87548Z" fill="#5EA0EF"/>
<path d="M8.00022 2.87467C11.3728 2.87467 14.1069 2.23115 14.1069 1.43733C14.1069 0.643516 11.3728 0 8.00022 0C4.6276 0 1.89355 0.643516 1.89355 1.43733C1.89355 2.23115 4.6276 2.87467 8.00022 2.87467Z" fill="#9CEBFF"/>
</svg>
