<svg width="16" height="16" viewBox="0 0 16 16" fill="none" xmlns="http://www.w3.org/2000/svg">
<path d="M12.4444 6.34656C12.6178 6.1806 12.7559 5.98123 12.8501 5.76048C12.9444 5.53973 12.9931 5.30216 12.9931 5.06212C12.9931 4.82207 12.9444 4.58451 12.8501 4.36375C12.7559 4.143 12.6178 3.94363 12.4444 3.77767L9.27994 0.648782C9.11411 0.476725 8.91528 0.339868 8.69535 0.246391C8.47543 0.152915 8.23891 0.104736 7.99994 0.104736C7.76098 0.104736 7.52446 0.152915 7.30453 0.246391C7.08461 0.339868 6.88578 0.476725 6.71994 0.648782L3.59994 3.77767C3.42651 3.94363 3.28848 4.143 3.19418 4.36375C3.09988 4.58451 3.05127 4.82207 3.05127 5.06212C3.05127 5.30216 3.09988 5.53973 3.19418 5.76048C3.28848 5.98123 3.42651 6.1806 3.59994 6.34656L6.22217 8.951C6.27061 8.99657 6.30906 9.0517 6.33507 9.11291C6.36108 9.17412 6.3741 9.24006 6.37328 9.30656V14.151C6.37325 14.3139 6.43708 14.4702 6.55105 14.5866L7.73328 15.7688C7.77072 15.8092 7.8161 15.8414 7.86658 15.8634C7.91705 15.8855 7.97153 15.8968 8.02661 15.8968C8.08169 15.8968 8.13617 15.8855 8.18664 15.8634C8.23712 15.8414 8.2825 15.8092 8.31994 15.7688L9.46661 14.6221L10.1422 13.9466C10.1846 13.9006 10.2082 13.8403 10.2082 13.7777C10.2082 13.7151 10.1846 13.6548 10.1422 13.6088L9.65328 13.1199C9.60703 13.0705 9.58131 13.0053 9.58131 12.9377C9.58131 12.87 9.60703 12.8049 9.65328 12.7554L10.1422 12.2666C10.1846 12.2206 10.2082 12.1603 10.2082 12.0977C10.2082 12.0351 10.1846 11.9748 10.1422 11.9288L9.65328 11.4399C9.60703 11.3905 9.58131 11.3253 9.58131 11.2577C9.58131 11.19 9.60703 11.1249 9.65328 11.0754L10.1422 10.5866C10.184 10.542 10.2074 10.4832 10.2074 10.4221C10.2074 10.361 10.184 10.3022 10.1422 10.2577L9.46661 9.57323V9.32434L12.4444 6.34656ZM7.99994 1.40434C8.20388 1.40434 8.40323 1.46481 8.5728 1.57811C8.74236 1.69141 8.87452 1.85245 8.95257 2.04086C9.03061 2.22927 9.05103 2.43659 9.01124 2.63661C8.97146 2.83662 8.87325 3.02035 8.72905 3.16455C8.58485 3.30876 8.40112 3.40696 8.2011 3.44675C8.00109 3.48653 7.79377 3.46611 7.60535 3.38807C7.41694 3.31003 7.25591 3.17787 7.14261 3.0083C7.02931 2.83874 6.96883 2.63938 6.96883 2.43545C6.96765 2.29971 6.99351 2.1651 7.04491 2.03946C7.0963 1.91383 7.17221 1.79969 7.2682 1.7037C7.36418 1.60772 7.47832 1.53181 7.60396 1.48041C7.72959 1.42901 7.86421 1.40315 7.99994 1.40434Z" fill="url(#paint0_radial_1457_579)"/>
<path opacity="0.75" d="M7.19096 14.2221C7.22303 14.2518 7.26318 14.2715 7.30637 14.2785C7.34956 14.2856 7.39387 14.2797 7.43375 14.2617C7.47362 14.2436 7.50728 14.2142 7.5305 14.1771C7.55372 14.1401 7.56548 14.0969 7.56429 14.0532V10.1421C7.56364 10.1033 7.5536 10.0652 7.53502 10.0312C7.51644 9.99711 7.48989 9.96806 7.45763 9.94652C7.42352 9.92573 7.38443 9.91452 7.34449 9.91408C7.30455 9.91363 7.26522 9.92395 7.23065 9.94397C7.19608 9.96398 7.16755 9.99294 7.14805 10.0278C7.12855 10.0627 7.11881 10.1021 7.11985 10.1421V14.0532C7.11841 14.0848 7.12405 14.1164 7.13635 14.1457C7.14865 14.1749 7.1673 14.201 7.19096 14.2221Z" fill="#258277"/>
<path opacity="0.75" d="M10.3553 4.81763H5.77751C5.62532 4.81763 5.50195 4.941 5.50195 5.09318V5.14652C5.50195 5.2987 5.62532 5.42207 5.77751 5.42207H10.3553C10.5075 5.42207 10.6308 5.2987 10.6308 5.14652V5.09318C10.6308 4.941 10.5075 4.81763 10.3553 4.81763Z" fill="#258277"/>
<path opacity="0.75" d="M10.3553 5.80444H5.77751C5.62532 5.80444 5.50195 5.92781 5.50195 6.08V6.13333C5.50195 6.28552 5.62532 6.40889 5.77751 6.40889H10.3553C10.5075 6.40889 10.6308 6.28552 10.6308 6.13333V6.08C10.6308 5.92781 10.5075 5.80444 10.3553 5.80444Z" fill="#258277"/>
<defs>
<radialGradient id="paint0_radial_1457_579" cx="0" cy="0" r="1" gradientUnits="userSpaceOnUse" gradientTransform="translate(6.64741 7.01056) scale(9.20782)">
<stop offset="0.27" stop-color="#3CD4C2"/>
<stop offset="0.55" stop-color="#39C8B7"/>
<stop offset="0.66" stop-color="#37C2B1"/>
</radialGradient>
</defs>
</svg>
