<svg width="16" height="16" viewBox="0 0 16 16" fill="none" xmlns="http://www.w3.org/2000/svg">
<path d="M0.888672 5.30933H15.1109V13.2382C15.1109 13.3007 15.0986 13.3625 15.0747 13.4202C15.0508 13.4779 15.0158 13.5303 14.9716 13.5745C14.9274 13.6186 14.875 13.6537 14.8173 13.6776C14.7596 13.7015 14.6978 13.7138 14.6353 13.7138H1.36423C1.30178 13.7138 1.23994 13.7015 1.18224 13.6776C1.12454 13.6537 1.07212 13.6186 1.02796 13.5745C0.983799 13.5303 0.94877 13.4779 0.924871 13.4202C0.900972 13.3625 0.888672 13.3007 0.888672 13.2382V5.30933Z" fill="url(#paint0_linear_1457_588)"/>
<path d="M1.3669 2.27833H14.6327C14.6955 2.27798 14.7578 2.29007 14.8159 2.31393C14.874 2.33778 14.9268 2.37291 14.9713 2.41729C15.0158 2.46168 15.051 2.51443 15.075 2.57251C15.0989 2.63059 15.1111 2.69284 15.1109 2.75566V5.30944H0.888675V2.75566C0.888439 2.69284 0.900654 2.63059 0.924615 2.57251C0.948575 2.51443 0.983806 2.46168 1.02827 2.41729C1.07274 2.37291 1.12556 2.33778 1.18368 2.31393C1.2418 2.29007 1.30407 2.27798 1.3669 2.27833Z" fill="#198AB3"/>
<path d="M0.888673 5.30933H4.61667V13.7138H1.36512C1.30264 13.7142 1.2407 13.7023 1.18285 13.6787C1.12501 13.6551 1.07242 13.6203 1.02812 13.5762C0.983817 13.5322 0.948684 13.4798 0.92475 13.4221C0.900815 13.3643 0.888554 13.3025 0.888673 13.24V5.30933Z" fill="#9CEBFF"/>
<path d="M4.6167 11.8721H15.1109V13.2445C15.1109 13.3699 15.0611 13.4902 14.9724 13.5789C14.8837 13.6676 14.7635 13.7174 14.638 13.7174H4.6167V11.8721Z" fill="#32BEDD"/>
<defs>
<linearGradient id="paint0_linear_1457_588" x1="7.99978" y1="13.7129" x2="7.99978" y2="5.30933" gradientUnits="userSpaceOnUse">
<stop stop-color="#32BEDD"/>
<stop offset="0.175" stop-color="#32CAEA"/>
<stop offset="0.41" stop-color="#32D2F2"/>
<stop offset="0.775" stop-color="#32D4F5"/>
</linearGradient>
</defs>
</svg>
