<svg width="16" height="16" viewBox="0 0 16 16" fill="none" xmlns="http://www.w3.org/2000/svg">
<path d="M12.4442 7.11111C12.4442 11.1822 7.52868 14.4533 6.46201 15.1111C6.39957 15.1462 6.32917 15.1646 6.25757 15.1646C6.18597 15.1646 6.11557 15.1462 6.05312 15.1111C4.97757 14.4444 0.0620117 11.1733 0.0620117 7.11111V2.20444C0.0642746 2.10378 0.105271 2.00787 0.176467 1.93668C0.247663 1.86548 0.343573 1.82449 0.444234 1.82222C4.26646 1.71556 3.37757 0 6.22201 0C9.06646 0 8.20423 1.68889 12.0353 1.77778C12.1344 1.78226 12.2281 1.82424 12.2975 1.8952C12.3668 1.96617 12.4065 2.06082 12.4087 2.16L12.4442 7.11111Z" fill="#5EA0EF"/>
<path d="M11.9288 7.11119C11.9288 10.8445 7.41326 13.8401 6.43548 14.4534C6.37937 14.488 6.31474 14.5064 6.24881 14.5064C6.18288 14.5064 6.11826 14.488 6.06215 14.4534C5.08437 13.8667 0.577701 10.8712 0.577701 7.11119V2.66675C0.572667 2.57763 0.602201 2.49001 0.660153 2.42212C0.718105 2.35423 0.800009 2.31132 0.888812 2.3023C4.44437 2.20453 3.6177 0.666748 6.22215 0.666748C8.82659 0.666748 8.04437 2.20453 11.5555 2.3023C11.6498 2.3023 11.7402 2.33976 11.8069 2.40644C11.8736 2.47312 11.911 2.56356 11.911 2.65786L11.9288 7.11119Z" fill="#60B0EF"/>
<path d="M6.22237 7.60008V0.666748C8.88904 0.666748 8.04459 2.20453 11.5557 2.3023C11.6493 2.30456 11.7384 2.34274 11.8046 2.40894C11.8708 2.47514 11.909 2.56427 11.9113 2.65786V7.55564L6.22237 7.60008ZM6.22237 7.60008H0.595703C0.951259 11.1556 5.12904 13.9112 6.06237 14.489C6.10793 14.5169 6.16007 14.5322 6.21348 14.5334H6.22237V7.60008Z" fill="url(#paint0_linear_1457_429)"/>
<path d="M0.888837 2.31119C4.44439 2.20453 3.61773 0.666748 6.22217 0.666748V7.60008H0.595504V2.66675C0.592038 2.5808 0.619851 2.4965 0.673789 2.42949C0.727726 2.36247 0.804129 2.31729 0.888837 2.3023V2.31119Z" fill="#0078D4"/>
<path d="M11.9111 7.6001H6.22217V14.5334C6.27558 14.5322 6.32772 14.5169 6.37328 14.489C7.37772 13.9023 11.5555 11.1112 11.9022 7.6001H11.9111Z" fill="#0078D4"/>
<path d="M12.5599 15.8223L12.8532 14.8623L13.4132 14.5334L14.391 14.9601L15.0132 14.3201V14.2223L14.5688 13.3334L14.8355 12.729L15.8132 12.3734L15.9199 12.329V11.4401H15.7955L14.8355 11.1467L14.5155 10.5867L14.9332 9.60897L14.2932 8.98674H14.2221L13.3332 9.43119L12.711 9.16452L12.3199 8.08008H11.431L11.3866 8.20452L11.0932 9.16452L10.471 9.43119L9.42212 8.95119L8.7999 9.59119L8.86212 9.70674L9.32434 10.5956L9.07546 11.2179L8.00879 11.6179V12.5067L8.13323 12.5512L9.09323 12.8445L9.3599 13.4667L8.88879 14.489L9.53768 15.1112L9.65323 15.049L10.5421 14.5779L11.1643 14.8267L11.6266 15.9823H12.5155L12.5599 15.8223ZM11.111 12.9512C10.9245 12.7735 10.7955 12.5441 10.7406 12.2924C10.6857 12.0407 10.7075 11.7783 10.8032 11.5392C10.8989 11.3 11.064 11.095 11.2773 10.9506C11.4906 10.8062 11.7423 10.729 11.9999 10.729C12.2575 10.729 12.5092 10.8062 12.7225 10.9506C12.9358 11.095 13.1009 11.3 13.1966 11.5392C13.2923 11.7783 13.3141 12.0407 13.2592 12.2924C13.2043 12.5441 13.0753 12.7735 12.8888 12.9512C12.6502 13.1815 12.3315 13.3102 11.9999 13.3102C11.6683 13.3102 11.3496 13.1815 11.111 12.9512Z" fill="#949494"/>
<defs>
<linearGradient id="paint0_linear_1457_429" x1="6.25793" y1="0.666748" x2="6.25793" y2="14.5334" gradientUnits="userSpaceOnUse">
<stop offset="0.18" stop-color="#5EA0EF"/>
<stop offset="1" stop-color="#0078D4"/>
</linearGradient>
</defs>
</svg>
