<svg width="16" height="16" viewBox="0 0 16 16" fill="none" xmlns="http://www.w3.org/2000/svg">
<path d="M7.99989 15.529C12.1727 15.529 15.5554 12.1582 15.5554 8.00008C15.5554 3.84199 12.1727 0.471191 7.99989 0.471191C3.82707 0.471191 0.444336 3.84199 0.444336 8.00008C0.444336 12.1582 3.82707 15.529 7.99989 15.529Z" fill="url(#paint0_radial_1457_555)"/>
<path d="M8.00014 14.5512C11.6329 14.5512 14.5779 11.6182 14.5779 8.00009C14.5779 4.38201 11.6329 1.44897 8.00014 1.44897C4.36733 1.44897 1.42236 4.38201 1.42236 8.00009C1.42236 11.6182 4.36733 14.5512 8.00014 14.5512Z" fill="white"/>
<path d="M2.41797 8.39111C2.50824 9.73326 3.08318 10.9969 4.03575 11.9467L5.81352 10.1689C5.33241 9.68828 5.02046 9.06437 4.92464 8.39111H2.41797Z" fill="#9CEBFF"/>
<path d="M11.6711 3.79555C10.756 2.99562 9.60378 2.51787 8.39111 2.43555V4.91555C8.94539 4.97912 9.47137 5.19443 9.91111 5.53777L11.6711 3.79555Z" fill="#32BEDD"/>
<path d="M4.3291 3.79555L6.10688 5.57332C6.54663 5.22998 7.0726 5.01467 7.62688 4.9511V2.43555C6.40801 2.51404 5.24897 2.99203 4.3291 3.79555Z" fill="#32BEDD"/>
<path d="M10.4712 6.0889C10.8105 6.53188 11.0281 7.05588 11.1023 7.6089H13.5823C13.502 6.40106 13.0238 5.25386 12.2223 4.34668L10.4712 6.0889Z" fill="#32BEDD"/>
<path d="M5.52908 6.08881L3.7513 4.31104C2.95223 5.23127 2.48302 6.3918 2.41797 7.60881H4.89797C4.97222 7.05579 5.18979 6.53179 5.52908 6.08881Z" fill="#50E6FF"/>
<path d="M12.5688 6.2221C12.5292 6.12692 12.4545 6.05067 12.3601 6.00927C12.2657 5.96787 12.1589 5.96451 12.0621 5.99988L8.3999 7.47544L8.68435 8.19544L12.3466 6.74655C12.3966 6.72804 12.4423 6.69948 12.4809 6.66264C12.5195 6.6258 12.5502 6.58146 12.571 6.53233C12.5918 6.48321 12.6023 6.43034 12.602 6.37699C12.6016 6.32364 12.5903 6.27093 12.5688 6.2221Z" fill="#F04049"/>
<path d="M7.99977 9.06668C8.58888 9.06668 9.06644 8.58912 9.06644 8.00002C9.06644 7.41091 8.58888 6.93335 7.99977 6.93335C7.41067 6.93335 6.93311 7.41091 6.93311 8.00002C6.93311 8.58912 7.41067 9.06668 7.99977 9.06668Z" fill="url(#paint1_radial_1457_555)"/>
<defs>
<radialGradient id="paint0_radial_1457_555" cx="0" cy="0" r="1" gradientUnits="userSpaceOnUse" gradientTransform="translate(8.00629 8.03075) scale(7.55929)">
<stop offset="0.18" stop-color="#5EA0EF"/>
<stop offset="0.56" stop-color="#5C9FEE"/>
<stop offset="0.69" stop-color="#559CED"/>
<stop offset="0.78" stop-color="#4A97E9"/>
<stop offset="0.86" stop-color="#3990E4"/>
<stop offset="0.93" stop-color="#2387DE"/>
<stop offset="0.99" stop-color="#087BD6"/>
<stop offset="1" stop-color="#0078D4"/>
</radialGradient>
<radialGradient id="paint1_radial_1457_555" cx="0" cy="0" r="1" gradientUnits="userSpaceOnUse" gradientTransform="translate(8.00066 6.36935) scale(2.28)">
<stop offset="0.19" stop-color="#8C8E90"/>
<stop offset="0.35" stop-color="#848688"/>
<stop offset="0.6" stop-color="#6E7071"/>
<stop offset="0.91" stop-color="#4A4B4C"/>
<stop offset="1" stop-color="#3E3F3F"/>
</radialGradient>
</defs>
</svg>
