<svg width="16" height="16" viewBox="0 0 16 16" fill="none" xmlns="http://www.w3.org/2000/svg">
<path d="M7.69765 15.2177C14.9688 10.0088 15.2177 6.96878 15.2443 6.01766C15.2888 4.68433 15.111 1.20878 11.5554 0.93322C10.7231 0.871306 9.89364 1.08611 9.196 1.54425C8.49835 2.00238 7.9716 2.67817 7.69765 3.46655C7.4192 2.67203 6.88506 1.99232 6.17891 1.53388C5.47277 1.07545 4.6345 0.8642 3.79543 0.93322C0.28432 1.20878 0.0976535 4.68433 0.142098 6.01766C0.142098 6.96878 0.426542 10.0088 7.69765 15.2177Z" fill="url(#paint0_linear_1457_568)"/>
<path d="M15.2444 5.49328H11.6889C11.6662 5.4943 11.644 5.50042 11.624 5.5112C11.604 5.52197 11.5867 5.53711 11.5733 5.55551L10.4978 7.41328C10.4849 7.43348 10.4672 7.4501 10.4462 7.46162C10.4252 7.47313 10.4017 7.47917 10.3778 7.47917C10.3538 7.47917 10.3303 7.47313 10.3093 7.46162C10.2883 7.4501 10.2706 7.43348 10.2578 7.41328L8.71999 4.48884C8.69762 4.44177 8.66236 4.40201 8.61831 4.37416C8.57426 4.34632 8.52321 4.33154 8.4711 4.33154C8.41898 4.33154 8.36794 4.34632 8.32388 4.37416C8.27983 4.40201 8.24457 4.44177 8.22221 4.48884L6.74665 8.88884C6.73521 8.91337 6.717 8.93413 6.69417 8.94867C6.67134 8.96321 6.64483 8.97094 6.61776 8.97094C6.59069 8.97094 6.56419 8.96321 6.54135 8.94867C6.51852 8.93413 6.50032 8.91337 6.48887 8.88884L5.22665 5.9644C5.20338 5.91967 5.16828 5.88218 5.12518 5.85602C5.08208 5.82986 5.03263 5.81603 4.98221 5.81603C4.93179 5.81603 4.88234 5.82986 4.83923 5.85602C4.79613 5.88218 4.76103 5.91967 4.73776 5.9644L3.01332 9.06662C3.00151 9.08716 2.98475 9.10442 2.96457 9.11684C2.94439 9.12926 2.92142 9.13644 2.89776 9.13773H1.26221C1.50755 9.51446 1.77467 9.87656 2.06221 10.2222H3.55554C3.57984 10.224 3.6041 10.2181 3.62485 10.2054C3.64561 10.1926 3.66179 10.1736 3.6711 10.1511L4.74665 8.16884C4.75895 8.14661 4.77698 8.12808 4.79886 8.11518C4.82075 8.10228 4.84569 8.09547 4.8711 8.09547C4.8965 8.09547 4.92144 8.10228 4.94333 8.11518C4.96521 8.12808 4.98324 8.14661 4.99554 8.16884L6.4711 11.6C6.49088 11.6523 6.52614 11.6974 6.57219 11.7293C6.61824 11.7611 6.67289 11.7781 6.72887 11.7781C6.78485 11.7781 6.83951 11.7611 6.88556 11.7293C6.93161 11.6974 6.96687 11.6523 6.98665 11.6L8.54221 6.97773C8.55188 6.95258 8.56895 6.93094 8.59117 6.91569C8.61338 6.90043 8.6397 6.89226 8.66665 6.89226C8.6936 6.89226 8.71992 6.90043 8.74213 6.91569C8.76435 6.93094 8.78142 6.95258 8.7911 6.97773L10.0889 9.43995C10.1116 9.48273 10.1455 9.51851 10.187 9.54347C10.2285 9.56843 10.276 9.58162 10.3244 9.58162C10.3729 9.58162 10.4204 9.56843 10.4619 9.54347C10.5034 9.51851 10.5373 9.48273 10.56 9.43995L12.2133 6.65773C12.2251 6.63719 12.2419 6.61992 12.2621 6.6075C12.2822 6.59509 12.3052 6.58791 12.3289 6.58662H15.2" fill="white"/>
<defs>
<linearGradient id="paint0_linear_1457_568" x1="7.69765" y1="15.2177" x2="7.69765" y2="0.915443" gradientUnits="userSpaceOnUse">
<stop stop-color="#1988D9"/>
<stop offset="0.22" stop-color="#218DDC"/>
<stop offset="0.56" stop-color="#379CE5"/>
<stop offset="0.9" stop-color="#54AEF0"/>
</linearGradient>
</defs>
</svg>
