<svg width="16" height="16" viewBox="0 0 16 16" fill="none" xmlns="http://www.w3.org/2000/svg">
<path d="M3.10829 8.065C3.03429 7.986 2.99629 7.882 3.00029 7.774C3.00429 7.665 3.05029 7.565 3.13029 7.49L3.96529 6.718C4.04129 6.649 4.13829 6.611 4.23929 6.611C4.35129 6.611 4.45929 6.658 4.53529 6.74L6.67129 9.032L10.4783 4.157C10.5553 4.058 10.6713 4 10.7973 4C10.8873 4 10.9723 4.029 11.0443 4.084L11.9503 4.783C12.1233 4.911 12.1603 5.16 12.0303 5.337L7.16229 11.57C6.97329 11.812 6.61229 11.828 6.40229 11.603L3.10829 8.065Z" fill="white"/>
</svg>
