<svg width="16" height="16" viewBox="0 0 16 16" fill="none" xmlns="http://www.w3.org/2000/svg">
<g clip-path="url(#clip0_1457_446)">
<path d="M0.159913 7.61769L7.61769 0.159913C7.66739 0.108843 7.72682 0.0682509 7.79247 0.0405333C7.85812 0.0128157 7.92865 -0.00146484 7.99991 -0.00146484C8.07117 -0.00146484 8.14171 0.0128157 8.20736 0.0405333C8.27301 0.0682509 8.33244 0.108843 8.38214 0.159913L15.8399 7.61769C15.891 7.66739 15.9316 7.72682 15.9593 7.79247C15.987 7.85812 16.0013 7.92865 16.0013 7.99991C16.0013 8.07117 15.987 8.14171 15.9593 8.20736C15.9316 8.27301 15.891 8.33244 15.8399 8.38214L8.37325 15.8488C8.27355 15.9465 8.13952 16.0013 7.99991 16.0013C7.86031 16.0013 7.72628 15.9465 7.62658 15.8488L0.159913 8.38214C0.108843 8.33244 0.0682509 8.27301 0.0405333 8.20736C0.0128157 8.14171 -0.00146484 8.07117 -0.00146484 7.99991C-0.00146484 7.92865 0.0128157 7.85812 0.0405333 7.79247C0.0682509 7.72682 0.108843 7.66739 0.159913 7.61769Z" fill="url(#paint0_linear_1457_446)"/>
<path d="M9.95575 3.55555L8.0713 1.67999C8.05175 1.6625 8.02643 1.65283 8.00019 1.65283C7.97395 1.65283 7.94864 1.6625 7.92908 1.67999L6.04464 3.55555C6.02729 3.56722 6.01462 3.58463 6.00884 3.60472C6.00306 3.62481 6.00454 3.64629 6.01303 3.6654C6.02152 3.6845 6.03647 3.7 6.05526 3.70917C6.07404 3.71834 6.09546 3.7206 6.11575 3.71555H7.21797C7.23081 3.71555 7.24352 3.71808 7.25539 3.72299C7.26725 3.72791 7.27803 3.73511 7.28711 3.74419C7.29619 3.75327 7.30339 3.76405 7.3083 3.77591C7.31322 3.78777 7.31575 3.80049 7.31575 3.81333V5.5911C7.31575 5.61704 7.32605 5.64191 7.34439 5.66024C7.36272 5.67858 7.38759 5.68888 7.41352 5.68888H8.58686C8.61279 5.68888 8.63766 5.67858 8.656 5.66024C8.67433 5.64191 8.68464 5.61704 8.68464 5.5911V3.81333C8.68464 3.80049 8.68716 3.78777 8.69208 3.77591C8.69699 3.76405 8.70419 3.75327 8.71327 3.74419C8.72235 3.73511 8.73313 3.72791 8.745 3.72299C8.75686 3.71808 8.76957 3.71555 8.78241 3.71555H9.88464C9.90492 3.7206 9.92634 3.71834 9.94512 3.70917C9.96391 3.7 9.97886 3.6845 9.98735 3.6654C9.99584 3.64629 9.99733 3.62481 9.99155 3.60472C9.98577 3.58463 9.97309 3.56722 9.95575 3.55555Z" fill="#B4EC36"/>
<path d="M3.55552 5.87562L1.68885 7.76895C1.67198 7.78705 1.6626 7.81087 1.6626 7.83561C1.6626 7.86036 1.67198 7.88418 1.68885 7.90228L3.55552 9.77784C3.56918 9.79236 3.58696 9.80235 3.60647 9.80648C3.62598 9.81061 3.64628 9.80867 3.66466 9.80093C3.68303 9.7932 3.6986 9.78003 3.70928 9.76319C3.71996 9.74635 3.72524 9.72665 3.7244 9.70673V8.61339C3.7244 8.58746 3.73471 8.56259 3.75304 8.54425C3.77138 8.52592 3.79625 8.51561 3.82218 8.51561H5.59996C5.61242 8.51568 5.62475 8.51312 5.63616 8.50811C5.64757 8.5031 5.6578 8.49574 5.66618 8.48652C5.67456 8.4773 5.68091 8.46642 5.68481 8.45459C5.68872 8.44276 5.69009 8.43024 5.68885 8.41784V7.2445C5.69629 7.23204 5.70057 7.21795 5.7013 7.20345C5.70204 7.18895 5.69922 7.1745 5.69308 7.16134C5.68694 7.14819 5.67767 7.13674 5.66609 7.128C5.65451 7.11925 5.64096 7.11347 5.62663 7.11117H3.84885C3.83645 7.11242 3.82393 7.11104 3.8121 7.10714C3.80026 7.10323 3.78939 7.09688 3.78017 7.0885C3.77095 7.08012 3.76359 7.06989 3.75858 7.05848C3.75357 7.04708 3.75101 7.03474 3.75107 7.02228V5.94673C3.7605 5.92079 3.75924 5.89218 3.74757 5.86717C3.7359 5.84217 3.71478 5.82282 3.68885 5.81339C3.66292 5.80396 3.6343 5.80522 3.6093 5.81689C3.58429 5.82856 3.56495 5.84968 3.55552 5.87562Z" fill="#B4EC36"/>
<path d="M12.5155 9.77768L14.4088 7.89323C14.4257 7.87513 14.4351 7.85131 14.4351 7.82657C14.4351 7.80182 14.4257 7.778 14.4088 7.7599L12.5155 5.87546C12.5015 5.86386 12.4845 5.85641 12.4665 5.85394C12.4485 5.85146 12.4301 5.85407 12.4135 5.86145C12.3969 5.86884 12.3826 5.88072 12.3724 5.89576C12.3621 5.9108 12.3563 5.92839 12.3555 5.94657V7.05768C12.3556 7.07014 12.353 7.08247 12.348 7.09388C12.343 7.10529 12.3356 7.11552 12.3264 7.1239C12.3172 7.13228 12.3063 7.13863 12.2945 7.14253C12.2827 7.14644 12.2701 7.14781 12.2577 7.14657H10.48C10.4675 7.1465 10.4552 7.14906 10.4438 7.15408C10.4323 7.15909 10.4221 7.16644 10.4137 7.17566C10.4054 7.18488 10.399 7.19576 10.3951 7.20759C10.3912 7.21943 10.3898 7.23195 10.3911 7.24434V8.41768C10.3898 8.43008 10.3912 8.4426 10.3951 8.45443C10.399 8.46626 10.4054 8.47714 10.4137 8.48636C10.4221 8.49558 10.4323 8.50294 10.4438 8.50795C10.4552 8.51296 10.4675 8.51552 10.48 8.51546H12.2577C12.2837 8.51546 12.3085 8.52576 12.3269 8.54409C12.3452 8.56243 12.3555 8.5873 12.3555 8.61323V9.71546C12.3578 9.73288 12.3647 9.74937 12.3755 9.7632C12.3863 9.77703 12.4007 9.78769 12.417 9.79405C12.4334 9.80042 12.4512 9.80226 12.4685 9.79938C12.4859 9.7965 12.5021 9.789 12.5155 9.77768Z" fill="#B4EC36"/>
<path d="M10.48 8.00001C10.4828 7.53758 10.3564 7.08355 10.1148 6.68921C9.87324 6.29488 9.52624 5.97593 9.11298 5.7684C8.69972 5.56087 8.23667 5.47302 7.77612 5.51477C7.31556 5.55652 6.87586 5.72621 6.50666 6.00467C6.13746 6.28314 5.85347 6.65929 5.68676 7.09063C5.52006 7.52198 5.47728 7.99135 5.56326 8.44573C5.64924 8.90011 5.86055 9.3214 6.17333 9.66202C6.4861 10.0026 6.88789 10.249 7.33331 10.3733V11.2178C7.03065 11.3742 6.7893 11.6277 6.648 11.9377C6.50669 12.2477 6.47363 12.5962 6.5541 12.9272C6.63457 13.2582 6.82392 13.5527 7.09176 13.7632C7.3596 13.9737 7.69041 14.0882 8.03108 14.0882C8.37176 14.0882 8.70256 13.9737 8.9704 13.7632C9.23824 13.5527 9.42759 13.2582 9.50807 12.9272C9.58854 12.5962 9.55547 12.2477 9.41417 11.9377C9.27287 11.6277 9.03152 11.3742 8.72886 11.2178V10.3289C9.23059 10.1776 9.67095 9.87014 9.98589 9.45128C10.3008 9.03243 10.4739 8.52402 10.48 8.00001Z" fill="white"/>
<path d="M8.00885 9.43103C8.80414 9.43103 9.44885 8.78632 9.44885 7.99103C9.44885 7.19574 8.80414 6.55103 8.00885 6.55103C7.21356 6.55103 6.56885 7.19574 6.56885 7.99103C6.56885 8.78632 7.21356 9.43103 8.00885 9.43103Z" fill="#5EA0EF"/>
</g>
<defs>
<linearGradient id="paint0_linear_1457_446" x1="7.99991" y1="17.6444" x2="7.99991" y2="-0.906753" gradientUnits="userSpaceOnUse">
<stop stop-color="#5E9624"/>
<stop offset="0.02" stop-color="#5F9724"/>
<stop offset="1" stop-color="#76BC2D"/>
</linearGradient>
<clipPath id="clip0_1457_446">
<rect width="16" height="16" fill="white"/>
</clipPath>
</defs>
</svg>
