<svg width="16" height="16" viewBox="0 0 16 16" fill="none" xmlns="http://www.w3.org/2000/svg">
  <path d="M13.5111 0.444538H3.19113C3.1169 0.443707 3.04339 0.4592 2.9758 0.489921C2.90822 0.520641 2.84821 0.565839 2.80002 0.622316L1.71558 1.87565L13.6089 13.929L11.8311 15.5556H12.72C12.8699 15.5554 13.0149 15.5019 13.1289 15.4045L14.1689 14.4534C14.2218 14.4047 14.264 14.3456 14.2931 14.2799C14.3221 14.2141 14.3373 14.1431 14.3378 14.0712V1.18232C14.3416 1.0766 14.322 0.971349 14.2805 0.874046C14.239 0.776744 14.1766 0.689782 14.0977 0.619346C14.0188 0.548909 13.9253 0.496729 13.8239 0.466516C13.7225 0.436302 13.6157 0.428798 13.5111 0.444538Z" fill="#5E9624"/>
  <path d="M2.58667 1.86663L3.24445 1.11996C3.28278 1.07363 3.33012 1.03556 3.3836 1.00806C3.43707 0.980561 3.49557 0.964197 3.55556 0.959961H13.2267C13.3493 0.959961 13.4668 1.00866 13.5535 1.09534C13.6402 1.18203 13.6889 1.29959 13.6889 1.42218V13.6711C13.6883 13.7347 13.6746 13.7976 13.6486 13.8557C13.6226 13.9139 13.5849 13.966 13.5378 14.0088L12.5156 14.9511" fill="white"/>
  <path d="M12.4445 1.85791H1.77785C1.76529 1.86003 1.75391 1.86657 1.74576 1.87636C1.73761 1.88614 1.73323 1.89851 1.7334 1.91124V15.2446C1.7334 15.3342 1.76899 15.4201 1.83234 15.4834C1.89568 15.5468 1.9816 15.5824 2.07118 15.5824H12.4445C12.5341 15.5824 12.62 15.5468 12.6834 15.4834C12.7467 15.4201 12.7823 15.3342 12.7823 15.2446V2.20458C12.7835 2.15948 12.7756 2.1146 12.7592 2.07258C12.7427 2.03057 12.718 1.99228 12.6866 1.95996C12.6551 1.92765 12.6174 1.90197 12.5759 1.88445C12.5343 1.86692 12.4896 1.85789 12.4445 1.85791Z" fill="url(#paint0_linear_1457_686)"/>
  <path d="M11.1112 6.95095C11.1136 6.90629 11.1069 6.86161 11.0914 6.81963C11.076 6.77765 11.0521 6.73926 11.0213 6.70681C10.9906 6.67437 10.9535 6.64854 10.9124 6.63091C10.8713 6.61328 10.827 6.60422 10.7823 6.60429H9.13782C9.11023 6.60324 9.08293 6.61025 9.05926 6.62445C9.03558 6.63866 9.01655 6.65945 9.00449 6.68429L8.32005 7.91095L7.20005 5.64429L6.16005 8.88873L5.27116 6.57762L4.09783 8.74651C4.08538 8.77174 4.0665 8.79324 4.04309 8.80885C4.01968 8.82446 3.99257 8.83361 3.96449 8.8354H3.43116C3.34976 8.83492 3.27107 8.86465 3.21032 8.91883C3.14957 8.97302 3.11107 9.04781 3.10227 9.12873C3.09726 9.17481 3.10204 9.22143 3.11631 9.26553C3.13058 9.30964 3.15401 9.35022 3.18507 9.38464C3.21612 9.41905 3.2541 9.44651 3.29651 9.46521C3.33892 9.48392 3.38481 9.49345 3.43116 9.49318H4.32005C4.34966 9.49297 4.37863 9.48455 4.40374 9.46886C4.42885 9.45317 4.44911 9.43081 4.46227 9.40429L5.1556 8.09762L6.23116 10.7643L7.32449 7.33318L8.28449 9.27984L9.36005 7.35095C9.37211 7.32612 9.39114 7.30533 9.41481 7.29112C9.43849 7.27691 9.46579 7.26991 9.49338 7.27095H10.7823C10.868 7.27099 10.9503 7.23756 11.0117 7.17779C11.0732 7.11802 11.1088 7.03663 11.1112 6.95095Z" fill="white"/>
  <defs>
  <linearGradient id="paint0_linear_1457_686" x1="7.24451" y1="15.5468" x2="7.24451" y2="1.85791" gradientUnits="userSpaceOnUse">
  <stop stop-color="#5E9624"/>
  <stop offset="0.31" stop-color="#69A828"/>
  <stop offset="0.93" stop-color="#86D633"/>
  </linearGradient>
  </defs>
  </svg>
