<svg id="a2485761-7e66-42cf-b797-56a441b7d893" xmlns="http://www.w3.org/2000/svg" width="18" height="18" viewBox="0 0 18 18">
  <defs>
    <linearGradient id="fb3b4398-eda1-4fd4-bb3a-0ca3e06d2630" x1="9" y1="17.5" x2="9" y2="0.5" gradientUnits="userSpaceOnUse">
      <stop offset="0" stop-color="#0078d4"/>
      <stop offset="0.154" stop-color="#0d7ed8"/>
      <stop offset="0.439" stop-color="#3090e1"/>
      <stop offset="0.822" stop-color="#67abf1"/>
      <stop offset="1" stop-color="#83b9f9"/>
    </linearGradient>
  </defs>
  <title>Icon765-Gear</title>
  <path d="M17.5,9.918V7.98l-.272-.1L15.154,7.2,14.61,5.872l1.054-2.244L14.3,2.268l-.272.136L12.09,3.39l-1.326-.544L9.918.5H7.98l-.1.272L7.2,2.846,5.872,3.39,3.662,2.336,2.3,3.7l.136.272L3.422,5.91,2.88,7.232.5,8.082V10.02l.272.1,2.074.68.544,1.326L2.336,14.372l1.36,1.36.272-.136,1.938-.986,1.326.544.85,2.346H10.02l.1-.272.68-2.074,1.326-.544,2.244,1.054,1.36-1.36-.136-.272-.986-1.938.544-1.326ZM9,11.905a2.9,2.9,0,1,1,2.9-2.9A2.9,2.9,0,0,1,9,11.905Z" fill="url(#fb3b4398-eda1-4fd4-bb3a-0ca3e06d2630)"/>
</svg>
