<?xml version="1.0" encoding="utf-8"?>
<!-- Generator: Adobe Illustrator 22.1.0, SVG Export Plug-In . SVG Version: 6.00 Build 0)  -->
<svg version="1.1" id="Layer_1" xmlns="http://www.w3.org/2000/svg" xmlns:xlink="http://www.w3.org/1999/xlink" x="0px" y="0px"
	 viewBox="0 0 50 50" style="enable-background:new 0 0 50 50;" xml:space="preserve">
<style type="text/css">
	.st0{fill:#7A7A7A;}
	.st1{fill:#A0A1A2;}
	.st2{opacity:0.2;fill:#FFFFFF;enable-background:new    ;}
	.st3{fill:#59B4D9;}
	.st4{fill:#B8D432;}
	.st5{fill:#FFFFFF;}
	.st6{opacity:0.7;fill:#FFFFFF;enable-background:new    ;}
	.st7{opacity:0.4;fill:#FFFFFF;enable-background:new    ;}
	.st8{fill:#0072C6;}
	.st9{opacity:0.15;}
</style>
<g>
	<path class="st0" d="M32.4,38.5h-1.2H19.4h-0.6c1.6,5.8-0.6,6.6-10.2,6.6v3h12.2h8.9h11.5v-3C31.7,45.1,30.8,44.3,32.4,38.5"/>
	<path class="st1" d="M47,2H2.7C1.2,2,0,3.3,0,4.8v30.9c0,1.5,1.2,2.8,2.7,2.8H47c1.5,0,3-1.3,3-2.8V4.8C50,3.3,48.5,2,47,2"/>
	<path class="st2" d="M47,2L47,2H2.7C1.2,2,0,3.3,0,4.8v30.9c0,1.5,1.2,2.8,2.7,2.8h1.1L47,2z"/>
	<polygon class="st3" points="46.1,5.8 46.1,34.7 3.8,34.7 3.8,5.8 	"/>
	<polygon class="st3" points="3.8,34.7 3.8,34.7 3.8,5.8 42.5,5.8 42.5,5.8 3.8,5.8 	"/>
	<rect x="8.7" y="45.1" class="st1" width="32.7" height="3"/>
	<path class="st4" d="M25.5,4.1c0,0.4-0.3,0.7-0.7,0.7s-0.7-0.3-0.7-0.7c0-0.4,0.3-0.7,0.7-0.7S25.5,3.7,25.5,4.1"/>
	<path class="st5" d="M25.5,19.4h-0.1l-8.8-5.1c-0.1,0-0.1-0.1-0.1-0.2s0.1-0.2,0.1-0.2l8.8-5c0.1,0,0.2,0,0.3,0l8.8,5.1
		c0.1,0,0.1,0.1,0.1,0.2s0,0.2-0.1,0.2l-8.7,5C25.6,19.4,25.6,19.4,25.5,19.4"/>
	<path class="st6" d="M24.3,31.7c-0.1,0-0.1,0-0.1,0l-8.8-5.1c-0.1,0-0.1-0.1-0.1-0.2V16.2c0-0.1,0.1-0.2,0.1-0.2c0.1,0,0.2,0,0.3,0
		l8.8,5.1c0.1,0.1,0.1,0.1,0.1,0.2v10.2c0,0.1-0.1,0.2-0.1,0.2C24.4,31.7,24.3,31.7,24.3,31.7"/>
	<path class="st7" d="M26.8,31.7h-0.1c-0.1,0-0.1-0.1-0.1-0.2V21.4c0-0.1,0.1-0.2,0.1-0.2l8.8-5.1c0.1,0,0.2,0,0.3,0
		s0.1,0.1,0.1,0.2v10.1c0,0.1-0.1,0.2-0.1,0.2L27,31.7C26.9,31.7,26.8,31.7,26.8,31.7"/>
</g>
<path class="st8" d="M48.3,24.6L48.3,24.6v-0.2c0-5-4.3-9.1-9.5-9.2c-0.1-0.2-3.1,0.1-3.1,0.1l0,0c-4.7,0.6-8.4,4.5-8.4,9.1
	c0,0.1-0.5,3.7,3.2,6.8c1.7,1.5,3.4,5.5,3.7,6.6l0.2,0.4h6.8l0.2-0.4c0.3-1.2,2.1-5.2,3.7-6.6C48.7,28.2,48.3,24.7,48.3,24.6z"/>
<rect x="34.5" y="40.5" class="st8" width="6.8" height="2.2"/>
<polygon class="st8" points="36.7,47.4 39.2,47.4 41.4,45.1 34.5,45.1 "/>
<g>
	<path class="st5" d="M39.6,37.9h-1.3v-8.2h-1.1v8.1h-1.3v-8.1h-1.1c-1.3,0-2.4-1.1-2.4-2.4s1-2.4,2.4-2.4s2.4,1.1,2.4,2.4v1.1h1.1
		v-1.1c0-1.3,1.1-2.4,2.4-2.4c1.3,0,2.4,1.1,2.4,2.4s-1.1,2.4-2.4,2.4h-1.1C39.6,29.7,39.6,37.9,39.6,37.9z M34.8,26.2
		c-0.6,0-1.1,0.5-1.1,1.1c0,0.6,0.5,1.1,1.1,1.1h1.1v-1.1C35.9,26.7,35.4,26.2,34.8,26.2z M40.7,26.2c-0.6,0-1.1,0.5-1.1,1.1v1.1
		h1.1c0.6,0,1.1-0.5,1.1-1.1C41.8,26.7,41.3,26.2,40.7,26.2z"/>
</g>
<g class="st9">
	<path class="st5" d="M38.8,15.3c-0.1-0.2-3.1,0.1-3.1,0.1c-4.7,0.6-8.4,4.5-8.4,9.1c0,0.1-0.5,3.3,2.5,6.2l13.9-13.9
		C42.3,15.8,40.6,15.3,38.8,15.3z"/>
</g>
</svg>
