<?xml version="1.0" encoding="utf-8"?>
<!-- Generator: Adobe Illustrator 22.1.0, SVG Export Plug-In . SVG Version: 6.00 Build 0)  -->
<svg version="1.1" id="Layer_1" xmlns="http://www.w3.org/2000/svg" xmlns:xlink="http://www.w3.org/1999/xlink" x="0px" y="0px"
	 width="16px" height="16px" viewBox="0 0 16 16" enable-background="new 0 0 16 16" xml:space="preserve">
<path fill="#1E1E1E" d="M3.114,5.365C3.185,4.105,4.223,3.1,5.5,3.1c0.276,0,0.551,0.053,0.843,0.163L7.14,3.564l0.423-0.739
	C8.181,1.745,9.279,1.1,10.5,1.1c1.875,0,3.4,1.525,3.4,3.4c0,0.271-0.045,0.56-0.143,0.908L13.573,6.07l0.552,0.41
	C14.617,6.846,14.9,7.4,14.9,8c0,0.588-0.278,1.104-0.699,1.452c0.231,0.25,0.433,0.517,0.584,0.81C15.457,9.731,15.9,8.923,15.9,8
	c0-0.955-0.467-1.794-1.179-2.323C14.826,5.3,14.9,4.911,14.9,4.5c0-2.43-1.97-4.4-4.4-4.4c-1.636,0-3.046,0.903-3.805,2.227
	C6.322,2.187,5.922,2.1,5.5,2.1c-1.878,0-3.4,1.522-3.4,3.4c0,0.163,0.03,0.317,0.053,0.474C2.443,5.733,2.771,5.538,3.114,5.365z"
	/>
<path fill="#1E1E1E" d="M12.533,9.636C12.5,8.143,11.181,6.938,9.566,6.938c-0.08,0-0.158,0.018-0.237,0.024
	C9.876,6.014,10.599,5.155,11,4.715V6h1V4V3h-1H8.977v1h1.298C9.677,4.594,8.629,5.776,8.131,7.048C7.425,6.392,6.465,6,5.449,6
	C3.355,6,1.652,7.574,1.652,9.509c0,0.023,0,0.047,0.001,0.071C0.662,10.098,0.1,10.965,0.1,11.996C0.1,13.681,1.562,15,3.429,15
	h7.243c1.867,0,3.329-1.319,3.329-3.004C14.001,11.004,13.498,10.184,12.533,9.636z M10.672,14H3.429C2.123,14,1.1,13.12,1.1,11.996
	c0-0.91,0.607-1.596,1.7-1.596C2.212,8.396,3.907,7,5.449,7C6.356,7,7.408,7.58,8,8.6c0.652-0.583,1.187-0.663,1.566-0.663
	c1.085,0,2.288,0.916,1.834,2.462c1.049,0,1.601,0.898,1.601,1.596C13.001,13.12,11.977,14,10.672,14z"/>
</svg>
