<?xml version="1.0" encoding="utf-8"?>
<!-- Generator: Adobe Illustrator 18.1.1, SVG Export Plug-In . SVG Version: 6.00 Build 0)  -->
<!DOCTYPE svg PUBLIC "-//W3C//DTD SVG 1.1//EN" "http://www.w3.org/Graphics/SVG/1.1/DTD/svg11.dtd">
<svg version="1.1" id="Layer_1" xmlns="http://www.w3.org/2000/svg" xmlns:xlink="http://www.w3.org/1999/xlink" x="0px" y="0px"
	 viewBox="0 0 792 612" enable-background="new 0 0 792 612" xml:space="preserve">
<path fill="#3E3E3E" d="M496,335V52.3c0-15.9-19.6-35.4-35.4-35.4H201.4c-15.8,0-35.4,19.5-35.4,35.4V554
	c0,15.9,12.8,28.7,28.5,28.7h112.9V429.5c0-18.2,17.2-35.4,35.4-35.4l70.5,0v-11.8c0-27.9,20.3-47.4,49.3-47.4H496z"/>
<path fill="#1E1E1E" d="M212.5,111.2c0-19.5,16-35.4,35.8-35.4h164.1c19.8,0,35.8,15.8,35.8,35.4l0,0c0,19.5-16,35.4-35.8,35.4
	H248.3C228.5,146.6,212.5,130.8,212.5,111.2L212.5,111.2z"/>
<circle fill="#B8D432" cx="248.5" cy="111.2" r="23.6"/>
<path fill="#1E1E1E" d="M212.5,205.5c0-19.5,16-35.4,35.8-35.4h164.1c19.8,0,35.8,15.8,35.8,35.4l0,0c0,19.5-16,35.4-35.8,35.4
	H248.3C228.5,240.9,212.5,225.1,212.5,205.5L212.5,205.5z"/>
<circle fill="#B8D432" cx="248.5" cy="205.5" r="23.6"/>
<path fill="#1E1E1E" d="M212.5,299.8c0-19.5,16-35.4,35.8-35.4h164.1c19.8,0,35.8,15.8,35.8,35.4l0,0c0,19.5-16,35.4-35.8,35.4
	H248.3C228.5,335.2,212.5,319.4,212.5,299.8L212.5,299.8z"/>
<circle fill="#B8D432" cx="248.5" cy="299.8" r="23.6"/>
<path fill="#3E3E3E" d="M566.8,405.9l-23.6,0v-23.6c0-7.4-5.1-11.8-11.8-11.8h-70.6c-6.6,0-11.8,4.4-11.8,11.8v23.6h-23.7v-23.6
	c0-23.1,16.8-35.4,37.3-35.4h66.8c20.6,0,37.3,18.8,37.3,41.9V405.9z"/>
<path fill="#DD5900" d="M342.8,406c-11.8,0-23.6,11.8-23.6,23.6c0,11.8,0,164.9,0,164.9h128.4L556.5,406
	C468.9,406,350,406,342.8,406z"/>
<path fill="#BA141A" d="M649,406c-4.2,0-43.6,0-92.8,0L447.4,594.5h225.4c0,0,0-153.1,0-164.9C672.8,417.8,660.8,406,649,406z"/>
<g id="latch_7_">
	<g>
		<polygon fill="#E8E7E7" points="672.8,464.9 319.2,464.9 319.2,476.6 444.8,476.6 460.7,500.3 531.4,500.3 547.3,476.6 
			672.8,476.6 		"/>
	</g>
</g>
</svg>
