<?xml version="1.0" encoding="utf-8"?>
<!-- Generator: Adobe Illustrator 18.1.1, SVG Export Plug-In . SVG Version: 6.00 Build 0)  -->
<!DOCTYPE svg PUBLIC "-//W3C//DTD SVG 1.1//EN" "http://www.w3.org/Graphics/SVG/1.1/DTD/svg11.dtd">
<svg version="1.1" id="Layer_2" xmlns="http://www.w3.org/2000/svg" xmlns:xlink="http://www.w3.org/1999/xlink" x="0px" y="0px"
	 viewBox="0 0 48 48" enable-background="new 0 0 48 48" xml:space="preserve">
<defs>
</defs>   
    <g>
        <path d="M 49 33 c 0 -1.5 -1.5 -3 -3 -3 h -6 v -1.4 c 0 -2.5 -1.9 -4.5 -4.2 -4.5 h -5.7 c -2.3 0 -4.2 2 -4.2 4.5 V 30 h -6 c -1.5 0 -3 1.5 -3 3 v 15 h 32 C 49 48 49 34 49 33 Z" />
    </g>
<g id="device_2_">
	<g>
		<g>
			<path fill-rule="evenodd" clip-rule="evenodd" fill="#7A7A7A" d="M14.5,34H4V11h23.7L30,7H2.2C1,7,0,8,0,9.2v28.7C0,39,1,40,2.2,40H11L14.5,34z"/>
			<path fill-rule="evenodd" clip-rule="evenodd" fill="#646565" d="M40.8,7L40.8,7C42,7,43,8,43,9.2v28.7c0,1.2-1,2.2-2.2,2.2h0c1.2,0,2.2-1,2.2-2.2V9.2C43,8,42,7,40.8,7z"/>
		</g>
		<path fill-rule="evenodd" clip-rule="evenodd" fill="#3E3E3E" d="M43,37.8V9.2C43,8,42,7,40.8,7H30l-2.3,4H39v23H14.5L11,40h29.8
			C42,40,43,39,43,37.8z"/>
		<polygon fill-rule="evenodd" clip-rule="evenodd" fill="#59B4D9" points="27.7,11 4,11 4,34 14.5,34 		"/>
		<polygon fill-rule="evenodd" clip-rule="evenodd" fill="#3999C6" points="27.7,11 14.5,34 39,34 39,11 		"/>
	</g>
	<rect id="cam_1_" x="20" y="8" fill-rule="evenodd" clip-rule="evenodd" fill="#E5E5E5" width="2" height="2"/>
</g>
<path fill="#3E3E3E" d="M39,30l-2,0v-2c0-0.6-0.4-1-1-1h-6c-0.6,0-1,0.4-1,1v2l-2,0v-1.4c0-2,1.4-3.5,3.2-3.5h5.7c1.7,0,3.2,1.6,3.2,3.5V30z"/>
<path fill="#DD5900" d="M20,31c-1,0-2,1-2,2s0,14,0,14h10.9l9.2-16C30.7,31,20.6,31,20,31z"/>
<path fill="#BA141A" d="M46,31c-0.4,0-3.7,0-7.9,0l-9.2,16H48c0,0,0-13,0-14S47,31,46,31z"/>
<g id="latch_2_">
	<g>
		<polygon fill="#E5E5E5" points="48,36 18,36 18,37 28.7,37 30,39 36,39 37.4,37 48,37 		"/>
	</g>
</g>
</svg>